<svg width="1104" height="459" viewBox="0 0 1104 459" fill="none" xmlns="http://www.w3.org/2000/svg">
<rect width="1104" height="459" rx="29" fill="black" fill-opacity="0.9"/>
<path d="M92.125 89.125L78.3752 75.375M82.9583 63.9167C82.9583 72.7762 75.7762 79.9583 66.9167 79.9583C58.0571 79.9583 50.875 72.7762 50.875 63.9167C50.875 55.0571 58.0571 47.875 66.9167 47.875C75.7762 47.875 82.9583 55.0571 82.9583 63.9167Z" stroke="white" stroke-width="2" stroke-linecap="round" stroke-linejoin="round"/>
<rect x="125" y="41" width="938" height="55" rx="8" fill="white" fill-opacity="0.5"/>
<path d="M156.719 68.3496H153.115L153.096 66.8359H156.367C156.908 66.8359 157.38 66.7448 157.783 66.5625C158.187 66.3802 158.499 66.1198 158.721 65.7812C158.949 65.4362 159.062 65.026 159.062 64.5508C159.062 64.0299 158.962 63.6068 158.76 63.2812C158.564 62.9492 158.262 62.7083 157.852 62.5586C157.448 62.4023 156.934 62.3242 156.309 62.3242H153.535V75H151.65V60.7812H156.309C157.038 60.7812 157.689 60.8561 158.262 61.0059C158.835 61.1491 159.32 61.377 159.717 61.6895C160.12 61.9954 160.426 62.3861 160.635 62.8613C160.843 63.3366 160.947 63.9062 160.947 64.5703C160.947 65.1562 160.798 65.6868 160.498 66.1621C160.199 66.6309 159.782 67.015 159.248 67.3145C158.721 67.6139 158.102 67.806 157.393 67.8906L156.719 68.3496ZM156.631 75H152.373L153.438 73.4668H156.631C157.23 73.4668 157.738 73.3626 158.154 73.1543C158.577 72.946 158.9 72.653 159.121 72.2754C159.342 71.8913 159.453 71.4388 159.453 70.918C159.453 70.3906 159.359 69.9349 159.17 69.5508C158.981 69.1667 158.685 68.8704 158.281 68.6621C157.878 68.4538 157.357 68.3496 156.719 68.3496H154.033L154.053 66.8359H157.725L158.125 67.3828C158.809 67.4414 159.388 67.6367 159.863 67.9688C160.339 68.2943 160.7 68.7109 160.947 69.2188C161.201 69.7266 161.328 70.2865 161.328 70.8984C161.328 71.7839 161.133 72.5326 160.742 73.1445C160.358 73.75 159.814 74.2122 159.111 74.5312C158.408 74.8438 157.581 75 156.631 75ZM170.303 72.5586V64.4336H172.119V75H170.391L170.303 72.5586ZM170.645 70.332L171.396 70.3125C171.396 71.0156 171.322 71.6667 171.172 72.2656C171.029 72.8581 170.794 73.3724 170.469 73.8086C170.143 74.2448 169.717 74.5866 169.189 74.834C168.662 75.0749 168.021 75.1953 167.266 75.1953C166.751 75.1953 166.279 75.1204 165.85 74.9707C165.426 74.821 165.062 74.5898 164.756 74.2773C164.45 73.9648 164.212 73.5579 164.043 73.0566C163.88 72.5553 163.799 71.9531 163.799 71.25V64.4336H165.605V71.2695C165.605 71.7448 165.658 72.1387 165.762 72.4512C165.872 72.7572 166.019 73.0013 166.201 73.1836C166.39 73.3594 166.598 73.4831 166.826 73.5547C167.061 73.6263 167.301 73.6621 167.549 73.6621C168.317 73.6621 168.926 73.5156 169.375 73.2227C169.824 72.9232 170.146 72.5228 170.342 72.0215C170.544 71.5137 170.645 70.9505 170.645 70.332ZM181.025 72.1973C181.025 71.9368 180.967 71.696 180.85 71.4746C180.739 71.2467 180.508 71.0417 180.156 70.8594C179.811 70.6706 179.29 70.5078 178.594 70.3711C178.008 70.2474 177.477 70.1009 177.002 69.9316C176.533 69.7624 176.133 69.5573 175.801 69.3164C175.475 69.0755 175.225 68.7923 175.049 68.4668C174.873 68.1413 174.785 67.7604 174.785 67.3242C174.785 66.9076 174.876 66.5137 175.059 66.1426C175.247 65.7715 175.511 65.4427 175.85 65.1562C176.195 64.8698 176.608 64.6452 177.09 64.4824C177.572 64.3197 178.109 64.2383 178.701 64.2383C179.548 64.2383 180.27 64.388 180.869 64.6875C181.468 64.987 181.927 65.3874 182.246 65.8887C182.565 66.3835 182.725 66.9336 182.725 67.5391H180.918C180.918 67.2461 180.83 66.9629 180.654 66.6895C180.485 66.4095 180.234 66.1784 179.902 65.9961C179.577 65.8138 179.176 65.7227 178.701 65.7227C178.2 65.7227 177.793 65.8008 177.48 65.957C177.174 66.1068 176.95 66.2988 176.807 66.5332C176.67 66.7676 176.602 67.015 176.602 67.2754C176.602 67.4707 176.634 67.6465 176.699 67.8027C176.771 67.9525 176.895 68.0924 177.07 68.2227C177.246 68.3464 177.493 68.4635 177.812 68.5742C178.132 68.6849 178.538 68.7956 179.033 68.9062C179.899 69.1016 180.612 69.3359 181.172 69.6094C181.732 69.8828 182.148 70.2181 182.422 70.6152C182.695 71.0124 182.832 71.4941 182.832 72.0605C182.832 72.5228 182.734 72.946 182.539 73.3301C182.35 73.7142 182.074 74.0462 181.709 74.3262C181.351 74.5996 180.921 74.8145 180.42 74.9707C179.925 75.1204 179.368 75.1953 178.75 75.1953C177.819 75.1953 177.031 75.0293 176.387 74.6973C175.742 74.3652 175.254 73.9355 174.922 73.4082C174.59 72.8809 174.424 72.3242 174.424 71.7383H176.24C176.266 72.2331 176.41 72.627 176.67 72.9199C176.93 73.2064 177.249 73.4115 177.627 73.5352C178.005 73.6523 178.379 73.7109 178.75 73.7109C179.245 73.7109 179.658 73.6458 179.99 73.5156C180.329 73.3854 180.586 73.2064 180.762 72.9785C180.938 72.7507 181.025 72.4902 181.025 72.1973ZM189.434 73.7109C189.863 73.7109 190.26 73.623 190.625 73.4473C190.99 73.2715 191.289 73.0306 191.523 72.7246C191.758 72.4121 191.891 72.0573 191.924 71.6602H193.643C193.61 72.2852 193.398 72.8678 193.008 73.4082C192.624 73.9421 192.119 74.375 191.494 74.707C190.869 75.0326 190.182 75.1953 189.434 75.1953C188.639 75.1953 187.946 75.0553 187.354 74.7754C186.768 74.4954 186.279 74.1113 185.889 73.623C185.505 73.1348 185.215 72.5749 185.02 71.9434C184.831 71.3053 184.736 70.6315 184.736 69.9219V69.5117C184.736 68.8021 184.831 68.1315 185.02 67.5C185.215 66.862 185.505 66.2988 185.889 65.8105C186.279 65.3223 186.768 64.9382 187.354 64.6582C187.946 64.3783 188.639 64.2383 189.434 64.2383C190.26 64.2383 190.983 64.4076 191.602 64.7461C192.22 65.0781 192.705 65.5339 193.057 66.1133C193.415 66.6862 193.61 67.3372 193.643 68.0664H191.924C191.891 67.6302 191.768 67.2363 191.553 66.8848C191.344 66.5332 191.058 66.2533 190.693 66.0449C190.335 65.8301 189.915 65.7227 189.434 65.7227C188.88 65.7227 188.415 65.8333 188.037 66.0547C187.666 66.2695 187.37 66.5625 187.148 66.9336C186.934 67.2982 186.777 67.7051 186.68 68.1543C186.589 68.597 186.543 69.0495 186.543 69.5117V69.9219C186.543 70.3841 186.589 70.8398 186.68 71.2891C186.771 71.7383 186.924 72.1452 187.139 72.5098C187.36 72.8743 187.656 73.1673 188.027 73.3887C188.405 73.6035 188.874 73.7109 189.434 73.7109ZM201.904 73.1934V67.7539C201.904 67.3372 201.82 66.9759 201.65 66.6699C201.488 66.3574 201.24 66.1165 200.908 65.9473C200.576 65.778 200.166 65.6934 199.678 65.6934C199.222 65.6934 198.822 65.7715 198.477 65.9277C198.138 66.084 197.871 66.2891 197.676 66.543C197.487 66.7969 197.393 67.0703 197.393 67.3633H195.586C195.586 66.9857 195.684 66.6113 195.879 66.2402C196.074 65.8691 196.354 65.5339 196.719 65.2344C197.09 64.9284 197.533 64.6875 198.047 64.5117C198.568 64.3294 199.147 64.2383 199.785 64.2383C200.553 64.2383 201.23 64.3685 201.816 64.6289C202.409 64.8893 202.871 65.2832 203.203 65.8105C203.542 66.3314 203.711 66.9857 203.711 67.7734V72.6953C203.711 73.0469 203.74 73.4212 203.799 73.8184C203.864 74.2155 203.958 74.5573 204.082 74.8438V75H202.197C202.106 74.7917 202.035 74.515 201.982 74.1699C201.93 73.8184 201.904 73.4928 201.904 73.1934ZM202.217 68.5938L202.236 69.8633H200.41C199.896 69.8633 199.437 69.9056 199.033 69.9902C198.63 70.0684 198.291 70.1888 198.018 70.3516C197.744 70.5143 197.536 70.7194 197.393 70.9668C197.249 71.2077 197.178 71.4909 197.178 71.8164C197.178 72.1484 197.253 72.4512 197.402 72.7246C197.552 72.998 197.777 73.2161 198.076 73.3789C198.382 73.5352 198.757 73.6133 199.199 73.6133C199.753 73.6133 200.241 73.4961 200.664 73.2617C201.087 73.0273 201.423 72.7409 201.67 72.4023C201.924 72.0638 202.061 71.735 202.08 71.416L202.852 72.2852C202.806 72.5586 202.682 72.8613 202.48 73.1934C202.279 73.5254 202.008 73.8444 201.67 74.1504C201.338 74.4499 200.941 74.7005 200.479 74.9023C200.023 75.0977 199.508 75.1953 198.936 75.1953C198.219 75.1953 197.591 75.0553 197.051 74.7754C196.517 74.4954 196.1 74.1211 195.801 73.6523C195.508 73.1771 195.361 72.6465 195.361 72.0605C195.361 71.4941 195.472 70.9961 195.693 70.5664C195.915 70.1302 196.234 69.7689 196.65 69.4824C197.067 69.1895 197.568 68.9681 198.154 68.8184C198.74 68.6686 199.395 68.5938 200.117 68.5938H202.217ZM208.359 66.0938V75H206.553V64.4336H208.311L208.359 66.0938ZM211.66 64.375L211.65 66.0547C211.501 66.0221 211.357 66.0026 211.221 65.9961C211.09 65.9831 210.941 65.9766 210.771 65.9766C210.355 65.9766 209.987 66.0417 209.668 66.1719C209.349 66.3021 209.079 66.4844 208.857 66.7188C208.636 66.9531 208.46 67.2331 208.33 67.5586C208.206 67.8776 208.125 68.2292 208.086 68.6133L207.578 68.9062C207.578 68.2682 207.64 67.6693 207.764 67.1094C207.894 66.5495 208.092 66.0547 208.359 65.625C208.626 65.1888 208.965 64.8503 209.375 64.6094C209.792 64.362 210.286 64.2383 210.859 64.2383C210.99 64.2383 211.139 64.2546 211.309 64.2871C211.478 64.3132 211.595 64.3424 211.66 64.375ZM222.52 73.7109C222.949 73.7109 223.346 73.623 223.711 73.4473C224.076 73.2715 224.375 73.0306 224.609 72.7246C224.844 72.4121 224.977 72.0573 225.01 71.6602H226.729C226.696 72.2852 226.484 72.8678 226.094 73.4082C225.71 73.9421 225.205 74.375 224.58 74.707C223.955 75.0326 223.268 75.1953 222.52 75.1953C221.725 75.1953 221.032 75.0553 220.439 74.7754C219.854 74.4954 219.365 74.1113 218.975 73.623C218.59 73.1348 218.301 72.5749 218.105 71.9434C217.917 71.3053 217.822 70.6315 217.822 69.9219V69.5117C217.822 68.8021 217.917 68.1315 218.105 67.5C218.301 66.862 218.59 66.2988 218.975 65.8105C219.365 65.3223 219.854 64.9382 220.439 64.6582C221.032 64.3783 221.725 64.2383 222.52 64.2383C223.346 64.2383 224.069 64.4076 224.688 64.7461C225.306 65.0781 225.791 65.5339 226.143 66.1133C226.501 66.6862 226.696 67.3372 226.729 68.0664H225.01C224.977 67.6302 224.854 67.2363 224.639 66.8848C224.43 66.5332 224.144 66.2533 223.779 66.0449C223.421 65.8301 223.001 65.7227 222.52 65.7227C221.966 65.7227 221.501 65.8333 221.123 66.0547C220.752 66.2695 220.456 66.5625 220.234 66.9336C220.02 67.2982 219.863 67.7051 219.766 68.1543C219.674 68.597 219.629 69.0495 219.629 69.5117V69.9219C219.629 70.3841 219.674 70.8398 219.766 71.2891C219.857 71.7383 220.01 72.1452 220.225 72.5098C220.446 72.8743 220.742 73.1673 221.113 73.3887C221.491 73.6035 221.96 73.7109 222.52 73.7109ZM228.281 69.834V69.6094C228.281 68.8477 228.392 68.1413 228.613 67.4902C228.835 66.8327 229.154 66.263 229.57 65.7812C229.987 65.293 230.492 64.9154 231.084 64.6484C231.676 64.375 232.34 64.2383 233.076 64.2383C233.818 64.2383 234.486 64.375 235.078 64.6484C235.677 64.9154 236.185 65.293 236.602 65.7812C237.025 66.263 237.347 66.8327 237.568 67.4902C237.79 68.1413 237.9 68.8477 237.9 69.6094V69.834C237.9 70.5957 237.79 71.3021 237.568 71.9531C237.347 72.6042 237.025 73.1738 236.602 73.6621C236.185 74.1439 235.68 74.5215 235.088 74.7949C234.502 75.0618 233.838 75.1953 233.096 75.1953C232.354 75.1953 231.686 75.0618 231.094 74.7949C230.501 74.5215 229.993 74.1439 229.57 73.6621C229.154 73.1738 228.835 72.6042 228.613 71.9531C228.392 71.3021 228.281 70.5957 228.281 69.834ZM230.088 69.6094V69.834C230.088 70.3613 230.15 70.8594 230.273 71.3281C230.397 71.7904 230.583 72.2005 230.83 72.5586C231.084 72.9167 231.4 73.1999 231.777 73.4082C232.155 73.61 232.594 73.7109 233.096 73.7109C233.59 73.7109 234.023 73.61 234.395 73.4082C234.772 73.1999 235.085 72.9167 235.332 72.5586C235.579 72.2005 235.765 71.7904 235.889 71.3281C236.019 70.8594 236.084 70.3613 236.084 69.834V69.6094C236.084 69.0885 236.019 68.597 235.889 68.1348C235.765 67.666 235.576 67.2526 235.322 66.8945C235.075 66.5299 234.762 66.2435 234.385 66.0352C234.014 65.8268 233.577 65.7227 233.076 65.7227C232.581 65.7227 232.145 65.8268 231.768 66.0352C231.396 66.2435 231.084 66.5299 230.83 66.8945C230.583 67.2526 230.397 67.666 230.273 68.1348C230.15 68.597 230.088 69.0885 230.088 69.6094ZM241.973 66.6895V75H240.166V64.4336H241.875L241.973 66.6895ZM241.543 69.3164L240.791 69.2871C240.798 68.5645 240.905 67.8971 241.113 67.2852C241.322 66.6667 241.615 66.1296 241.992 65.6738C242.37 65.2181 242.819 64.8665 243.34 64.6191C243.867 64.3652 244.45 64.2383 245.088 64.2383C245.609 64.2383 246.077 64.3099 246.494 64.4531C246.911 64.5898 247.266 64.8112 247.559 65.1172C247.858 65.4232 248.086 65.8203 248.242 66.3086C248.398 66.7904 248.477 67.3796 248.477 68.0762V75H246.66V68.0566C246.66 67.5033 246.579 67.0605 246.416 66.7285C246.253 66.39 246.016 66.1458 245.703 65.9961C245.391 65.8398 245.007 65.7617 244.551 65.7617C244.102 65.7617 243.691 65.8561 243.32 66.0449C242.956 66.2337 242.64 66.4941 242.373 66.8262C242.113 67.1582 241.908 67.5391 241.758 67.9688C241.615 68.3919 241.543 68.8411 241.543 69.3164ZM255.645 64.4336V65.8203H249.932V64.4336H255.645ZM251.865 61.8652H253.672V72.3828C253.672 72.7409 253.727 73.0111 253.838 73.1934C253.949 73.3757 254.092 73.4961 254.268 73.5547C254.443 73.6133 254.632 73.6426 254.834 73.6426C254.984 73.6426 255.14 73.6296 255.303 73.6035C255.472 73.571 255.599 73.5449 255.684 73.5254L255.693 75C255.55 75.0456 255.361 75.0879 255.127 75.127C254.899 75.1725 254.622 75.1953 254.297 75.1953C253.854 75.1953 253.447 75.1074 253.076 74.9316C252.705 74.7559 252.409 74.4629 252.188 74.0527C251.973 73.6361 251.865 73.0762 251.865 72.373V61.8652ZM262.148 75.1953C261.413 75.1953 260.745 75.0716 260.146 74.8242C259.554 74.5703 259.043 74.2155 258.613 73.7598C258.19 73.304 257.865 72.7637 257.637 72.1387C257.409 71.5137 257.295 70.8301 257.295 70.0879V69.6777C257.295 68.8184 257.422 68.0534 257.676 67.3828C257.93 66.7057 258.275 66.1328 258.711 65.6641C259.147 65.1953 259.642 64.8405 260.195 64.5996C260.749 64.3587 261.322 64.2383 261.914 64.2383C262.669 64.2383 263.32 64.3685 263.867 64.6289C264.421 64.8893 264.873 65.2539 265.225 65.7227C265.576 66.1849 265.837 66.7318 266.006 67.3633C266.175 67.9883 266.26 68.6719 266.26 69.4141V70.2246H258.369V68.75H264.453V68.6133C264.427 68.1445 264.329 67.6888 264.16 67.2461C263.997 66.8034 263.737 66.4388 263.379 66.1523C263.021 65.8659 262.533 65.7227 261.914 65.7227C261.504 65.7227 261.126 65.8105 260.781 65.9863C260.436 66.1556 260.14 66.4095 259.893 66.748C259.645 67.0866 259.453 67.5 259.316 67.9883C259.18 68.4766 259.111 69.0397 259.111 69.6777V70.0879C259.111 70.5892 259.18 71.0612 259.316 71.5039C259.46 71.9401 259.665 72.3242 259.932 72.6562C260.205 72.9883 260.534 73.2487 260.918 73.4375C261.309 73.6263 261.751 73.7207 262.246 73.7207C262.884 73.7207 263.424 73.5905 263.867 73.3301C264.31 73.0697 264.697 72.7214 265.029 72.2852L266.123 73.1543C265.895 73.4993 265.605 73.8281 265.254 74.1406C264.902 74.4531 264.469 74.707 263.955 74.9023C263.447 75.0977 262.845 75.1953 262.148 75.1953ZM270.176 66.6895V75H268.369V64.4336H270.078L270.176 66.6895ZM269.746 69.3164L268.994 69.2871C269.001 68.5645 269.108 67.8971 269.316 67.2852C269.525 66.6667 269.818 66.1296 270.195 65.6738C270.573 65.2181 271.022 64.8665 271.543 64.6191C272.07 64.3652 272.653 64.2383 273.291 64.2383C273.812 64.2383 274.281 64.3099 274.697 64.4531C275.114 64.5898 275.469 64.8112 275.762 65.1172C276.061 65.4232 276.289 65.8203 276.445 66.3086C276.602 66.7904 276.68 67.3796 276.68 68.0762V75H274.863V68.0566C274.863 67.5033 274.782 67.0605 274.619 66.7285C274.456 66.39 274.219 66.1458 273.906 65.9961C273.594 65.8398 273.21 65.7617 272.754 65.7617C272.305 65.7617 271.895 65.8561 271.523 66.0449C271.159 66.2337 270.843 66.4941 270.576 66.8262C270.316 67.1582 270.111 67.5391 269.961 67.9688C269.818 68.3919 269.746 68.8411 269.746 69.3164ZM281.387 64.4336V75H279.57V64.4336H281.387ZM279.434 61.6309C279.434 61.3379 279.521 61.0905 279.697 60.8887C279.88 60.6868 280.146 60.5859 280.498 60.5859C280.843 60.5859 281.107 60.6868 281.289 60.8887C281.478 61.0905 281.572 61.3379 281.572 61.6309C281.572 61.9108 281.478 62.1517 281.289 62.3535C281.107 62.5488 280.843 62.6465 280.498 62.6465C280.146 62.6465 279.88 62.5488 279.697 62.3535C279.521 62.1517 279.434 61.9108 279.434 61.6309ZM290.947 72.9492V60H292.764V75H291.104L290.947 72.9492ZM283.838 69.834V69.6289C283.838 68.8216 283.936 68.0892 284.131 67.4316C284.333 66.7676 284.616 66.1979 284.98 65.7227C285.352 65.2474 285.791 64.8828 286.299 64.6289C286.813 64.3685 287.386 64.2383 288.018 64.2383C288.682 64.2383 289.261 64.3555 289.756 64.5898C290.257 64.8177 290.68 65.153 291.025 65.5957C291.377 66.0319 291.654 66.5592 291.855 67.1777C292.057 67.7962 292.197 68.4961 292.275 69.2773V70.1758C292.204 70.9505 292.064 71.6471 291.855 72.2656C291.654 72.8841 291.377 73.4115 291.025 73.8477C290.68 74.2839 290.257 74.6191 289.756 74.8535C289.255 75.0814 288.669 75.1953 287.998 75.1953C287.38 75.1953 286.813 75.0618 286.299 74.7949C285.791 74.528 285.352 74.1536 284.98 73.6719C284.616 73.1901 284.333 72.6237 284.131 71.9727C283.936 71.3151 283.838 70.6022 283.838 69.834ZM285.654 69.6289V69.834C285.654 70.3613 285.706 70.8561 285.811 71.3184C285.921 71.7806 286.09 72.1875 286.318 72.5391C286.546 72.8906 286.836 73.1673 287.188 73.3691C287.539 73.5645 287.959 73.6621 288.447 73.6621C289.046 73.6621 289.538 73.5352 289.922 73.2812C290.312 73.0273 290.625 72.6921 290.859 72.2754C291.094 71.8587 291.276 71.4062 291.406 70.918V68.5645C291.328 68.2064 291.214 67.8613 291.064 67.5293C290.921 67.1908 290.732 66.8913 290.498 66.6309C290.27 66.3639 289.987 66.1523 289.648 65.9961C289.316 65.8398 288.923 65.7617 288.467 65.7617C287.972 65.7617 287.546 65.8659 287.188 66.0742C286.836 66.276 286.546 66.556 286.318 66.9141C286.09 67.2656 285.921 67.6758 285.811 68.1445C285.706 68.6068 285.654 69.1016 285.654 69.6289ZM295.098 69.834V69.6094C295.098 68.8477 295.208 68.1413 295.43 67.4902C295.651 66.8327 295.97 66.263 296.387 65.7812C296.803 65.293 297.308 64.9154 297.9 64.6484C298.493 64.375 299.157 64.2383 299.893 64.2383C300.635 64.2383 301.302 64.375 301.895 64.6484C302.493 64.9154 303.001 65.293 303.418 65.7812C303.841 66.263 304.163 66.8327 304.385 67.4902C304.606 68.1413 304.717 68.8477 304.717 69.6094V69.834C304.717 70.5957 304.606 71.3021 304.385 71.9531C304.163 72.6042 303.841 73.1738 303.418 73.6621C303.001 74.1439 302.497 74.5215 301.904 74.7949C301.318 75.0618 300.654 75.1953 299.912 75.1953C299.17 75.1953 298.503 75.0618 297.91 74.7949C297.318 74.5215 296.81 74.1439 296.387 73.6621C295.97 73.1738 295.651 72.6042 295.43 71.9531C295.208 71.3021 295.098 70.5957 295.098 69.834ZM296.904 69.6094V69.834C296.904 70.3613 296.966 70.8594 297.09 71.3281C297.214 71.7904 297.399 72.2005 297.646 72.5586C297.9 72.9167 298.216 73.1999 298.594 73.4082C298.971 73.61 299.411 73.7109 299.912 73.7109C300.407 73.7109 300.84 73.61 301.211 73.4082C301.589 73.1999 301.901 72.9167 302.148 72.5586C302.396 72.2005 302.581 71.7904 302.705 71.3281C302.835 70.8594 302.9 70.3613 302.9 69.834V69.6094C302.9 69.0885 302.835 68.597 302.705 68.1348C302.581 67.666 302.393 67.2526 302.139 66.8945C301.891 66.5299 301.579 66.2435 301.201 66.0352C300.83 65.8268 300.394 65.7227 299.893 65.7227C299.398 65.7227 298.962 65.8268 298.584 66.0352C298.213 66.2435 297.9 66.5299 297.646 66.8945C297.399 67.2526 297.214 67.666 297.09 68.1348C296.966 68.597 296.904 69.0885 296.904 69.6094ZM313.135 72.1973C313.135 71.9368 313.076 71.696 312.959 71.4746C312.848 71.2467 312.617 71.0417 312.266 70.8594C311.921 70.6706 311.4 70.5078 310.703 70.3711C310.117 70.2474 309.587 70.1009 309.111 69.9316C308.643 69.7624 308.242 69.5573 307.91 69.3164C307.585 69.0755 307.334 68.7923 307.158 68.4668C306.982 68.1413 306.895 67.7604 306.895 67.3242C306.895 66.9076 306.986 66.5137 307.168 66.1426C307.357 65.7715 307.62 65.4427 307.959 65.1562C308.304 64.8698 308.717 64.6452 309.199 64.4824C309.681 64.3197 310.218 64.2383 310.811 64.2383C311.657 64.2383 312.38 64.388 312.979 64.6875C313.577 64.987 314.036 65.3874 314.355 65.8887C314.674 66.3835 314.834 66.9336 314.834 67.5391H313.027C313.027 67.2461 312.939 66.9629 312.764 66.6895C312.594 66.4095 312.344 66.1784 312.012 65.9961C311.686 65.8138 311.286 65.7227 310.811 65.7227C310.309 65.7227 309.902 65.8008 309.59 65.957C309.284 66.1068 309.059 66.2988 308.916 66.5332C308.779 66.7676 308.711 67.015 308.711 67.2754C308.711 67.4707 308.743 67.6465 308.809 67.8027C308.88 67.9525 309.004 68.0924 309.18 68.2227C309.355 68.3464 309.603 68.4635 309.922 68.5742C310.241 68.6849 310.648 68.7956 311.143 68.9062C312.008 69.1016 312.721 69.3359 313.281 69.6094C313.841 69.8828 314.258 70.2181 314.531 70.6152C314.805 71.0124 314.941 71.4941 314.941 72.0605C314.941 72.5228 314.844 72.946 314.648 73.3301C314.46 73.7142 314.183 74.0462 313.818 74.3262C313.46 74.5996 313.031 74.8145 312.529 74.9707C312.035 75.1204 311.478 75.1953 310.859 75.1953C309.928 75.1953 309.141 75.0293 308.496 74.6973C307.852 74.3652 307.363 73.9355 307.031 73.4082C306.699 72.8809 306.533 72.3242 306.533 71.7383H308.35C308.376 72.2331 308.519 72.627 308.779 72.9199C309.04 73.2064 309.359 73.4115 309.736 73.5352C310.114 73.6523 310.488 73.7109 310.859 73.7109C311.354 73.7109 311.768 73.6458 312.1 73.5156C312.438 73.3854 312.695 73.2064 312.871 72.9785C313.047 72.7507 313.135 72.4902 313.135 72.1973ZM317.344 74.043C317.344 73.737 317.438 73.4798 317.627 73.2715C317.822 73.0566 318.102 72.9492 318.467 72.9492C318.831 72.9492 319.108 73.0566 319.297 73.2715C319.492 73.4798 319.59 73.737 319.59 74.043C319.59 74.3424 319.492 74.5964 319.297 74.8047C319.108 75.013 318.831 75.1172 318.467 75.1172C318.102 75.1172 317.822 75.013 317.627 74.8047C317.438 74.5964 317.344 74.3424 317.344 74.043ZM322.617 74.043C322.617 73.737 322.712 73.4798 322.9 73.2715C323.096 73.0566 323.376 72.9492 323.74 72.9492C324.105 72.9492 324.382 73.0566 324.57 73.2715C324.766 73.4798 324.863 73.737 324.863 74.043C324.863 74.3424 324.766 74.5964 324.57 74.8047C324.382 75.013 324.105 75.1172 323.74 75.1172C323.376 75.1172 323.096 75.013 322.9 74.8047C322.712 74.5964 322.617 74.3424 322.617 74.043ZM327.891 74.043C327.891 73.737 327.985 73.4798 328.174 73.2715C328.369 73.0566 328.649 72.9492 329.014 72.9492C329.378 72.9492 329.655 73.0566 329.844 73.2715C330.039 73.4798 330.137 73.737 330.137 74.043C330.137 74.3424 330.039 74.5964 329.844 74.8047C329.655 75.013 329.378 75.1172 329.014 75.1172C328.649 75.1172 328.369 75.013 328.174 74.8047C327.985 74.5964 327.891 74.3424 327.891 74.043Z" fill="white"/>
</svg>
