<svg width="771" height="111" viewBox="0 0 771 111" fill="none" xmlns="http://www.w3.org/2000/svg">
<path d="M46.25 69.375L32.0269 83.7758C30.043 85.7846 29.051 86.7889 28.1984 86.8598C27.4587 86.9212 26.7344 86.6239 26.2513 86.0603C25.6944 85.4108 25.6944 83.9991 25.6944 81.1759V73.9612C25.6944 72.6004 25.6944 71.92 25.484 71.3881C25.2084 70.6918 24.84 70.2655 24.191 69.8919C23.6952 69.6066 22.8348 69.4806 21.1141 69.2285V69.2285C15.0486 68.34 10.285 63.5764 9.3965 57.5109C9.25 56.5108 9.25 55.3174 9.25 52.9305V31.45C9.25 23.6793 9.25 19.7939 10.7623 16.8259C12.0925 14.2151 14.2151 12.0925 16.8259 10.7623C19.7939 9.25 23.6793 9.25 31.45 9.25H65.675C73.4457 9.25 77.3311 9.25 80.2991 10.7623C82.9099 12.0925 85.0325 14.2151 86.3627 16.8259C87.875 19.7939 87.875 23.6793 87.875 31.45V50.875M87.875 101.75L77.8091 94.7518C76.3942 93.7681 75.6867 93.2762 74.9167 92.9275C74.2333 92.618 73.5148 92.3927 72.777 92.2568C71.9457 92.1036 71.0841 92.1036 69.3608 92.1036H61.05C55.8695 92.1036 53.2793 92.1036 51.3006 91.0954C49.5601 90.2086 48.145 88.7935 47.2582 87.053C46.25 85.0743 46.25 82.4841 46.25 77.3036V65.675C46.25 60.4945 46.25 57.9043 47.2582 55.9256C48.145 54.1851 49.5601 52.77 51.3006 51.8832C53.2793 50.875 55.8695 50.875 61.05 50.875H86.95C92.1305 50.875 94.7207 50.875 96.6994 51.8832C98.4399 52.77 99.855 54.1851 100.742 55.9256C101.75 57.9043 101.75 60.4945 101.75 65.675V78.2286C101.75 82.5385 101.75 84.6935 101.046 86.3934C100.107 88.6599 98.3063 90.4606 96.0398 91.3995C94.3399 92.1036 92.185 92.1036 87.875 92.1036V101.75Z" stroke="white" stroke-width="2" stroke-linecap="round" stroke-linejoin="round"/>
<path d="M149.242 48.6445H153.725C153.725 49.6992 153.648 50.6074 153.496 51.3691C153.344 52.1191 153.086 52.7988 152.723 53.4082C152.359 54.0059 151.844 54.6152 151.176 55.2363C150.637 55.7402 150.15 56.2207 149.717 56.6777C149.295 57.123 148.955 57.6035 148.697 58.1191C148.451 58.623 148.328 59.209 148.328 59.877C148.328 60.5215 148.439 61.0605 148.662 61.4941C148.885 61.9277 149.201 62.2441 149.611 62.4434C150.021 62.6543 150.502 62.7598 151.053 62.7598C151.592 62.7598 152.084 62.6484 152.529 62.4258C152.975 62.2148 153.332 61.8809 153.602 61.4238C153.883 60.9668 154.029 60.3809 154.041 59.666H159.121C159.098 61.2715 158.729 62.6016 158.014 63.6562C157.311 64.7109 156.361 65.4902 155.166 65.9941C153.971 66.5098 152.629 66.7676 151.141 66.7676C149.5 66.7676 148.088 66.5039 146.904 65.9766C145.732 65.4492 144.83 64.6758 144.197 63.6562C143.564 62.6367 143.248 61.3828 143.248 59.8945C143.248 58.8633 143.453 57.9434 143.863 57.1348C144.285 56.3145 144.83 55.5527 145.498 54.8496C146.178 54.1465 146.898 53.4434 147.66 52.7402C148.105 52.3301 148.439 51.9316 148.662 51.5449C148.885 51.1465 149.037 50.7129 149.119 50.2441C149.201 49.7754 149.242 49.2422 149.242 48.6445ZM154.393 43.2305C154.393 43.9688 154.129 44.5898 153.602 45.0938C153.086 45.5859 152.4 45.832 151.545 45.832C150.678 45.832 149.986 45.5859 149.471 45.0938C148.955 44.5898 148.697 43.9688 148.697 43.2305C148.697 42.4922 148.955 41.8711 149.471 41.3672C149.986 40.8633 150.678 40.6113 151.545 40.6113C152.4 40.6113 153.086 40.8633 153.602 41.3672C154.129 41.8711 154.393 42.4922 154.393 43.2305ZM177.051 51.5098H182.307C182.201 53.2324 181.727 54.7617 180.883 56.0977C180.051 57.4336 178.885 58.4766 177.385 59.2266C175.896 59.9766 174.104 60.3516 172.006 60.3516C170.365 60.3516 168.895 60.0703 167.594 59.5078C166.293 58.9336 165.18 58.1133 164.254 57.0469C163.34 55.9805 162.643 54.6914 162.162 53.1797C161.682 51.668 161.441 49.9746 161.441 48.0996V46.3242C161.441 44.4492 161.688 42.7559 162.18 41.2441C162.684 39.7207 163.398 38.4258 164.324 37.3594C165.262 36.293 166.381 35.4727 167.682 34.8984C168.982 34.3242 170.436 34.0371 172.041 34.0371C174.174 34.0371 175.973 34.4238 177.438 35.1973C178.914 35.9707 180.057 37.0371 180.865 38.3965C181.686 39.7559 182.178 41.3027 182.342 43.0371H177.068C177.01 42.0059 176.805 41.1328 176.453 40.418C176.102 39.6914 175.568 39.1465 174.854 38.7832C174.15 38.4082 173.213 38.2207 172.041 38.2207C171.162 38.2207 170.395 38.3848 169.738 38.7129C169.082 39.041 168.531 39.5391 168.086 40.207C167.641 40.875 167.307 41.7188 167.084 42.7383C166.873 43.7461 166.768 44.9297 166.768 46.2891V48.0996C166.768 49.4238 166.867 50.5898 167.066 51.5977C167.266 52.5938 167.57 53.4375 167.98 54.1289C168.402 54.8086 168.941 55.3242 169.598 55.6758C170.266 56.0156 171.068 56.1855 172.006 56.1855C173.107 56.1855 174.016 56.0098 174.73 55.6582C175.445 55.3066 175.99 54.7852 176.365 54.0938C176.752 53.4023 176.98 52.541 177.051 51.5098ZM184.645 50.6836V50.3145C184.645 48.9199 184.844 47.6367 185.242 46.4648C185.641 45.2812 186.221 44.2559 186.982 43.3887C187.744 42.5215 188.682 41.8477 189.795 41.3672C190.908 40.875 192.186 40.6289 193.627 40.6289C195.068 40.6289 196.352 40.875 197.477 41.3672C198.602 41.8477 199.545 42.5215 200.307 43.3887C201.08 44.2559 201.666 45.2812 202.064 46.4648C202.463 47.6367 202.662 48.9199 202.662 50.3145V50.6836C202.662 52.0664 202.463 53.3496 202.064 54.5332C201.666 55.7051 201.08 56.7305 200.307 57.6094C199.545 58.4766 198.607 59.1504 197.494 59.6309C196.381 60.1113 195.104 60.3516 193.662 60.3516C192.221 60.3516 190.938 60.1113 189.812 59.6309C188.699 59.1504 187.756 58.4766 186.982 57.6094C186.221 56.7305 185.641 55.7051 185.242 54.5332C184.844 53.3496 184.645 52.0664 184.645 50.6836ZM189.707 50.3145V50.6836C189.707 51.4805 189.777 52.2246 189.918 52.916C190.059 53.6074 190.281 54.2168 190.586 54.7441C190.902 55.2598 191.312 55.6641 191.816 55.957C192.32 56.25 192.936 56.3965 193.662 56.3965C194.365 56.3965 194.969 56.25 195.473 55.957C195.977 55.6641 196.381 55.2598 196.686 54.7441C196.99 54.2168 197.213 53.6074 197.354 52.916C197.506 52.2246 197.582 51.4805 197.582 50.6836V50.3145C197.582 49.541 197.506 48.8145 197.354 48.1348C197.213 47.4434 196.984 46.834 196.668 46.3066C196.363 45.7676 195.959 45.3457 195.455 45.041C194.951 44.7363 194.342 44.584 193.627 44.584C192.912 44.584 192.303 44.7363 191.799 45.041C191.307 45.3457 190.902 45.7676 190.586 46.3066C190.281 46.834 190.059 47.4434 189.918 48.1348C189.777 48.8145 189.707 49.541 189.707 50.3145ZM191.201 38.4141L194.646 33H200.148L195.314 38.4141H191.201ZM210.836 44.918V60H205.756V40.9805H210.52L210.836 44.918ZM210.133 49.8223H208.727C208.727 48.498 208.885 47.2793 209.201 46.166C209.529 45.041 210.004 44.0684 210.625 43.248C211.258 42.416 212.037 41.7715 212.963 41.3145C213.889 40.8574 214.961 40.6289 216.18 40.6289C217.023 40.6289 217.797 40.7578 218.5 41.0156C219.203 41.2617 219.807 41.6543 220.311 42.1934C220.826 42.7207 221.225 43.4121 221.506 44.2676C221.787 45.1113 221.928 46.125 221.928 47.3086V60H216.865V47.8711C216.865 47.0039 216.748 46.3359 216.514 45.8672C216.279 45.3984 215.945 45.0703 215.512 44.8828C215.09 44.6953 214.58 44.6016 213.982 44.6016C213.326 44.6016 212.752 44.7363 212.26 45.0059C211.779 45.2754 211.381 45.6504 211.064 46.1309C210.748 46.5996 210.514 47.1504 210.361 47.7832C210.209 48.416 210.133 49.0957 210.133 49.8223ZM221.453 49.2422L219.643 49.4707C219.643 48.2285 219.795 47.0742 220.1 46.0078C220.416 44.9414 220.879 44.0039 221.488 43.1953C222.109 42.3867 222.877 41.7598 223.791 41.3145C224.705 40.8574 225.76 40.6289 226.955 40.6289C227.869 40.6289 228.701 40.7637 229.451 41.0332C230.201 41.291 230.84 41.707 231.367 42.2812C231.906 42.8438 232.316 43.582 232.598 44.4961C232.891 45.4102 233.037 46.5293 233.037 47.8535V60H227.957V47.8535C227.957 46.9746 227.84 46.3066 227.605 45.8496C227.383 45.3809 227.055 45.0586 226.621 44.8828C226.199 44.6953 225.695 44.6016 225.109 44.6016C224.5 44.6016 223.967 44.7246 223.51 44.9707C223.053 45.2051 222.672 45.5332 222.367 45.9551C222.062 46.377 221.834 46.8691 221.682 47.4316C221.529 47.9824 221.453 48.5859 221.453 49.2422ZM236.148 50.6836V50.3145C236.148 48.9199 236.348 47.6367 236.746 46.4648C237.145 45.2812 237.725 44.2559 238.486 43.3887C239.248 42.5215 240.186 41.8477 241.299 41.3672C242.412 40.875 243.689 40.6289 245.131 40.6289C246.572 40.6289 247.855 40.875 248.98 41.3672C250.105 41.8477 251.049 42.5215 251.811 43.3887C252.584 44.2559 253.17 45.2812 253.568 46.4648C253.967 47.6367 254.166 48.9199 254.166 50.3145V50.6836C254.166 52.0664 253.967 53.3496 253.568 54.5332C253.17 55.7051 252.584 56.7305 251.811 57.6094C251.049 58.4766 250.111 59.1504 248.998 59.6309C247.885 60.1113 246.607 60.3516 245.166 60.3516C243.725 60.3516 242.441 60.1113 241.316 59.6309C240.203 59.1504 239.26 58.4766 238.486 57.6094C237.725 56.7305 237.145 55.7051 236.746 54.5332C236.348 53.3496 236.148 52.0664 236.148 50.6836ZM241.211 50.3145V50.6836C241.211 51.4805 241.281 52.2246 241.422 52.916C241.562 53.6074 241.785 54.2168 242.09 54.7441C242.406 55.2598 242.816 55.6641 243.32 55.957C243.824 56.25 244.439 56.3965 245.166 56.3965C245.869 56.3965 246.473 56.25 246.977 55.957C247.48 55.6641 247.885 55.2598 248.189 54.7441C248.494 54.2168 248.717 53.6074 248.857 52.916C249.01 52.2246 249.086 51.4805 249.086 50.6836V50.3145C249.086 49.541 249.01 48.8145 248.857 48.1348C248.717 47.4434 248.488 46.834 248.172 46.3066C247.867 45.7676 247.463 45.3457 246.959 45.041C246.455 44.7363 245.846 44.584 245.131 44.584C244.416 44.584 243.807 44.7363 243.303 45.041C242.811 45.3457 242.406 45.7676 242.09 46.3066C241.785 46.834 241.562 47.4434 241.422 48.1348C241.281 48.8145 241.211 49.541 241.211 50.3145ZM271.305 44.6367V67.3125H266.242V40.9805H270.936L271.305 44.6367ZM283.346 50.2793V50.6484C283.346 52.0312 283.182 53.3145 282.854 54.498C282.537 55.6816 282.068 56.7129 281.447 57.5918C280.826 58.459 280.053 59.1387 279.127 59.6309C278.213 60.1113 277.158 60.3516 275.963 60.3516C274.803 60.3516 273.795 60.1172 272.939 59.6484C272.084 59.1797 271.363 58.5234 270.777 57.6797C270.203 56.8242 269.74 55.834 269.389 54.709C269.037 53.584 268.768 52.377 268.58 51.0879V50.1211C268.768 48.7383 269.037 47.4727 269.389 46.3242C269.74 45.1641 270.203 44.1621 270.777 43.3184C271.363 42.4629 272.078 41.8008 272.922 41.332C273.777 40.8633 274.779 40.6289 275.928 40.6289C277.135 40.6289 278.195 40.8574 279.109 41.3145C280.035 41.7715 280.809 42.4277 281.43 43.2832C282.062 44.1387 282.537 45.1582 282.854 46.3418C283.182 47.5254 283.346 48.8379 283.346 50.2793ZM278.266 50.6484V50.2793C278.266 49.4707 278.195 48.7266 278.055 48.0469C277.926 47.3555 277.715 46.752 277.422 46.2363C277.141 45.7207 276.766 45.3223 276.297 45.041C275.84 44.748 275.283 44.6016 274.627 44.6016C273.936 44.6016 273.344 44.7129 272.852 44.9355C272.371 45.1582 271.979 45.4805 271.674 45.9023C271.369 46.3242 271.141 46.8281 270.988 47.4141C270.836 48 270.742 48.6621 270.707 49.4004V51.8438C270.766 52.7109 270.93 53.4902 271.199 54.1816C271.469 54.8613 271.885 55.4004 272.447 55.7988C273.01 56.1973 273.748 56.3965 274.662 56.3965C275.33 56.3965 275.893 56.25 276.35 55.957C276.807 55.6523 277.176 55.2363 277.457 54.709C277.75 54.1816 277.955 53.5723 278.072 52.8809C278.201 52.1895 278.266 51.4453 278.266 50.6484ZM285.684 50.6836V50.3145C285.684 48.9199 285.883 47.6367 286.281 46.4648C286.68 45.2812 287.26 44.2559 288.021 43.3887C288.783 42.5215 289.721 41.8477 290.834 41.3672C291.947 40.875 293.225 40.6289 294.666 40.6289C296.107 40.6289 297.391 40.875 298.516 41.3672C299.641 41.8477 300.584 42.5215 301.346 43.3887C302.119 44.2559 302.705 45.2812 303.104 46.4648C303.502 47.6367 303.701 48.9199 303.701 50.3145V50.6836C303.701 52.0664 303.502 53.3496 303.104 54.5332C302.705 55.7051 302.119 56.7305 301.346 57.6094C300.584 58.4766 299.646 59.1504 298.533 59.6309C297.42 60.1113 296.143 60.3516 294.701 60.3516C293.26 60.3516 291.977 60.1113 290.852 59.6309C289.738 59.1504 288.795 58.4766 288.021 57.6094C287.26 56.7305 286.68 55.7051 286.281 54.5332C285.883 53.3496 285.684 52.0664 285.684 50.6836ZM290.746 50.3145V50.6836C290.746 51.4805 290.816 52.2246 290.957 52.916C291.098 53.6074 291.32 54.2168 291.625 54.7441C291.941 55.2598 292.352 55.6641 292.855 55.957C293.359 56.25 293.975 56.3965 294.701 56.3965C295.404 56.3965 296.008 56.25 296.512 55.957C297.016 55.6641 297.42 55.2598 297.725 54.7441C298.029 54.2168 298.252 53.6074 298.393 52.916C298.545 52.2246 298.621 51.4805 298.621 50.6836V50.3145C298.621 49.541 298.545 48.8145 298.393 48.1348C298.252 47.4434 298.023 46.834 297.707 46.3066C297.402 45.7676 296.998 45.3457 296.494 45.041C295.99 44.7363 295.381 44.584 294.666 44.584C293.951 44.584 293.342 44.7363 292.838 45.041C292.346 45.3457 291.941 45.7676 291.625 46.3066C291.32 46.834 291.098 47.4434 290.957 48.1348C290.816 48.8145 290.746 49.541 290.746 50.3145ZM318.045 55.8516V33H323.143V60H318.555L318.045 55.8516ZM306.021 50.7188V50.3496C306.021 48.8965 306.186 47.5781 306.514 46.3945C306.842 45.1992 307.322 44.1738 307.955 43.3184C308.588 42.4629 309.367 41.8008 310.293 41.332C311.219 40.8633 312.273 40.6289 313.457 40.6289C314.57 40.6289 315.543 40.8633 316.375 41.332C317.219 41.8008 317.934 42.4688 318.52 43.3359C319.117 44.1914 319.598 45.2051 319.961 46.377C320.324 47.5371 320.588 48.8086 320.752 50.1914V51C320.588 52.3242 320.324 53.5547 319.961 54.6914C319.598 55.8281 319.117 56.8242 318.52 57.6797C317.934 58.5234 317.219 59.1797 316.375 59.6484C315.531 60.1172 314.547 60.3516 313.422 60.3516C312.238 60.3516 311.184 60.1113 310.258 59.6309C309.344 59.1504 308.57 58.4766 307.938 57.6094C307.316 56.7422 306.842 55.7227 306.514 54.5508C306.186 53.3789 306.021 52.1016 306.021 50.7188ZM311.084 50.3496V50.7188C311.084 51.5039 311.143 52.2363 311.26 52.916C311.389 53.5957 311.594 54.1992 311.875 54.7266C312.168 55.2422 312.543 55.6465 313 55.9395C313.469 56.2207 314.037 56.3613 314.705 56.3613C315.572 56.3613 316.287 56.168 316.85 55.7812C317.412 55.3828 317.84 54.8379 318.133 54.1465C318.438 53.4551 318.613 52.6582 318.66 51.7559V49.4531C318.625 48.7148 318.52 48.0527 318.344 47.4668C318.18 46.8691 317.934 46.3594 317.605 45.9375C317.289 45.5156 316.891 45.1875 316.41 44.9531C315.941 44.7188 315.385 44.6016 314.74 44.6016C314.084 44.6016 313.521 44.7539 313.053 45.0586C312.584 45.3516 312.203 45.7559 311.91 46.2715C311.629 46.7871 311.418 47.3965 311.277 48.0996C311.148 48.791 311.084 49.541 311.084 50.3496ZM335.852 60.3516C334.375 60.3516 333.051 60.1172 331.879 59.6484C330.707 59.168 329.711 58.5059 328.891 57.6621C328.082 56.8184 327.461 55.8398 327.027 54.7266C326.594 53.6016 326.377 52.4062 326.377 51.1406V50.4375C326.377 48.9961 326.582 47.6777 326.992 46.4824C327.402 45.2871 327.988 44.25 328.75 43.3711C329.523 42.4922 330.461 41.8184 331.562 41.3496C332.664 40.8691 333.906 40.6289 335.289 40.6289C336.637 40.6289 337.832 40.8516 338.875 41.2969C339.918 41.7422 340.791 42.375 341.494 43.1953C342.209 44.0156 342.748 45 343.111 46.1484C343.475 47.2852 343.656 48.5508 343.656 49.9453V52.0547H328.539V48.6797H338.682V48.293C338.682 47.5898 338.553 46.9629 338.295 46.4121C338.049 45.8496 337.674 45.4043 337.17 45.0762C336.666 44.748 336.021 44.584 335.236 44.584C334.568 44.584 333.994 44.7305 333.514 45.0234C333.033 45.3164 332.641 45.7266 332.336 46.2539C332.043 46.7812 331.82 47.4023 331.668 48.1172C331.527 48.8203 331.457 49.5938 331.457 50.4375V51.1406C331.457 51.9023 331.562 52.6055 331.773 53.25C331.996 53.8945 332.307 54.4512 332.705 54.9199C333.115 55.3887 333.607 55.752 334.182 56.0098C334.768 56.2676 335.43 56.3965 336.168 56.3965C337.082 56.3965 337.932 56.2207 338.717 55.8691C339.514 55.5059 340.199 54.9609 340.773 54.2344L343.234 56.9062C342.836 57.4805 342.291 58.0312 341.6 58.5586C340.92 59.0859 340.1 59.5195 339.139 59.8594C338.178 60.1875 337.082 60.3516 335.852 60.3516ZM351.602 44.918V60H346.521V40.9805H351.285L351.602 44.918ZM350.898 49.8223H349.492C349.492 48.498 349.65 47.2793 349.967 46.166C350.295 45.041 350.77 44.0684 351.391 43.248C352.023 42.416 352.803 41.7715 353.729 41.3145C354.654 40.8574 355.727 40.6289 356.945 40.6289C357.789 40.6289 358.562 40.7578 359.266 41.0156C359.969 41.2617 360.572 41.6543 361.076 42.1934C361.592 42.7207 361.99 43.4121 362.271 44.2676C362.553 45.1113 362.693 46.125 362.693 47.3086V60H357.631V47.8711C357.631 47.0039 357.514 46.3359 357.279 45.8672C357.045 45.3984 356.711 45.0703 356.277 44.8828C355.855 44.6953 355.346 44.6016 354.748 44.6016C354.092 44.6016 353.518 44.7363 353.025 45.0059C352.545 45.2754 352.146 45.6504 351.83 46.1309C351.514 46.5996 351.279 47.1504 351.127 47.7832C350.975 48.416 350.898 49.0957 350.898 49.8223ZM362.219 49.2422L360.408 49.4707C360.408 48.2285 360.561 47.0742 360.865 46.0078C361.182 44.9414 361.645 44.0039 362.254 43.1953C362.875 42.3867 363.643 41.7598 364.557 41.3145C365.471 40.8574 366.525 40.6289 367.721 40.6289C368.635 40.6289 369.467 40.7637 370.217 41.0332C370.967 41.291 371.605 41.707 372.133 42.2812C372.672 42.8438 373.082 43.582 373.363 44.4961C373.656 45.4102 373.803 46.5293 373.803 47.8535V60H368.723V47.8535C368.723 46.9746 368.605 46.3066 368.371 45.8496C368.148 45.3809 367.82 45.0586 367.387 44.8828C366.965 44.6953 366.461 44.6016 365.875 44.6016C365.266 44.6016 364.732 44.7246 364.275 44.9707C363.818 45.2051 363.438 45.5332 363.133 45.9551C362.828 46.377 362.6 46.8691 362.447 47.4316C362.295 47.9824 362.219 48.5859 362.219 49.2422ZM376.914 50.6836V50.3145C376.914 48.9199 377.113 47.6367 377.512 46.4648C377.91 45.2812 378.49 44.2559 379.252 43.3887C380.014 42.5215 380.951 41.8477 382.064 41.3672C383.178 40.875 384.455 40.6289 385.896 40.6289C387.338 40.6289 388.621 40.875 389.746 41.3672C390.871 41.8477 391.814 42.5215 392.576 43.3887C393.35 44.2559 393.936 45.2812 394.334 46.4648C394.732 47.6367 394.932 48.9199 394.932 50.3145V50.6836C394.932 52.0664 394.732 53.3496 394.334 54.5332C393.936 55.7051 393.35 56.7305 392.576 57.6094C391.814 58.4766 390.877 59.1504 389.764 59.6309C388.65 60.1113 387.373 60.3516 385.932 60.3516C384.49 60.3516 383.207 60.1113 382.082 59.6309C380.969 59.1504 380.025 58.4766 379.252 57.6094C378.49 56.7305 377.91 55.7051 377.512 54.5332C377.113 53.3496 376.914 52.0664 376.914 50.6836ZM381.977 50.3145V50.6836C381.977 51.4805 382.047 52.2246 382.188 52.916C382.328 53.6074 382.551 54.2168 382.855 54.7441C383.172 55.2598 383.582 55.6641 384.086 55.957C384.59 56.25 385.205 56.3965 385.932 56.3965C386.635 56.3965 387.238 56.25 387.742 55.957C388.246 55.6641 388.65 55.2598 388.955 54.7441C389.26 54.2168 389.482 53.6074 389.623 52.916C389.775 52.2246 389.852 51.4805 389.852 50.6836V50.3145C389.852 49.541 389.775 48.8145 389.623 48.1348C389.482 47.4434 389.254 46.834 388.938 46.3066C388.633 45.7676 388.229 45.3457 387.725 45.041C387.221 44.7363 386.611 44.584 385.896 44.584C385.182 44.584 384.572 44.7363 384.068 45.041C383.576 45.3457 383.172 45.7676 382.855 46.3066C382.551 46.834 382.328 47.4434 382.188 48.1348C382.047 48.8145 381.977 49.541 381.977 50.3145ZM408.326 54.7441C408.326 54.3809 408.221 54.0527 408.01 53.7598C407.799 53.4668 407.406 53.1973 406.832 52.9512C406.27 52.6934 405.455 52.459 404.389 52.248C403.428 52.0371 402.531 51.7734 401.699 51.457C400.879 51.1289 400.164 50.7363 399.555 50.2793C398.957 49.8223 398.488 49.2832 398.148 48.6621C397.809 48.0293 397.639 47.3086 397.639 46.5C397.639 45.7031 397.809 44.9531 398.148 44.25C398.5 43.5469 398.998 42.9258 399.643 42.3867C400.299 41.8359 401.096 41.4082 402.033 41.1035C402.982 40.7871 404.049 40.6289 405.232 40.6289C406.885 40.6289 408.303 40.8926 409.486 41.4199C410.682 41.9473 411.596 42.6738 412.229 43.5996C412.873 44.5137 413.195 45.5566 413.195 46.7285H408.133C408.133 46.2363 408.027 45.7969 407.816 45.4102C407.617 45.0117 407.301 44.7012 406.867 44.4785C406.445 44.2441 405.895 44.127 405.215 44.127C404.652 44.127 404.166 44.2266 403.756 44.4258C403.346 44.6133 403.029 44.8711 402.807 45.1992C402.596 45.5156 402.49 45.8672 402.49 46.2539C402.49 46.5469 402.549 46.8105 402.666 47.0449C402.795 47.2676 403 47.4727 403.281 47.6602C403.562 47.8477 403.926 48.0234 404.371 48.1875C404.828 48.3398 405.391 48.4805 406.059 48.6094C407.43 48.8906 408.654 49.2598 409.732 49.7168C410.811 50.1621 411.666 50.7715 412.299 51.5449C412.932 52.3066 413.248 53.3086 413.248 54.5508C413.248 55.3945 413.061 56.168 412.686 56.8711C412.311 57.5742 411.771 58.1895 411.068 58.7168C410.365 59.2324 409.521 59.6367 408.537 59.9297C407.564 60.2109 406.469 60.3516 405.25 60.3516C403.48 60.3516 401.98 60.0352 400.75 59.4023C399.531 58.7695 398.605 57.9668 397.973 56.9941C397.352 56.0098 397.041 55.002 397.041 53.9707H401.84C401.863 54.6621 402.039 55.2188 402.367 55.6406C402.707 56.0625 403.135 56.3672 403.65 56.5547C404.178 56.7422 404.746 56.8359 405.355 56.8359C406.012 56.8359 406.557 56.748 406.99 56.5723C407.424 56.3848 407.752 56.1387 407.975 55.834C408.209 55.5176 408.326 55.1543 408.326 54.7441ZM435.766 55.7109V47.2383C435.766 46.6289 435.666 46.1074 435.467 45.6738C435.268 45.2285 434.957 44.8828 434.535 44.6367C434.125 44.3906 433.592 44.2676 432.936 44.2676C432.373 44.2676 431.887 44.3672 431.477 44.5664C431.066 44.7539 430.75 45.0293 430.527 45.3926C430.305 45.7441 430.193 46.1602 430.193 46.6406H425.131C425.131 45.832 425.318 45.0645 425.693 44.3379C426.068 43.6113 426.613 42.9727 427.328 42.4219C428.043 41.8594 428.893 41.4199 429.877 41.1035C430.873 40.7871 431.986 40.6289 433.217 40.6289C434.693 40.6289 436.006 40.875 437.154 41.3672C438.303 41.8594 439.205 42.5977 439.861 43.582C440.529 44.5664 440.863 45.7969 440.863 47.2734V55.4121C440.863 56.4551 440.928 57.3105 441.057 57.9785C441.186 58.6348 441.373 59.209 441.619 59.7012V60H436.504C436.258 59.4844 436.07 58.8398 435.941 58.0664C435.824 57.2812 435.766 56.4961 435.766 55.7109ZM436.434 48.416L436.469 51.2812H433.639C432.971 51.2812 432.391 51.3574 431.898 51.5098C431.406 51.6621 431.002 51.8789 430.686 52.1602C430.369 52.4297 430.135 52.7461 429.982 53.1094C429.842 53.4727 429.771 53.8711 429.771 54.3047C429.771 54.7383 429.871 55.1309 430.07 55.4824C430.27 55.8223 430.557 56.0918 430.932 56.291C431.307 56.4785 431.746 56.5723 432.25 56.5723C433.012 56.5723 433.674 56.4199 434.236 56.1152C434.799 55.8105 435.232 55.4355 435.537 54.9902C435.854 54.5449 436.018 54.123 436.029 53.7246L437.365 55.8691C437.178 56.3496 436.92 56.8477 436.592 57.3633C436.275 57.8789 435.871 58.3652 435.379 58.8223C434.887 59.2676 434.295 59.6367 433.604 59.9297C432.912 60.2109 432.092 60.3516 431.143 60.3516C429.936 60.3516 428.84 60.1113 427.855 59.6309C426.883 59.1387 426.109 58.4648 425.535 57.6094C424.973 56.7422 424.691 55.7578 424.691 54.6562C424.691 53.6602 424.879 52.7754 425.254 52.002C425.629 51.2285 426.18 50.5781 426.906 50.0508C427.645 49.5117 428.564 49.1074 429.666 48.8379C430.768 48.5566 432.045 48.416 433.498 48.416H436.434ZM450.127 57.8555L455.172 40.9805H460.604L452.957 62.8652C452.793 63.3457 452.57 63.8613 452.289 64.4121C452.02 64.9629 451.65 65.4844 451.182 65.9766C450.725 66.4805 450.145 66.8906 449.441 67.207C448.75 67.5234 447.9 67.6816 446.893 67.6816C446.412 67.6816 446.02 67.6523 445.715 67.5938C445.41 67.5352 445.047 67.4531 444.625 67.3477V63.6387C444.754 63.6387 444.889 63.6387 445.029 63.6387C445.17 63.6504 445.305 63.6562 445.434 63.6562C446.102 63.6562 446.646 63.5801 447.068 63.4277C447.49 63.2754 447.83 63.041 448.088 62.7246C448.346 62.4199 448.551 62.0215 448.703 61.5293L450.127 57.8555ZM448.018 40.9805L452.148 54.7617L452.869 60.123L449.424 60.4922L442.586 40.9805H448.018ZM473.875 55.4473V40.9805H478.938V60H474.174L473.875 55.4473ZM474.438 51.5449L475.932 51.5098C475.932 52.7754 475.785 53.9531 475.492 55.043C475.199 56.1211 474.76 57.0586 474.174 57.8555C473.588 58.6406 472.85 59.2559 471.959 59.7012C471.068 60.1348 470.02 60.3516 468.812 60.3516C467.887 60.3516 467.031 60.2227 466.246 59.9648C465.473 59.6953 464.805 59.2793 464.242 58.7168C463.691 58.1426 463.258 57.4102 462.941 56.5195C462.637 55.6172 462.484 54.5332 462.484 53.2676V40.9805H467.547V53.3027C467.547 53.8652 467.611 54.3398 467.74 54.7266C467.881 55.1133 468.074 55.4297 468.32 55.6758C468.566 55.9219 468.854 56.0977 469.182 56.2031C469.521 56.3086 469.896 56.3613 470.307 56.3613C471.35 56.3613 472.17 56.1504 472.768 55.7285C473.377 55.3066 473.805 54.7324 474.051 54.0059C474.309 53.2676 474.438 52.4473 474.438 51.5449ZM494.037 55.8516V33H499.135V60H494.547L494.037 55.8516ZM482.014 50.7188V50.3496C482.014 48.8965 482.178 47.5781 482.506 46.3945C482.834 45.1992 483.314 44.1738 483.947 43.3184C484.58 42.4629 485.359 41.8008 486.285 41.332C487.211 40.8633 488.266 40.6289 489.449 40.6289C490.562 40.6289 491.535 40.8633 492.367 41.332C493.211 41.8008 493.926 42.4688 494.512 43.3359C495.109 44.1914 495.59 45.2051 495.953 46.377C496.316 47.5371 496.58 48.8086 496.744 50.1914V51C496.58 52.3242 496.316 53.5547 495.953 54.6914C495.59 55.8281 495.109 56.8242 494.512 57.6797C493.926 58.5234 493.211 59.1797 492.367 59.6484C491.523 60.1172 490.539 60.3516 489.414 60.3516C488.23 60.3516 487.176 60.1113 486.25 59.6309C485.336 59.1504 484.562 58.4766 483.93 57.6094C483.309 56.7422 482.834 55.7227 482.506 54.5508C482.178 53.3789 482.014 52.1016 482.014 50.7188ZM487.076 50.3496V50.7188C487.076 51.5039 487.135 52.2363 487.252 52.916C487.381 53.5957 487.586 54.1992 487.867 54.7266C488.16 55.2422 488.535 55.6465 488.992 55.9395C489.461 56.2207 490.029 56.3613 490.697 56.3613C491.564 56.3613 492.279 56.168 492.842 55.7812C493.404 55.3828 493.832 54.8379 494.125 54.1465C494.43 53.4551 494.605 52.6582 494.652 51.7559V49.4531C494.617 48.7148 494.512 48.0527 494.336 47.4668C494.172 46.8691 493.926 46.3594 493.598 45.9375C493.281 45.5156 492.883 45.1875 492.402 44.9531C491.934 44.7188 491.377 44.6016 490.732 44.6016C490.076 44.6016 489.514 44.7539 489.045 45.0586C488.576 45.3516 488.195 45.7559 487.902 46.2715C487.621 46.7871 487.41 47.3965 487.27 48.0996C487.141 48.791 487.076 49.541 487.076 50.3496ZM513.355 55.7109V47.2383C513.355 46.6289 513.256 46.1074 513.057 45.6738C512.857 45.2285 512.547 44.8828 512.125 44.6367C511.715 44.3906 511.182 44.2676 510.525 44.2676C509.963 44.2676 509.477 44.3672 509.066 44.5664C508.656 44.7539 508.34 45.0293 508.117 45.3926C507.895 45.7441 507.783 46.1602 507.783 46.6406H502.721C502.721 45.832 502.908 45.0645 503.283 44.3379C503.658 43.6113 504.203 42.9727 504.918 42.4219C505.633 41.8594 506.482 41.4199 507.467 41.1035C508.463 40.7871 509.576 40.6289 510.807 40.6289C512.283 40.6289 513.596 40.875 514.744 41.3672C515.893 41.8594 516.795 42.5977 517.451 43.582C518.119 44.5664 518.453 45.7969 518.453 47.2734V55.4121C518.453 56.4551 518.518 57.3105 518.646 57.9785C518.775 58.6348 518.963 59.209 519.209 59.7012V60H514.094C513.848 59.4844 513.66 58.8398 513.531 58.0664C513.414 57.2812 513.355 56.4961 513.355 55.7109ZM514.023 48.416L514.059 51.2812H511.229C510.561 51.2812 509.98 51.3574 509.488 51.5098C508.996 51.6621 508.592 51.8789 508.275 52.1602C507.959 52.4297 507.725 52.7461 507.572 53.1094C507.432 53.4727 507.361 53.8711 507.361 54.3047C507.361 54.7383 507.461 55.1309 507.66 55.4824C507.859 55.8223 508.146 56.0918 508.521 56.291C508.896 56.4785 509.336 56.5723 509.84 56.5723C510.602 56.5723 511.264 56.4199 511.826 56.1152C512.389 55.8105 512.822 55.4355 513.127 54.9902C513.443 54.5449 513.607 54.123 513.619 53.7246L514.955 55.8691C514.768 56.3496 514.51 56.8477 514.182 57.3633C513.865 57.8789 513.461 58.3652 512.969 58.8223C512.477 59.2676 511.885 59.6367 511.193 59.9297C510.502 60.2109 509.682 60.3516 508.732 60.3516C507.525 60.3516 506.43 60.1113 505.445 59.6309C504.473 59.1387 503.699 58.4648 503.125 57.6094C502.562 56.7422 502.281 55.7578 502.281 54.6562C502.281 53.6602 502.469 52.7754 502.844 52.002C503.219 51.2285 503.77 50.5781 504.496 50.0508C505.234 49.5117 506.154 49.1074 507.256 48.8379C508.357 48.5566 509.635 48.416 511.088 48.416H514.023ZM527.418 45.1289V60H522.355V40.9805H527.119L527.418 45.1289ZM533.148 40.8574L533.061 45.5508C532.814 45.5156 532.516 45.4863 532.164 45.4629C531.824 45.4277 531.514 45.4102 531.232 45.4102C530.518 45.4102 529.896 45.5039 529.369 45.6914C528.854 45.8672 528.42 46.1309 528.068 46.4824C527.729 46.834 527.471 47.2617 527.295 47.7656C527.131 48.2695 527.037 48.8438 527.014 49.4883L525.994 49.1719C525.994 47.9414 526.117 46.8105 526.363 45.7793C526.609 44.7363 526.967 43.8281 527.436 43.0547C527.916 42.2812 528.502 41.6836 529.193 41.2617C529.885 40.8398 530.676 40.6289 531.566 40.6289C531.848 40.6289 532.135 40.6523 532.428 40.6992C532.721 40.7344 532.961 40.7871 533.148 40.8574ZM554.77 55.7109V47.2383C554.77 46.6289 554.67 46.1074 554.471 45.6738C554.271 45.2285 553.961 44.8828 553.539 44.6367C553.129 44.3906 552.596 44.2676 551.939 44.2676C551.377 44.2676 550.891 44.3672 550.48 44.5664C550.07 44.7539 549.754 45.0293 549.531 45.3926C549.309 45.7441 549.197 46.1602 549.197 46.6406H544.135C544.135 45.832 544.322 45.0645 544.697 44.3379C545.072 43.6113 545.617 42.9727 546.332 42.4219C547.047 41.8594 547.896 41.4199 548.881 41.1035C549.877 40.7871 550.99 40.6289 552.221 40.6289C553.697 40.6289 555.01 40.875 556.158 41.3672C557.307 41.8594 558.209 42.5977 558.865 43.582C559.533 44.5664 559.867 45.7969 559.867 47.2734V55.4121C559.867 56.4551 559.932 57.3105 560.061 57.9785C560.189 58.6348 560.377 59.209 560.623 59.7012V60H555.508C555.262 59.4844 555.074 58.8398 554.945 58.0664C554.828 57.2812 554.77 56.4961 554.77 55.7109ZM555.438 48.416L555.473 51.2812H552.643C551.975 51.2812 551.395 51.3574 550.902 51.5098C550.41 51.6621 550.006 51.8789 549.689 52.1602C549.373 52.4297 549.139 52.7461 548.986 53.1094C548.846 53.4727 548.775 53.8711 548.775 54.3047C548.775 54.7383 548.875 55.1309 549.074 55.4824C549.273 55.8223 549.561 56.0918 549.936 56.291C550.311 56.4785 550.75 56.5723 551.254 56.5723C552.016 56.5723 552.678 56.4199 553.24 56.1152C553.803 55.8105 554.236 55.4355 554.541 54.9902C554.857 54.5449 555.021 54.123 555.033 53.7246L556.369 55.8691C556.182 56.3496 555.924 56.8477 555.596 57.3633C555.279 57.8789 554.875 58.3652 554.383 58.8223C553.891 59.2676 553.299 59.6367 552.607 59.9297C551.916 60.2109 551.096 60.3516 550.146 60.3516C548.939 60.3516 547.844 60.1113 546.859 59.6309C545.887 59.1387 545.113 58.4648 544.539 57.6094C543.977 56.7422 543.695 55.7578 543.695 54.6562C543.695 53.6602 543.883 52.7754 544.258 52.002C544.633 51.2285 545.184 50.5781 545.91 50.0508C546.648 49.5117 547.568 49.1074 548.67 48.8379C549.771 48.5566 551.049 48.416 552.502 48.416H555.438ZM582.051 40.9805V44.5664H570.977V40.9805H582.051ZM573.719 36.2871H578.781V54.2695C578.781 54.8203 578.852 55.2422 578.992 55.5352C579.145 55.8281 579.367 56.0332 579.66 56.1504C579.953 56.2559 580.322 56.3086 580.768 56.3086C581.084 56.3086 581.365 56.2969 581.611 56.2734C581.869 56.2383 582.086 56.2031 582.262 56.168L582.279 59.8945C581.846 60.0352 581.377 60.1465 580.873 60.2285C580.369 60.3105 579.812 60.3516 579.203 60.3516C578.09 60.3516 577.117 60.1699 576.285 59.8066C575.465 59.4316 574.832 58.834 574.387 58.0137C573.941 57.1934 573.719 56.1152 573.719 54.7793V36.2871ZM596.184 55.4473V40.9805H601.246V60H596.482L596.184 55.4473ZM596.746 51.5449L598.24 51.5098C598.24 52.7754 598.094 53.9531 597.801 55.043C597.508 56.1211 597.068 57.0586 596.482 57.8555C595.896 58.6406 595.158 59.2559 594.268 59.7012C593.377 60.1348 592.328 60.3516 591.121 60.3516C590.195 60.3516 589.34 60.2227 588.555 59.9648C587.781 59.6953 587.113 59.2793 586.551 58.7168C586 58.1426 585.566 57.4102 585.25 56.5195C584.945 55.6172 584.793 54.5332 584.793 53.2676V40.9805H589.855V53.3027C589.855 53.8652 589.92 54.3398 590.049 54.7266C590.189 55.1133 590.383 55.4297 590.629 55.6758C590.875 55.9219 591.162 56.0977 591.49 56.2031C591.83 56.3086 592.205 56.3613 592.615 56.3613C593.658 56.3613 594.479 56.1504 595.076 55.7285C595.686 55.3066 596.113 54.7324 596.359 54.0059C596.617 53.2676 596.746 52.4473 596.746 51.5449ZM622.832 60.3516C621.355 60.3516 620.031 60.1172 618.859 59.6484C617.688 59.168 616.691 58.5059 615.871 57.6621C615.062 56.8184 614.441 55.8398 614.008 54.7266C613.574 53.6016 613.357 52.4062 613.357 51.1406V50.4375C613.357 48.9961 613.562 47.6777 613.973 46.4824C614.383 45.2871 614.969 44.25 615.73 43.3711C616.504 42.4922 617.441 41.8184 618.543 41.3496C619.645 40.8691 620.887 40.6289 622.27 40.6289C623.617 40.6289 624.812 40.8516 625.855 41.2969C626.898 41.7422 627.771 42.375 628.475 43.1953C629.189 44.0156 629.729 45 630.092 46.1484C630.455 47.2852 630.637 48.5508 630.637 49.9453V52.0547H615.52V48.6797H625.662V48.293C625.662 47.5898 625.533 46.9629 625.275 46.4121C625.029 45.8496 624.654 45.4043 624.15 45.0762C623.646 44.748 623.002 44.584 622.217 44.584C621.549 44.584 620.975 44.7305 620.494 45.0234C620.014 45.3164 619.621 45.7266 619.316 46.2539C619.023 46.7812 618.801 47.4023 618.648 48.1172C618.508 48.8203 618.438 49.5938 618.438 50.4375V51.1406C618.438 51.9023 618.543 52.6055 618.754 53.25C618.977 53.8945 619.287 54.4512 619.686 54.9199C620.096 55.3887 620.588 55.752 621.162 56.0098C621.748 56.2676 622.41 56.3965 623.148 56.3965C624.062 56.3965 624.912 56.2207 625.697 55.8691C626.494 55.5059 627.18 54.9609 627.754 54.2344L630.215 56.9062C629.816 57.4805 629.271 58.0312 628.58 58.5586C627.9 59.0859 627.08 59.5195 626.119 59.8594C625.158 60.1875 624.062 60.3516 622.832 60.3516ZM638.582 44.918V60H633.502V40.9805H638.266L638.582 44.918ZM637.879 49.8223H636.473C636.473 48.498 636.631 47.2793 636.947 46.166C637.275 45.041 637.75 44.0684 638.371 43.248C639.004 42.416 639.783 41.7715 640.709 41.3145C641.635 40.8574 642.707 40.6289 643.926 40.6289C644.77 40.6289 645.543 40.7578 646.246 41.0156C646.949 41.2617 647.553 41.6543 648.057 42.1934C648.572 42.7207 648.971 43.4121 649.252 44.2676C649.533 45.1113 649.674 46.125 649.674 47.3086V60H644.611V47.8711C644.611 47.0039 644.494 46.3359 644.26 45.8672C644.025 45.3984 643.691 45.0703 643.258 44.8828C642.836 44.6953 642.326 44.6016 641.729 44.6016C641.072 44.6016 640.498 44.7363 640.006 45.0059C639.525 45.2754 639.127 45.6504 638.811 46.1309C638.494 46.5996 638.26 47.1504 638.107 47.7832C637.955 48.416 637.879 49.0957 637.879 49.8223ZM649.199 49.2422L647.389 49.4707C647.389 48.2285 647.541 47.0742 647.846 46.0078C648.162 44.9414 648.625 44.0039 649.234 43.1953C649.855 42.3867 650.623 41.7598 651.537 41.3145C652.451 40.8574 653.506 40.6289 654.701 40.6289C655.615 40.6289 656.447 40.7637 657.197 41.0332C657.947 41.291 658.586 41.707 659.113 42.2812C659.652 42.8438 660.062 43.582 660.344 44.4961C660.637 45.4102 660.783 46.5293 660.783 47.8535V60H655.703V47.8535C655.703 46.9746 655.586 46.3066 655.352 45.8496C655.129 45.3809 654.801 45.0586 654.367 44.8828C653.945 44.6953 653.441 44.6016 652.855 44.6016C652.246 44.6016 651.713 44.7246 651.256 44.9707C650.799 45.2051 650.418 45.5332 650.113 45.9551C649.809 46.377 649.58 46.8691 649.428 47.4316C649.275 47.9824 649.199 48.5859 649.199 49.2422ZM669.766 44.6367V67.3125H664.703V40.9805H669.396L669.766 44.6367ZM681.807 50.2793V50.6484C681.807 52.0312 681.643 53.3145 681.314 54.498C680.998 55.6816 680.529 56.7129 679.908 57.5918C679.287 58.459 678.514 59.1387 677.588 59.6309C676.674 60.1113 675.619 60.3516 674.424 60.3516C673.264 60.3516 672.256 60.1172 671.4 59.6484C670.545 59.1797 669.824 58.5234 669.238 57.6797C668.664 56.8242 668.201 55.834 667.85 54.709C667.498 53.584 667.229 52.377 667.041 51.0879V50.1211C667.229 48.7383 667.498 47.4727 667.85 46.3242C668.201 45.1641 668.664 44.1621 669.238 43.3184C669.824 42.4629 670.539 41.8008 671.383 41.332C672.238 40.8633 673.24 40.6289 674.389 40.6289C675.596 40.6289 676.656 40.8574 677.57 41.3145C678.496 41.7715 679.27 42.4277 679.891 43.2832C680.523 44.1387 680.998 45.1582 681.314 46.3418C681.643 47.5254 681.807 48.8379 681.807 50.2793ZM676.727 50.6484V50.2793C676.727 49.4707 676.656 48.7266 676.516 48.0469C676.387 47.3555 676.176 46.752 675.883 46.2363C675.602 45.7207 675.227 45.3223 674.758 45.041C674.301 44.748 673.744 44.6016 673.088 44.6016C672.396 44.6016 671.805 44.7129 671.312 44.9355C670.832 45.1582 670.439 45.4805 670.135 45.9023C669.83 46.3242 669.602 46.8281 669.449 47.4141C669.297 48 669.203 48.6621 669.168 49.4004V51.8438C669.227 52.7109 669.391 53.4902 669.66 54.1816C669.93 54.8613 670.346 55.4004 670.908 55.7988C671.471 56.1973 672.209 56.3965 673.123 56.3965C673.791 56.3965 674.354 56.25 674.811 55.957C675.268 55.6523 675.637 55.2363 675.918 54.709C676.211 54.1816 676.416 53.5723 676.533 52.8809C676.662 52.1895 676.727 51.4453 676.727 50.6484ZM690.016 45.1289V60H684.953V40.9805H689.717L690.016 45.1289ZM695.746 40.8574L695.658 45.5508C695.412 45.5156 695.113 45.4863 694.762 45.4629C694.422 45.4277 694.111 45.4102 693.83 45.4102C693.115 45.4102 692.494 45.5039 691.967 45.6914C691.451 45.8672 691.018 46.1309 690.666 46.4824C690.326 46.834 690.068 47.2617 689.893 47.7656C689.729 48.2695 689.635 48.8438 689.611 49.4883L688.592 49.1719C688.592 47.9414 688.715 46.8105 688.961 45.7793C689.207 44.7363 689.564 43.8281 690.033 43.0547C690.514 42.2812 691.1 41.6836 691.791 41.2617C692.482 40.8398 693.273 40.6289 694.164 40.6289C694.445 40.6289 694.732 40.6523 695.025 40.6992C695.318 40.7344 695.559 40.7871 695.746 40.8574ZM706.539 60.3516C705.062 60.3516 703.738 60.1172 702.566 59.6484C701.395 59.168 700.398 58.5059 699.578 57.6621C698.77 56.8184 698.148 55.8398 697.715 54.7266C697.281 53.6016 697.064 52.4062 697.064 51.1406V50.4375C697.064 48.9961 697.27 47.6777 697.68 46.4824C698.09 45.2871 698.676 44.25 699.438 43.3711C700.211 42.4922 701.148 41.8184 702.25 41.3496C703.352 40.8691 704.594 40.6289 705.977 40.6289C707.324 40.6289 708.52 40.8516 709.562 41.2969C710.605 41.7422 711.479 42.375 712.182 43.1953C712.896 44.0156 713.436 45 713.799 46.1484C714.162 47.2852 714.344 48.5508 714.344 49.9453V52.0547H699.227V48.6797H709.369V48.293C709.369 47.5898 709.24 46.9629 708.982 46.4121C708.736 45.8496 708.361 45.4043 707.857 45.0762C707.354 44.748 706.709 44.584 705.924 44.584C705.256 44.584 704.682 44.7305 704.201 45.0234C703.721 45.3164 703.328 45.7266 703.023 46.2539C702.73 46.7812 702.508 47.4023 702.355 48.1172C702.215 48.8203 702.145 49.5938 702.145 50.4375V51.1406C702.145 51.9023 702.25 52.6055 702.461 53.25C702.684 53.8945 702.994 54.4512 703.393 54.9199C703.803 55.3887 704.295 55.752 704.869 56.0098C705.455 56.2676 706.117 56.3965 706.855 56.3965C707.77 56.3965 708.619 56.2207 709.404 55.8691C710.201 55.5059 710.887 54.9609 711.461 54.2344L713.922 56.9062C713.523 57.4805 712.979 58.0312 712.287 58.5586C711.607 59.0859 710.787 59.5195 709.826 59.8594C708.865 60.1875 707.77 60.3516 706.539 60.3516ZM727.51 54.7441C727.51 54.3809 727.404 54.0527 727.193 53.7598C726.982 53.4668 726.59 53.1973 726.016 52.9512C725.453 52.6934 724.639 52.459 723.572 52.248C722.611 52.0371 721.715 51.7734 720.883 51.457C720.062 51.1289 719.348 50.7363 718.738 50.2793C718.141 49.8223 717.672 49.2832 717.332 48.6621C716.992 48.0293 716.822 47.3086 716.822 46.5C716.822 45.7031 716.992 44.9531 717.332 44.25C717.684 43.5469 718.182 42.9258 718.826 42.3867C719.482 41.8359 720.279 41.4082 721.217 41.1035C722.166 40.7871 723.232 40.6289 724.416 40.6289C726.068 40.6289 727.486 40.8926 728.67 41.4199C729.865 41.9473 730.779 42.6738 731.412 43.5996C732.057 44.5137 732.379 45.5566 732.379 46.7285H727.316C727.316 46.2363 727.211 45.7969 727 45.4102C726.801 45.0117 726.484 44.7012 726.051 44.4785C725.629 44.2441 725.078 44.127 724.398 44.127C723.836 44.127 723.35 44.2266 722.939 44.4258C722.529 44.6133 722.213 44.8711 721.99 45.1992C721.779 45.5156 721.674 45.8672 721.674 46.2539C721.674 46.5469 721.732 46.8105 721.85 47.0449C721.979 47.2676 722.184 47.4727 722.465 47.6602C722.746 47.8477 723.109 48.0234 723.555 48.1875C724.012 48.3398 724.574 48.4805 725.242 48.6094C726.613 48.8906 727.838 49.2598 728.916 49.7168C729.994 50.1621 730.85 50.7715 731.482 51.5449C732.115 52.3066 732.432 53.3086 732.432 54.5508C732.432 55.3945 732.244 56.168 731.869 56.8711C731.494 57.5742 730.955 58.1895 730.252 58.7168C729.549 59.2324 728.705 59.6367 727.721 59.9297C726.748 60.2109 725.652 60.3516 724.434 60.3516C722.664 60.3516 721.164 60.0352 719.934 59.4023C718.715 58.7695 717.789 57.9668 717.156 56.9941C716.535 56.0098 716.225 55.002 716.225 53.9707H721.023C721.047 54.6621 721.223 55.2188 721.551 55.6406C721.891 56.0625 722.318 56.3672 722.834 56.5547C723.361 56.7422 723.93 56.8359 724.539 56.8359C725.195 56.8359 725.74 56.748 726.174 56.5723C726.607 56.3848 726.936 56.1387 727.158 55.834C727.393 55.5176 727.51 55.1543 727.51 54.7441ZM745.984 55.7109V47.2383C745.984 46.6289 745.885 46.1074 745.686 45.6738C745.486 45.2285 745.176 44.8828 744.754 44.6367C744.344 44.3906 743.811 44.2676 743.154 44.2676C742.592 44.2676 742.105 44.3672 741.695 44.5664C741.285 44.7539 740.969 45.0293 740.746 45.3926C740.523 45.7441 740.412 46.1602 740.412 46.6406H735.35C735.35 45.832 735.537 45.0645 735.912 44.3379C736.287 43.6113 736.832 42.9727 737.547 42.4219C738.262 41.8594 739.111 41.4199 740.096 41.1035C741.092 40.7871 742.205 40.6289 743.436 40.6289C744.912 40.6289 746.225 40.875 747.373 41.3672C748.521 41.8594 749.424 42.5977 750.08 43.582C750.748 44.5664 751.082 45.7969 751.082 47.2734V55.4121C751.082 56.4551 751.146 57.3105 751.275 57.9785C751.404 58.6348 751.592 59.209 751.838 59.7012V60H746.723C746.477 59.4844 746.289 58.8398 746.16 58.0664C746.043 57.2812 745.984 56.4961 745.984 55.7109ZM746.652 48.416L746.688 51.2812H743.857C743.189 51.2812 742.609 51.3574 742.117 51.5098C741.625 51.6621 741.221 51.8789 740.904 52.1602C740.588 52.4297 740.354 52.7461 740.201 53.1094C740.061 53.4727 739.99 53.8711 739.99 54.3047C739.99 54.7383 740.09 55.1309 740.289 55.4824C740.488 55.8223 740.775 56.0918 741.15 56.291C741.525 56.4785 741.965 56.5723 742.469 56.5723C743.23 56.5723 743.893 56.4199 744.455 56.1152C745.018 55.8105 745.451 55.4355 745.756 54.9902C746.072 54.5449 746.236 54.123 746.248 53.7246L747.584 55.8691C747.396 56.3496 747.139 56.8477 746.811 57.3633C746.494 57.8789 746.09 58.3652 745.598 58.8223C745.105 59.2676 744.514 59.6367 743.822 59.9297C743.131 60.2109 742.311 60.3516 741.361 60.3516C740.154 60.3516 739.059 60.1113 738.074 59.6309C737.102 59.1387 736.328 58.4648 735.754 57.6094C735.191 56.7422 734.91 55.7578 734.91 54.6562C734.91 53.6602 735.098 52.7754 735.473 52.002C735.848 51.2285 736.398 50.5781 737.125 50.0508C737.863 49.5117 738.783 49.1074 739.885 48.8379C740.986 48.5566 742.264 48.416 743.717 48.416H746.652ZM763.615 52.1777H759.133C759.145 51.123 759.227 50.2148 759.379 49.4531C759.543 48.6797 759.818 47.9824 760.205 47.3613C760.604 46.7402 761.131 46.125 761.787 45.5156C762.338 45.0234 762.818 44.5547 763.229 44.1094C763.639 43.6641 763.961 43.207 764.195 42.7383C764.43 42.2578 764.547 41.7246 764.547 41.1387C764.547 40.459 764.441 39.8965 764.23 39.4512C764.031 38.9941 763.727 38.6484 763.316 38.4141C762.918 38.1797 762.414 38.0625 761.805 38.0625C761.301 38.0625 760.832 38.1738 760.398 38.3965C759.965 38.6074 759.607 38.9355 759.326 39.3809C759.057 39.8262 758.916 40.4121 758.904 41.1387H753.807C753.842 39.5332 754.211 38.209 754.914 37.166C755.629 36.1113 756.584 35.332 757.779 34.8281C758.975 34.3125 760.316 34.0547 761.805 34.0547C763.445 34.0547 764.852 34.3242 766.023 34.8633C767.195 35.3906 768.092 36.1699 768.713 37.2012C769.334 38.2207 769.645 39.4629 769.645 40.9277C769.645 41.9473 769.445 42.8555 769.047 43.6523C768.648 44.4375 768.127 45.1699 767.482 45.8496C766.838 46.5293 766.129 47.2324 765.355 47.959C764.688 48.5566 764.23 49.1836 763.984 49.8398C763.75 50.4961 763.627 51.2754 763.615 52.1777ZM758.605 57.6094C758.605 56.8594 758.863 56.2383 759.379 55.7461C759.895 55.2422 760.586 54.9902 761.453 54.9902C762.309 54.9902 762.994 55.2422 763.51 55.7461C764.037 56.2383 764.301 56.8594 764.301 57.6094C764.301 58.3359 764.037 58.9512 763.51 59.4551C762.994 59.959 762.309 60.2109 761.453 60.2109C760.586 60.2109 759.895 59.959 759.379 59.4551C758.863 58.9512 758.605 58.3359 758.605 57.6094Z" fill="white"/>
</svg>
