<svg width="72" height="64" viewBox="0 0 72 64" fill="none" xmlns="http://www.w3.org/2000/svg">
<path d="M8.875 58.7734V60H2.85156V58.7734H8.875ZM3.15625 48.625V60H1.64844V48.625H3.15625ZM8.07812 53.5156V54.7422H2.85156V53.5156H8.07812ZM8.79688 48.625V49.8594H2.85156V48.625H8.79688ZM11.9609 53.2266V60H10.5078V51.5469H11.8828L11.9609 53.2266ZM11.6641 55.4531L10.9922 55.4297C10.9974 54.8516 11.0729 54.3177 11.2188 53.8281C11.3646 53.3333 11.5807 52.9036 11.8672 52.5391C12.1536 52.1745 12.5104 51.8932 12.9375 51.6953C13.3646 51.4922 13.8594 51.3906 14.4219 51.3906C14.8177 51.3906 15.1823 51.4479 15.5156 51.5625C15.849 51.6719 16.138 51.8464 16.3828 52.0859C16.6276 52.3255 16.8177 52.6328 16.9531 53.0078C17.0885 53.3828 17.1562 53.8359 17.1562 54.3672V60H15.7109V54.4375C15.7109 53.9948 15.6354 53.6406 15.4844 53.375C15.3385 53.1094 15.1302 52.9167 14.8594 52.7969C14.5885 52.6719 14.2708 52.6094 13.9062 52.6094C13.4792 52.6094 13.1224 52.6849 12.8359 52.8359C12.5495 52.987 12.3203 53.1953 12.1484 53.4609C11.9766 53.7266 11.8516 54.0312 11.7734 54.375C11.7005 54.7135 11.6641 55.0729 11.6641 55.4531ZM17.1406 54.6562L16.1719 54.9531C16.1771 54.4896 16.2526 54.0443 16.3984 53.6172C16.5495 53.1901 16.7656 52.8099 17.0469 52.4766C17.3333 52.1432 17.6849 51.8802 18.1016 51.6875C18.5182 51.4896 18.9948 51.3906 19.5312 51.3906C19.9844 51.3906 20.3854 51.4505 20.7344 51.5703C21.0885 51.6901 21.3854 51.875 21.625 52.125C21.8698 52.3698 22.0547 52.6849 22.1797 53.0703C22.3047 53.4557 22.3672 53.9141 22.3672 54.4453V60H20.9141V54.4297C20.9141 53.9557 20.8385 53.5885 20.6875 53.3281C20.5417 53.0625 20.3333 52.8776 20.0625 52.7734C19.7969 52.6641 19.4792 52.6094 19.1094 52.6094C18.7917 52.6094 18.5104 52.6641 18.2656 52.7734C18.0208 52.8828 17.8151 53.0339 17.6484 53.2266C17.4818 53.4141 17.3542 53.6302 17.2656 53.875C17.1823 54.1198 17.1406 54.3802 17.1406 54.6562ZM26 53.1719V63.25H24.5469V51.5469H25.875L26 53.1719ZM31.6953 55.7031V55.8672C31.6953 56.4818 31.6224 57.0521 31.4766 57.5781C31.3307 58.099 31.1172 58.5521 30.8359 58.9375C30.5599 59.3229 30.2188 59.6224 29.8125 59.8359C29.4062 60.0495 28.9401 60.1562 28.4141 60.1562C27.8776 60.1562 27.4036 60.0677 26.9922 59.8906C26.5807 59.7135 26.2318 59.4557 25.9453 59.1172C25.6589 58.7786 25.4297 58.3724 25.2578 57.8984C25.0911 57.4245 24.9766 56.8906 24.9141 56.2969V55.4219C24.9766 54.7969 25.0938 54.237 25.2656 53.7422C25.4375 53.2474 25.6641 52.8255 25.9453 52.4766C26.2318 52.1224 26.5781 51.8542 26.9844 51.6719C27.3906 51.4844 27.8594 51.3906 28.3906 51.3906C28.9219 51.3906 29.3932 51.4948 29.8047 51.7031C30.2161 51.9062 30.5625 52.1979 30.8438 52.5781C31.125 52.9583 31.3359 53.4141 31.4766 53.9453C31.6224 54.4714 31.6953 55.0573 31.6953 55.7031ZM30.2422 55.8672V55.7031C30.2422 55.2812 30.1979 54.8854 30.1094 54.5156C30.0208 54.1406 29.8828 53.8125 29.6953 53.5312C29.513 53.2448 29.2786 53.0208 28.9922 52.8594C28.7057 52.6927 28.3646 52.6094 27.9688 52.6094C27.6042 52.6094 27.2865 52.6719 27.0156 52.7969C26.75 52.9219 26.5234 53.0911 26.3359 53.3047C26.1484 53.513 25.9948 53.7526 25.875 54.0234C25.7604 54.2891 25.6745 54.5651 25.6172 54.8516V56.875C25.7214 57.2396 25.8672 57.5833 26.0547 57.9062C26.2422 58.224 26.4922 58.4818 26.8047 58.6797C27.1172 58.8724 27.5104 58.9688 27.9844 58.9688C28.375 58.9688 28.7109 58.888 28.9922 58.7266C29.2786 58.5599 29.513 58.3333 29.6953 58.0469C29.8828 57.7604 30.0208 57.4323 30.1094 57.0625C30.1979 56.6875 30.2422 56.2891 30.2422 55.8672ZM35.1094 48V60H33.6562V48H35.1094ZM40.9375 60.1562C40.349 60.1562 39.8151 60.0573 39.3359 59.8594C38.862 59.6562 38.4531 59.3724 38.1094 59.0078C37.7708 58.6432 37.5104 58.2109 37.3281 57.7109C37.1458 57.2109 37.0547 56.6641 37.0547 56.0703V55.7422C37.0547 55.0547 37.1562 54.4427 37.3594 53.9062C37.5625 53.3646 37.8385 52.9062 38.1875 52.5312C38.5365 52.1562 38.9323 51.8724 39.375 51.6797C39.8177 51.487 40.276 51.3906 40.75 51.3906C41.3542 51.3906 41.875 51.4948 42.3125 51.7031C42.7552 51.9115 43.1172 52.2031 43.3984 52.5781C43.6797 52.9479 43.888 53.3854 44.0234 53.8906C44.1589 54.3906 44.2266 54.9375 44.2266 55.5312V56.1797H37.9141V55H42.7812V54.8906C42.7604 54.5156 42.6823 54.151 42.5469 53.7969C42.4167 53.4427 42.2083 53.151 41.9219 52.9219C41.6354 52.6927 41.2448 52.5781 40.75 52.5781C40.4219 52.5781 40.1198 52.6484 39.8438 52.7891C39.5677 52.9245 39.3307 53.1276 39.1328 53.3984C38.9349 53.6693 38.7812 54 38.6719 54.3906C38.5625 54.7812 38.5078 55.2318 38.5078 55.7422V56.0703C38.5078 56.4714 38.5625 56.849 38.6719 57.2031C38.7865 57.5521 38.9505 57.8594 39.1641 58.125C39.3828 58.3906 39.6458 58.599 39.9531 58.75C40.2656 58.901 40.6198 58.9766 41.0156 58.9766C41.526 58.9766 41.9583 58.8724 42.3125 58.6641C42.6667 58.4557 42.9766 58.1771 43.2422 57.8281L44.1172 58.5234C43.9349 58.7995 43.7031 59.0625 43.4219 59.3125C43.1406 59.5625 42.7943 59.7656 42.3828 59.9219C41.9766 60.0781 41.4948 60.1562 40.9375 60.1562ZM50.8984 58.5547V54.2031C50.8984 53.8698 50.8307 53.5807 50.6953 53.3359C50.5651 53.0859 50.3672 52.8932 50.1016 52.7578C49.8359 52.6224 49.5078 52.5547 49.1172 52.5547C48.7526 52.5547 48.4323 52.6172 48.1562 52.7422C47.8854 52.8672 47.6719 53.0312 47.5156 53.2344C47.3646 53.4375 47.2891 53.6562 47.2891 53.8906H45.8438C45.8438 53.5885 45.9219 53.2891 46.0781 52.9922C46.2344 52.6953 46.4583 52.4271 46.75 52.1875C47.0469 51.9427 47.401 51.75 47.8125 51.6094C48.2292 51.4635 48.6927 51.3906 49.2031 51.3906C49.8177 51.3906 50.3594 51.4948 50.8281 51.7031C51.3021 51.9115 51.6719 52.2266 51.9375 52.6484C52.2083 53.0651 52.3438 53.5885 52.3438 54.2188V58.1562C52.3438 58.4375 52.3672 58.737 52.4141 59.0547C52.4661 59.3724 52.5417 59.6458 52.6406 59.875V60H51.1328C51.0599 59.8333 51.0026 59.612 50.9609 59.3359C50.9193 59.0547 50.8984 58.7943 50.8984 58.5547ZM51.1484 54.875L51.1641 55.8906H49.7031C49.2917 55.8906 48.9245 55.9245 48.6016 55.9922C48.2786 56.0547 48.0078 56.151 47.7891 56.2812C47.5703 56.4115 47.4036 56.5755 47.2891 56.7734C47.1745 56.9661 47.1172 57.1927 47.1172 57.4531C47.1172 57.7188 47.1771 57.9609 47.2969 58.1797C47.4167 58.3984 47.5964 58.5729 47.8359 58.7031C48.0807 58.8281 48.3802 58.8906 48.7344 58.8906C49.1771 58.8906 49.5677 58.7969 49.9062 58.6094C50.2448 58.4219 50.513 58.1927 50.7109 57.9219C50.9141 57.651 51.0234 57.388 51.0391 57.1328L51.6562 57.8281C51.6198 58.0469 51.5208 58.2891 51.3594 58.5547C51.1979 58.8203 50.9818 59.0755 50.7109 59.3203C50.4453 59.5599 50.1276 59.7604 49.7578 59.9219C49.3932 60.0781 48.9818 60.1562 48.5234 60.1562C47.9505 60.1562 47.4479 60.0443 47.0156 59.8203C46.5885 59.5964 46.2552 59.2969 46.0156 58.9219C45.7812 58.5417 45.6641 58.1172 45.6641 57.6484C45.6641 57.1953 45.7526 56.7969 45.9297 56.4531C46.1068 56.1042 46.362 55.8151 46.6953 55.5859C47.0286 55.3516 47.4297 55.1745 47.8984 55.0547C48.3672 54.9349 48.8906 54.875 49.4688 54.875H51.1484ZM59.9453 58.3594V48H61.3984V60H60.0703L59.9453 58.3594ZM54.2578 55.8672V55.7031C54.2578 55.0573 54.3359 54.4714 54.4922 53.9453C54.6536 53.4141 54.8802 52.9583 55.1719 52.5781C55.4688 52.1979 55.8203 51.9062 56.2266 51.7031C56.638 51.4948 57.0964 51.3906 57.6016 51.3906C58.1328 51.3906 58.5964 51.4844 58.9922 51.6719C59.3932 51.8542 59.7318 52.1224 60.0078 52.4766C60.2891 52.8255 60.5104 53.2474 60.6719 53.7422C60.8333 54.237 60.9453 54.7969 61.0078 55.4219V56.1406C60.9505 56.7604 60.8385 57.3177 60.6719 57.8125C60.5104 58.3073 60.2891 58.7292 60.0078 59.0781C59.7318 59.4271 59.3932 59.6953 58.9922 59.8828C58.5911 60.0651 58.1224 60.1562 57.5859 60.1562C57.0911 60.1562 56.638 60.0495 56.2266 59.8359C55.8203 59.6224 55.4688 59.3229 55.1719 58.9375C54.8802 58.5521 54.6536 58.099 54.4922 57.5781C54.3359 57.0521 54.2578 56.4818 54.2578 55.8672ZM55.7109 55.7031V55.8672C55.7109 56.2891 55.7526 56.6849 55.8359 57.0547C55.9245 57.4245 56.0599 57.75 56.2422 58.0312C56.4245 58.3125 56.6562 58.5339 56.9375 58.6953C57.2188 58.8516 57.5547 58.9297 57.9453 58.9297C58.4245 58.9297 58.8177 58.8281 59.125 58.625C59.4375 58.4219 59.6875 58.1536 59.875 57.8203C60.0625 57.487 60.2083 57.125 60.3125 56.7344V54.8516C60.25 54.5651 60.1589 54.2891 60.0391 54.0234C59.9245 53.7526 59.7734 53.513 59.5859 53.3047C59.4036 53.0911 59.1771 52.9219 58.9062 52.7969C58.6406 52.6719 58.3255 52.6094 57.9609 52.6094C57.5651 52.6094 57.224 52.6927 56.9375 52.8594C56.6562 53.0208 56.4245 53.2448 56.2422 53.5312C56.0599 53.8125 55.9245 54.1406 55.8359 54.5156C55.7526 54.8854 55.7109 55.2812 55.7109 55.7031ZM63.2656 55.8672V55.6875C63.2656 55.0781 63.3542 54.513 63.5312 53.9922C63.7083 53.4661 63.9635 53.0104 64.2969 52.625C64.6302 52.2344 65.0339 51.9323 65.5078 51.7188C65.9818 51.5 66.513 51.3906 67.1016 51.3906C67.6953 51.3906 68.2292 51.5 68.7031 51.7188C69.1823 51.9323 69.5885 52.2344 69.9219 52.625C70.2604 53.0104 70.5182 53.4661 70.6953 53.9922C70.8724 54.513 70.9609 55.0781 70.9609 55.6875V55.8672C70.9609 56.4766 70.8724 57.0417 70.6953 57.5625C70.5182 58.0833 70.2604 58.5391 69.9219 58.9297C69.5885 59.3151 69.1849 59.6172 68.7109 59.8359C68.2422 60.0495 67.7109 60.1562 67.1172 60.1562C66.5234 60.1562 65.9896 60.0495 65.5156 59.8359C65.0417 59.6172 64.6354 59.3151 64.2969 58.9297C63.9635 58.5391 63.7083 58.0833 63.5312 57.5625C63.3542 57.0417 63.2656 56.4766 63.2656 55.8672ZM64.7109 55.6875V55.8672C64.7109 56.2891 64.7604 56.6875 64.8594 57.0625C64.9583 57.4323 65.1068 57.7604 65.3047 58.0469C65.5078 58.3333 65.7604 58.5599 66.0625 58.7266C66.3646 58.888 66.7161 58.9688 67.1172 58.9688C67.513 58.9688 67.8594 58.888 68.1562 58.7266C68.4583 58.5599 68.7083 58.3333 68.9062 58.0469C69.1042 57.7604 69.2526 57.4323 69.3516 57.0625C69.4557 56.6875 69.5078 56.2891 69.5078 55.8672V55.6875C69.5078 55.2708 69.4557 54.8776 69.3516 54.5078C69.2526 54.1328 69.1016 53.8021 68.8984 53.5156C68.7005 53.224 68.4505 52.9948 68.1484 52.8281C67.8516 52.6615 67.5026 52.5781 67.1016 52.5781C66.7057 52.5781 66.3568 52.6615 66.0547 52.8281C65.7578 52.9948 65.5078 53.224 65.3047 53.5156C65.1068 53.8021 64.9583 54.1328 64.8594 54.5078C64.7604 54.8776 64.7109 55.2708 64.7109 55.6875Z" fill="white"/>
<path d="M50.25 7.91667C50.25 10.54 43.8701 12.6667 36 12.6667C28.1299 12.6667 21.75 10.54 21.75 7.91667M50.25 7.91667C50.25 5.29332 43.8701 3.16667 36 3.16667C28.1299 3.16667 21.75 5.29332 21.75 7.91667M50.25 7.91667V30.0833C50.25 32.7117 43.9167 34.8333 36 34.8333C28.0833 34.8333 21.75 32.7117 21.75 30.0833V7.91667M50.25 19C50.25 21.6283 43.9167 23.75 36 23.75C28.0833 23.75 21.75 21.6283 21.75 19" stroke="white" stroke-width="2" stroke-linecap="round" stroke-linejoin="round"/>
</svg>
