<svg width="84" height="80" viewBox="0 0 84 80" fill="none" xmlns="http://www.w3.org/2000/svg">
<path d="M56.8749 12.7361L41.9999 20.9999M41.9999 20.9999L27.1249 12.7361M41.9999 20.9999L42 37.625M57.75 28.1025V13.8975C57.75 13.2979 57.75 12.9981 57.6617 12.7307C57.5835 12.4941 57.4557 12.277 57.2869 12.0938C57.0961 11.8867 56.834 11.7411 56.3098 11.4499L43.3598 4.25544C42.8635 3.97971 42.6153 3.84185 42.3525 3.7878C42.12 3.73996 41.8801 3.73996 41.6475 3.7878C41.3847 3.84185 41.1365 3.97971 40.6402 4.25544L27.6902 11.4499C27.166 11.7411 26.9039 11.8867 26.7131 12.0938C26.5443 12.277 26.4165 12.4941 26.3383 12.7307C26.25 12.9981 26.25 13.2979 26.25 13.8975V28.1025C26.25 28.7021 26.25 29.0019 26.3383 29.2693C26.4165 29.5059 26.5443 29.723 26.7131 29.9062C26.9039 30.1133 27.166 30.2589 27.6902 30.5501L40.6402 37.7445C41.1365 38.0203 41.3847 38.1581 41.6475 38.2122C41.8801 38.26 42.12 38.26 42.3525 38.2122C42.6153 38.1581 42.8635 38.0203 43.3598 37.7445L56.3098 30.5501C56.834 30.2589 57.0961 30.1133 57.2869 29.9062C57.4557 29.723 57.5835 29.5059 57.6617 29.2693C57.75 29.0019 57.75 28.7021 57.75 28.1025Z" stroke="white" stroke-width="2" stroke-linecap="round" stroke-linejoin="round"/>
<path d="M49.875 16.625L34.125 7.875" stroke="white" stroke-width="2" stroke-linecap="round" stroke-linejoin="round"/>
<path d="M2.96875 52.625V64H1.46094V52.625H2.96875ZM7.73438 57.7422V58.9766H2.64062V57.7422H7.73438ZM8.50781 52.625V53.8594H2.64062V52.625H8.50781ZM15.0859 62.0469V55.5469H16.5391V64H15.1562L15.0859 62.0469ZM15.3594 60.2656L15.9609 60.25C15.9609 60.8125 15.901 61.3333 15.7812 61.8125C15.6667 62.2865 15.4792 62.6979 15.2188 63.0469C14.9583 63.3958 14.6172 63.6693 14.1953 63.8672C13.7734 64.0599 13.2604 64.1562 12.6562 64.1562C12.2448 64.1562 11.8672 64.0964 11.5234 63.9766C11.1849 63.8568 10.8932 63.6719 10.6484 63.4219C10.4036 63.1719 10.2135 62.8464 10.0781 62.4453C9.94792 62.0443 9.88281 61.5625 9.88281 61V55.5469H11.3281V61.0156C11.3281 61.3958 11.3698 61.7109 11.4531 61.9609C11.5417 62.2057 11.6589 62.401 11.8047 62.5469C11.9557 62.6875 12.1224 62.7865 12.3047 62.8438C12.4922 62.901 12.6849 62.9297 12.8828 62.9297C13.4974 62.9297 13.9844 62.8125 14.3438 62.5781C14.7031 62.3385 14.9609 62.0182 15.1172 61.6172C15.2786 61.2109 15.3594 60.7604 15.3594 60.2656ZM20.1875 57.3516V64H18.7422V55.5469H20.1094L20.1875 57.3516ZM19.8438 59.4531L19.2422 59.4297C19.2474 58.8516 19.3333 58.3177 19.5 57.8281C19.6667 57.3333 19.901 56.9036 20.2031 56.5391C20.5052 56.1745 20.8646 55.8932 21.2812 55.6953C21.7031 55.4922 22.1693 55.3906 22.6797 55.3906C23.0964 55.3906 23.4714 55.4479 23.8047 55.5625C24.138 55.6719 24.4219 55.849 24.6562 56.0938C24.8958 56.3385 25.0781 56.6562 25.2031 57.0469C25.3281 57.4323 25.3906 57.9036 25.3906 58.4609V64H23.9375V58.4453C23.9375 58.0026 23.8724 57.6484 23.7422 57.3828C23.612 57.112 23.4219 56.9167 23.1719 56.7969C22.9219 56.6719 22.6146 56.6094 22.25 56.6094C21.8906 56.6094 21.5625 56.6849 21.2656 56.8359C20.974 56.987 20.7214 57.1953 20.5078 57.4609C20.2995 57.7266 20.1354 58.0312 20.0156 58.375C19.901 58.7135 19.8438 59.0729 19.8438 59.4531ZM30.9688 62.9688C31.3125 62.9688 31.6302 62.8984 31.9219 62.7578C32.2135 62.6172 32.4531 62.4245 32.6406 62.1797C32.8281 61.9297 32.9349 61.6458 32.9609 61.3281H34.3359C34.3099 61.8281 34.1406 62.2943 33.8281 62.7266C33.5208 63.1536 33.1172 63.5 32.6172 63.7656C32.1172 64.026 31.5677 64.1562 30.9688 64.1562C30.3333 64.1562 29.7786 64.0443 29.3047 63.8203C28.8359 63.5964 28.4453 63.2891 28.1328 62.8984C27.8255 62.5078 27.5938 62.0599 27.4375 61.5547C27.2865 61.0443 27.2109 60.5052 27.2109 59.9375V59.6094C27.2109 59.0417 27.2865 58.5052 27.4375 58C27.5938 57.4896 27.8255 57.0391 28.1328 56.6484C28.4453 56.2578 28.8359 55.9505 29.3047 55.7266C29.7786 55.5026 30.3333 55.3906 30.9688 55.3906C31.6302 55.3906 32.2083 55.526 32.7031 55.7969C33.1979 56.0625 33.5859 56.4271 33.8672 56.8906C34.1536 57.349 34.3099 57.8698 34.3359 58.4531H32.9609C32.9349 58.1042 32.8359 57.7891 32.6641 57.5078C32.4974 57.2266 32.2682 57.0026 31.9766 56.8359C31.6901 56.6641 31.3542 56.5781 30.9688 56.5781C30.526 56.5781 30.1536 56.6667 29.8516 56.8438C29.5547 57.0156 29.3177 57.25 29.1406 57.5469C28.9688 57.8385 28.8438 58.1641 28.7656 58.5234C28.6927 58.8776 28.6562 59.2396 28.6562 59.6094V59.9375C28.6562 60.3073 28.6927 60.6719 28.7656 61.0312C28.8385 61.3906 28.9609 61.7161 29.1328 62.0078C29.3099 62.2995 29.5469 62.5339 29.8438 62.7109C30.1458 62.8828 30.5208 62.9688 30.9688 62.9688ZM37.5312 55.5469V64H36.0781V55.5469H37.5312ZM35.9688 53.3047C35.9688 53.0703 36.0391 52.8724 36.1797 52.7109C36.3255 52.5495 36.5391 52.4688 36.8203 52.4688C37.0964 52.4688 37.3073 52.5495 37.4531 52.7109C37.6042 52.8724 37.6797 53.0703 37.6797 53.3047C37.6797 53.5286 37.6042 53.7214 37.4531 53.8828C37.3073 54.0391 37.0964 54.1172 36.8203 54.1172C36.5391 54.1172 36.3255 54.0391 36.1797 53.8828C36.0391 53.7214 35.9688 53.5286 35.9688 53.3047ZM39.4688 59.8672V59.6875C39.4688 59.0781 39.5573 58.513 39.7344 57.9922C39.9115 57.4661 40.1667 57.0104 40.5 56.625C40.8333 56.2344 41.237 55.9323 41.7109 55.7188C42.1849 55.5 42.7161 55.3906 43.3047 55.3906C43.8984 55.3906 44.4323 55.5 44.9062 55.7188C45.3854 55.9323 45.7917 56.2344 46.125 56.625C46.4635 57.0104 46.7214 57.4661 46.8984 57.9922C47.0755 58.513 47.1641 59.0781 47.1641 59.6875V59.8672C47.1641 60.4766 47.0755 61.0417 46.8984 61.5625C46.7214 62.0833 46.4635 62.5391 46.125 62.9297C45.7917 63.3151 45.388 63.6172 44.9141 63.8359C44.4453 64.0495 43.9141 64.1562 43.3203 64.1562C42.7266 64.1562 42.1927 64.0495 41.7188 63.8359C41.2448 63.6172 40.8385 63.3151 40.5 62.9297C40.1667 62.5391 39.9115 62.0833 39.7344 61.5625C39.5573 61.0417 39.4688 60.4766 39.4688 59.8672ZM40.9141 59.6875V59.8672C40.9141 60.2891 40.9635 60.6875 41.0625 61.0625C41.1615 61.4323 41.3099 61.7604 41.5078 62.0469C41.7109 62.3333 41.9635 62.5599 42.2656 62.7266C42.5677 62.888 42.9193 62.9688 43.3203 62.9688C43.7161 62.9688 44.0625 62.888 44.3594 62.7266C44.6615 62.5599 44.9115 62.3333 45.1094 62.0469C45.3073 61.7604 45.4557 61.4323 45.5547 61.0625C45.6589 60.6875 45.7109 60.2891 45.7109 59.8672V59.6875C45.7109 59.2708 45.6589 58.8776 45.5547 58.5078C45.4557 58.1328 45.3047 57.8021 45.1016 57.5156C44.9036 57.224 44.6536 56.9948 44.3516 56.8281C44.0547 56.6615 43.7057 56.5781 43.3047 56.5781C42.9089 56.5781 42.5599 56.6615 42.2578 56.8281C41.9609 56.9948 41.7109 57.224 41.5078 57.5156C41.3099 57.8021 41.1615 58.1328 41.0625 58.5078C40.9635 58.8776 40.9141 59.2708 40.9141 59.6875ZM50.4219 57.3516V64H48.9766V55.5469H50.3438L50.4219 57.3516ZM50.0781 59.4531L49.4766 59.4297C49.4818 58.8516 49.5677 58.3177 49.7344 57.8281C49.901 57.3333 50.1354 56.9036 50.4375 56.5391C50.7396 56.1745 51.099 55.8932 51.5156 55.6953C51.9375 55.4922 52.4036 55.3906 52.9141 55.3906C53.3307 55.3906 53.7057 55.4479 54.0391 55.5625C54.3724 55.6719 54.6562 55.849 54.8906 56.0938C55.1302 56.3385 55.3125 56.6562 55.4375 57.0469C55.5625 57.4323 55.625 57.9036 55.625 58.4609V64H54.1719V58.4453C54.1719 58.0026 54.1068 57.6484 53.9766 57.3828C53.8464 57.112 53.6562 56.9167 53.4062 56.7969C53.1562 56.6719 52.849 56.6094 52.4844 56.6094C52.125 56.6094 51.7969 56.6849 51.5 56.8359C51.2083 56.987 50.9557 57.1953 50.7422 57.4609C50.5339 57.7266 50.3698 58.0312 50.25 58.375C50.1354 58.7135 50.0781 59.0729 50.0781 59.4531ZM62.8047 62.5547V58.2031C62.8047 57.8698 62.737 57.5807 62.6016 57.3359C62.4714 57.0859 62.2734 56.8932 62.0078 56.7578C61.7422 56.6224 61.4141 56.5547 61.0234 56.5547C60.6589 56.5547 60.3385 56.6172 60.0625 56.7422C59.7917 56.8672 59.5781 57.0312 59.4219 57.2344C59.2708 57.4375 59.1953 57.6562 59.1953 57.8906H57.75C57.75 57.5885 57.8281 57.2891 57.9844 56.9922C58.1406 56.6953 58.3646 56.4271 58.6562 56.1875C58.9531 55.9427 59.3073 55.75 59.7188 55.6094C60.1354 55.4635 60.599 55.3906 61.1094 55.3906C61.724 55.3906 62.2656 55.4948 62.7344 55.7031C63.2083 55.9115 63.5781 56.2266 63.8438 56.6484C64.1146 57.0651 64.25 57.5885 64.25 58.2188V62.1562C64.25 62.4375 64.2734 62.737 64.3203 63.0547C64.3724 63.3724 64.4479 63.6458 64.5469 63.875V64H63.0391C62.9661 63.8333 62.9089 63.612 62.8672 63.3359C62.8255 63.0547 62.8047 62.7943 62.8047 62.5547ZM63.0547 58.875L63.0703 59.8906H61.6094C61.1979 59.8906 60.8307 59.9245 60.5078 59.9922C60.1849 60.0547 59.9141 60.151 59.6953 60.2812C59.4766 60.4115 59.3099 60.5755 59.1953 60.7734C59.0807 60.9661 59.0234 61.1927 59.0234 61.4531C59.0234 61.7188 59.0833 61.9609 59.2031 62.1797C59.3229 62.3984 59.5026 62.5729 59.7422 62.7031C59.987 62.8281 60.2865 62.8906 60.6406 62.8906C61.0833 62.8906 61.474 62.7969 61.8125 62.6094C62.151 62.4219 62.4193 62.1927 62.6172 61.9219C62.8203 61.651 62.9297 61.388 62.9453 61.1328L63.5625 61.8281C63.526 62.0469 63.4271 62.2891 63.2656 62.5547C63.1042 62.8203 62.888 63.0755 62.6172 63.3203C62.3516 63.5599 62.0339 63.7604 61.6641 63.9219C61.2995 64.0781 60.888 64.1562 60.4297 64.1562C59.8568 64.1562 59.3542 64.0443 58.9219 63.8203C58.4948 63.5964 58.1615 63.2969 57.9219 62.9219C57.6875 62.5417 57.5703 62.1172 57.5703 61.6484C57.5703 61.1953 57.6589 60.7969 57.8359 60.4531C58.013 60.1042 58.2682 59.8151 58.6016 59.5859C58.9349 59.3516 59.3359 59.1745 59.8047 59.0547C60.2734 58.9349 60.7969 58.875 61.375 58.875H63.0547ZM67.9688 56.875V64H66.5234V55.5469H67.9297L67.9688 56.875ZM70.6094 55.5L70.6016 56.8438C70.4818 56.8177 70.3672 56.8021 70.2578 56.7969C70.1536 56.7865 70.0339 56.7812 69.8984 56.7812C69.5651 56.7812 69.2708 56.8333 69.0156 56.9375C68.7604 57.0417 68.5443 57.1875 68.3672 57.375C68.1901 57.5625 68.0495 57.7865 67.9453 58.0469C67.8464 58.3021 67.7812 58.5833 67.75 58.8906L67.3438 59.125C67.3438 58.6146 67.3932 58.1354 67.4922 57.6875C67.5964 57.2396 67.7552 56.8438 67.9688 56.5C68.1823 56.151 68.4531 55.8802 68.7812 55.6875C69.1146 55.4896 69.5104 55.3906 69.9688 55.3906C70.0729 55.3906 70.1927 55.4036 70.3281 55.4297C70.4635 55.4505 70.5573 55.474 70.6094 55.5ZM73.5156 55.5469V64H72.0625V55.5469H73.5156ZM71.9531 53.3047C71.9531 53.0703 72.0234 52.8724 72.1641 52.7109C72.3099 52.5495 72.5234 52.4688 72.8047 52.4688C73.0807 52.4688 73.2917 52.5495 73.4375 52.7109C73.5885 52.8724 73.6641 53.0703 73.6641 53.3047C73.6641 53.5286 73.5885 53.7214 73.4375 53.8828C73.2917 54.0391 73.0807 54.1172 72.8047 54.1172C72.5234 54.1172 72.3099 54.0391 72.1641 53.8828C72.0234 53.7214 71.9531 53.5286 71.9531 53.3047ZM75.4531 59.8672V59.6875C75.4531 59.0781 75.5417 58.513 75.7188 57.9922C75.8958 57.4661 76.151 57.0104 76.4844 56.625C76.8177 56.2344 77.2214 55.9323 77.6953 55.7188C78.1693 55.5 78.7005 55.3906 79.2891 55.3906C79.8828 55.3906 80.4167 55.5 80.8906 55.7188C81.3698 55.9323 81.776 56.2344 82.1094 56.625C82.4479 57.0104 82.7057 57.4661 82.8828 57.9922C83.0599 58.513 83.1484 59.0781 83.1484 59.6875V59.8672C83.1484 60.4766 83.0599 61.0417 82.8828 61.5625C82.7057 62.0833 82.4479 62.5391 82.1094 62.9297C81.776 63.3151 81.3724 63.6172 80.8984 63.8359C80.4297 64.0495 79.8984 64.1562 79.3047 64.1562C78.7109 64.1562 78.1771 64.0495 77.7031 63.8359C77.2292 63.6172 76.8229 63.3151 76.4844 62.9297C76.151 62.5391 75.8958 62.0833 75.7188 61.5625C75.5417 61.0417 75.4531 60.4766 75.4531 59.8672ZM76.8984 59.6875V59.8672C76.8984 60.2891 76.9479 60.6875 77.0469 61.0625C77.1458 61.4323 77.2943 61.7604 77.4922 62.0469C77.6953 62.3333 77.9479 62.5599 78.25 62.7266C78.5521 62.888 78.9036 62.9688 79.3047 62.9688C79.7005 62.9688 80.0469 62.888 80.3438 62.7266C80.6458 62.5599 80.8958 62.3333 81.0938 62.0469C81.2917 61.7604 81.4401 61.4323 81.5391 61.0625C81.6432 60.6875 81.6953 60.2891 81.6953 59.8672V59.6875C81.6953 59.2708 81.6432 58.8776 81.5391 58.5078C81.4401 58.1328 81.2891 57.8021 81.0859 57.5156C80.888 57.224 80.638 56.9948 80.3359 56.8281C80.0391 56.6615 79.6901 56.5781 79.2891 56.5781C78.8932 56.5781 78.5443 56.6615 78.2422 56.8281C77.9453 56.9948 77.6953 57.224 77.4922 57.5156C77.2943 57.8021 77.1458 58.1328 77.0469 58.5078C76.9479 58.8776 76.8984 59.2708 76.8984 59.6875ZM17.5703 76.5547V72.2031C17.5703 71.8698 17.5026 71.5807 17.3672 71.3359C17.237 71.0859 17.0391 70.8932 16.7734 70.7578C16.5078 70.6224 16.1797 70.5547 15.7891 70.5547C15.4245 70.5547 15.1042 70.6172 14.8281 70.7422C14.5573 70.8672 14.3438 71.0312 14.1875 71.2344C14.0365 71.4375 13.9609 71.6562 13.9609 71.8906H12.5156C12.5156 71.5885 12.5938 71.2891 12.75 70.9922C12.9062 70.6953 13.1302 70.4271 13.4219 70.1875C13.7188 69.9427 14.0729 69.75 14.4844 69.6094C14.901 69.4635 15.3646 69.3906 15.875 69.3906C16.4896 69.3906 17.0312 69.4948 17.5 69.7031C17.974 69.9115 18.3438 70.2266 18.6094 70.6484C18.8802 71.0651 19.0156 71.5885 19.0156 72.2188V76.1562C19.0156 76.4375 19.0391 76.737 19.0859 77.0547C19.138 77.3724 19.2135 77.6458 19.3125 77.875V78H17.8047C17.7318 77.8333 17.6745 77.612 17.6328 77.3359C17.5911 77.0547 17.5703 76.7943 17.5703 76.5547ZM17.8203 72.875L17.8359 73.8906H16.375C15.9635 73.8906 15.5964 73.9245 15.2734 73.9922C14.9505 74.0547 14.6797 74.151 14.4609 74.2812C14.2422 74.4115 14.0755 74.5755 13.9609 74.7734C13.8464 74.9661 13.7891 75.1927 13.7891 75.4531C13.7891 75.7188 13.849 75.9609 13.9688 76.1797C14.0885 76.3984 14.2682 76.5729 14.5078 76.7031C14.7526 76.8281 15.0521 76.8906 15.4062 76.8906C15.849 76.8906 16.2396 76.7969 16.5781 76.6094C16.9167 76.4219 17.1849 76.1927 17.3828 75.9219C17.5859 75.651 17.6953 75.388 17.7109 75.1328L18.3281 75.8281C18.2917 76.0469 18.1927 76.2891 18.0312 76.5547C17.8698 76.8203 17.6536 77.0755 17.3828 77.3203C17.1172 77.5599 16.7995 77.7604 16.4297 77.9219C16.0651 78.0781 15.6536 78.1562 15.1953 78.1562C14.6224 78.1562 14.1198 78.0443 13.6875 77.8203C13.2604 77.5964 12.9271 77.2969 12.6875 76.9219C12.4531 76.5417 12.3359 76.1172 12.3359 75.6484C12.3359 75.1953 12.4245 74.7969 12.6016 74.4531C12.7786 74.1042 13.0339 73.8151 13.3672 73.5859C13.7005 73.3516 14.1016 73.1745 14.5703 73.0547C15.0391 72.9349 15.5625 72.875 16.1406 72.875H17.8203ZM22.8594 66V78H21.4062V66H22.8594ZM26.6172 71.2266V78H25.1641V69.5469H26.5391L26.6172 71.2266ZM26.3203 73.4531L25.6484 73.4297C25.6536 72.8516 25.7292 72.3177 25.875 71.8281C26.0208 71.3333 26.237 70.9036 26.5234 70.5391C26.8099 70.1745 27.1667 69.8932 27.5938 69.6953C28.0208 69.4922 28.5156 69.3906 29.0781 69.3906C29.474 69.3906 29.8385 69.4479 30.1719 69.5625C30.5052 69.6719 30.7943 69.8464 31.0391 70.0859C31.2839 70.3255 31.474 70.6328 31.6094 71.0078C31.7448 71.3828 31.8125 71.8359 31.8125 72.3672V78H30.3672V72.4375C30.3672 71.9948 30.2917 71.6406 30.1406 71.375C29.9948 71.1094 29.7865 70.9167 29.5156 70.7969C29.2448 70.6719 28.9271 70.6094 28.5625 70.6094C28.1354 70.6094 27.7786 70.6849 27.4922 70.8359C27.2057 70.987 26.9766 71.1953 26.8047 71.4609C26.6328 71.7266 26.5078 72.0312 26.4297 72.375C26.3568 72.7135 26.3203 73.0729 26.3203 73.4531ZM31.7969 72.6562L30.8281 72.9531C30.8333 72.4896 30.9089 72.0443 31.0547 71.6172C31.2057 71.1901 31.4219 70.8099 31.7031 70.4766C31.9896 70.1432 32.3411 69.8802 32.7578 69.6875C33.1745 69.4896 33.651 69.3906 34.1875 69.3906C34.6406 69.3906 35.0417 69.4505 35.3906 69.5703C35.7448 69.6901 36.0417 69.875 36.2812 70.125C36.526 70.3698 36.7109 70.6849 36.8359 71.0703C36.9609 71.4557 37.0234 71.9141 37.0234 72.4453V78H35.5703V72.4297C35.5703 71.9557 35.4948 71.5885 35.3438 71.3281C35.1979 71.0625 34.9896 70.8776 34.7188 70.7734C34.4531 70.6641 34.1354 70.6094 33.7656 70.6094C33.4479 70.6094 33.1667 70.6641 32.9219 70.7734C32.6771 70.8828 32.4714 71.0339 32.3047 71.2266C32.138 71.4141 32.0104 71.6302 31.9219 71.875C31.8385 72.1198 31.7969 72.3802 31.7969 72.6562ZM44.1953 76.5547V72.2031C44.1953 71.8698 44.1276 71.5807 43.9922 71.3359C43.862 71.0859 43.6641 70.8932 43.3984 70.7578C43.1328 70.6224 42.8047 70.5547 42.4141 70.5547C42.0495 70.5547 41.7292 70.6172 41.4531 70.7422C41.1823 70.8672 40.9688 71.0312 40.8125 71.2344C40.6615 71.4375 40.5859 71.6562 40.5859 71.8906H39.1406C39.1406 71.5885 39.2188 71.2891 39.375 70.9922C39.5312 70.6953 39.7552 70.4271 40.0469 70.1875C40.3438 69.9427 40.6979 69.75 41.1094 69.6094C41.526 69.4635 41.9896 69.3906 42.5 69.3906C43.1146 69.3906 43.6562 69.4948 44.125 69.7031C44.599 69.9115 44.9688 70.2266 45.2344 70.6484C45.5052 71.0651 45.6406 71.5885 45.6406 72.2188V76.1562C45.6406 76.4375 45.6641 76.737 45.7109 77.0547C45.763 77.3724 45.8385 77.6458 45.9375 77.875V78H44.4297C44.3568 77.8333 44.2995 77.612 44.2578 77.3359C44.2161 77.0547 44.1953 76.7943 44.1953 76.5547ZM44.4453 72.875L44.4609 73.8906H43C42.5885 73.8906 42.2214 73.9245 41.8984 73.9922C41.5755 74.0547 41.3047 74.151 41.0859 74.2812C40.8672 74.4115 40.7005 74.5755 40.5859 74.7734C40.4714 74.9661 40.4141 75.1927 40.4141 75.4531C40.4141 75.7188 40.474 75.9609 40.5938 76.1797C40.7135 76.3984 40.8932 76.5729 41.1328 76.7031C41.3776 76.8281 41.6771 76.8906 42.0312 76.8906C42.474 76.8906 42.8646 76.7969 43.2031 76.6094C43.5417 76.4219 43.8099 76.1927 44.0078 75.9219C44.2109 75.651 44.3203 75.388 44.3359 75.1328L44.9531 75.8281C44.9167 76.0469 44.8177 76.2891 44.6562 76.5547C44.4948 76.8203 44.2786 77.0755 44.0078 77.3203C43.7422 77.5599 43.4245 77.7604 43.0547 77.9219C42.6901 78.0781 42.2786 78.1562 41.8203 78.1562C41.2474 78.1562 40.7448 78.0443 40.3125 77.8203C39.8854 77.5964 39.5521 77.2969 39.3125 76.9219C39.0781 76.5417 38.9609 76.1172 38.9609 75.6484C38.9609 75.1953 39.0495 74.7969 39.2266 74.4531C39.4036 74.1042 39.6589 73.8151 39.9922 73.5859C40.3255 73.3516 40.7266 73.1745 41.1953 73.0547C41.6641 72.9349 42.1875 72.875 42.7656 72.875H44.4453ZM51.2969 76.9688C51.6406 76.9688 51.9583 76.8984 52.25 76.7578C52.5417 76.6172 52.7812 76.4245 52.9688 76.1797C53.1562 75.9297 53.263 75.6458 53.2891 75.3281H54.6641C54.638 75.8281 54.4688 76.2943 54.1562 76.7266C53.849 77.1536 53.4453 77.5 52.9453 77.7656C52.4453 78.026 51.8958 78.1562 51.2969 78.1562C50.6615 78.1562 50.1068 78.0443 49.6328 77.8203C49.1641 77.5964 48.7734 77.2891 48.4609 76.8984C48.1536 76.5078 47.9219 76.0599 47.7656 75.5547C47.6146 75.0443 47.5391 74.5052 47.5391 73.9375V73.6094C47.5391 73.0417 47.6146 72.5052 47.7656 72C47.9219 71.4896 48.1536 71.0391 48.4609 70.6484C48.7734 70.2578 49.1641 69.9505 49.6328 69.7266C50.1068 69.5026 50.6615 69.3906 51.2969 69.3906C51.9583 69.3906 52.5365 69.526 53.0312 69.7969C53.526 70.0625 53.9141 70.4271 54.1953 70.8906C54.4818 71.349 54.638 71.8698 54.6641 72.4531H53.2891C53.263 72.1042 53.1641 71.7891 52.9922 71.5078C52.8255 71.2266 52.5964 71.0026 52.3047 70.8359C52.0182 70.6641 51.6823 70.5781 51.2969 70.5781C50.8542 70.5781 50.4818 70.6667 50.1797 70.8438C49.8828 71.0156 49.6458 71.25 49.4688 71.5469C49.2969 71.8385 49.1719 72.1641 49.0938 72.5234C49.0208 72.8776 48.9844 73.2396 48.9844 73.6094V73.9375C48.9844 74.3073 49.0208 74.6719 49.0938 75.0312C49.1667 75.3906 49.2891 75.7161 49.4609 76.0078C49.638 76.2995 49.875 76.5339 50.1719 76.7109C50.474 76.8828 50.849 76.9688 51.2969 76.9688ZM59.7969 78.1562C59.2083 78.1562 58.6745 78.0573 58.1953 77.8594C57.7214 77.6562 57.3125 77.3724 56.9688 77.0078C56.6302 76.6432 56.3698 76.2109 56.1875 75.7109C56.0052 75.2109 55.9141 74.6641 55.9141 74.0703V73.7422C55.9141 73.0547 56.0156 72.4427 56.2188 71.9062C56.4219 71.3646 56.6979 70.9062 57.0469 70.5312C57.3958 70.1562 57.7917 69.8724 58.2344 69.6797C58.6771 69.487 59.1354 69.3906 59.6094 69.3906C60.2135 69.3906 60.7344 69.4948 61.1719 69.7031C61.6146 69.9115 61.9766 70.2031 62.2578 70.5781C62.5391 70.9479 62.7474 71.3854 62.8828 71.8906C63.0182 72.3906 63.0859 72.9375 63.0859 73.5312V74.1797H56.7734V73H61.6406V72.8906C61.6198 72.5156 61.5417 72.151 61.4062 71.7969C61.276 71.4427 61.0677 71.151 60.7812 70.9219C60.4948 70.6927 60.1042 70.5781 59.6094 70.5781C59.2812 70.5781 58.9792 70.6484 58.7031 70.7891C58.4271 70.9245 58.1901 71.1276 57.9922 71.3984C57.7943 71.6693 57.6406 72 57.5312 72.3906C57.4219 72.7812 57.3672 73.2318 57.3672 73.7422V74.0703C57.3672 74.4714 57.4219 74.849 57.5312 75.2031C57.6458 75.5521 57.8099 75.8594 58.0234 76.125C58.2422 76.3906 58.5052 76.599 58.8125 76.75C59.125 76.901 59.4792 76.9766 59.875 76.9766C60.3854 76.9766 60.8177 76.8724 61.1719 76.6641C61.526 76.4557 61.8359 76.1771 62.1016 75.8281L62.9766 76.5234C62.7943 76.7995 62.5625 77.0625 62.2812 77.3125C62 77.5625 61.6536 77.7656 61.2422 77.9219C60.8359 78.0781 60.3542 78.1562 59.7969 78.1562ZM58.8047 68.2969L60.3203 66H62.0625L59.9688 68.2969H58.8047ZM66.2188 71.3516V78H64.7734V69.5469H66.1406L66.2188 71.3516ZM65.875 73.4531L65.2734 73.4297C65.2786 72.8516 65.3646 72.3177 65.5312 71.8281C65.6979 71.3333 65.9323 70.9036 66.2344 70.5391C66.5365 70.1745 66.8958 69.8932 67.3125 69.6953C67.7344 69.4922 68.2005 69.3906 68.7109 69.3906C69.1276 69.3906 69.5026 69.4479 69.8359 69.5625C70.1693 69.6719 70.4531 69.849 70.6875 70.0938C70.9271 70.3385 71.1094 70.6562 71.2344 71.0469C71.3594 71.4323 71.4219 71.9036 71.4219 72.4609V78H69.9688V72.4453C69.9688 72.0026 69.9036 71.6484 69.7734 71.3828C69.6432 71.112 69.4531 70.9167 69.2031 70.7969C68.9531 70.6719 68.6458 70.6094 68.2812 70.6094C67.9219 70.6094 67.5938 70.6849 67.2969 70.8359C67.0052 70.987 66.7526 71.1953 66.5391 71.4609C66.3307 71.7266 66.1667 72.0312 66.0469 72.375C65.9323 72.7135 65.875 73.0729 65.875 73.4531Z" fill="white"/>
</svg>
