<svg width="438" height="108" viewBox="0 0 438 108" fill="none" xmlns="http://www.w3.org/2000/svg">
<path d="M45 58.5C46.9326 61.0835 49.3982 63.2213 52.2295 64.7682C55.0609 66.3151 58.1918 67.235 61.41 67.4655C64.6281 67.6959 67.8582 67.2316 70.8811 66.104C73.904 64.9763 76.6491 63.2118 78.93 60.93L92.4301 47.43C96.5286 43.1864 98.7965 37.5029 98.7452 31.6034C98.694 25.704 96.3277 20.0607 92.156 15.889C87.9843 11.7174 82.341 9.35107 76.4416 9.2998C70.5421 9.24854 64.8586 11.5164 60.615 15.615L52.875 23.31M63 49.5C61.0675 46.9164 58.6019 44.7786 55.7706 43.2317C52.9392 41.6848 49.8083 40.7649 46.5901 40.5345C43.372 40.304 40.1419 40.7683 37.119 41.896C34.0961 43.0236 31.351 44.7882 29.07 47.07L15.57 60.57C11.4715 64.8135 9.20361 70.4971 9.25488 76.3965C9.30614 82.2959 11.6724 87.9392 15.8441 92.1109C20.0158 96.2826 25.6591 98.6489 31.5585 98.7001C37.4579 98.7514 43.1415 96.4835 47.385 92.385L55.08 84.69" stroke="white" stroke-width="2" stroke-linecap="round" stroke-linejoin="round"/>
<path d="M165.115 40.4062V66H159.842L149.559 48.8438V66H144.285V40.4062H149.559L159.859 57.5801V40.4062H165.115ZM180.637 61.4473V46.9805H185.699V66H180.936L180.637 61.4473ZM181.199 57.5449L182.693 57.5098C182.693 58.7754 182.547 59.9531 182.254 61.043C181.961 62.1211 181.521 63.0586 180.936 63.8555C180.35 64.6406 179.611 65.2559 178.721 65.7012C177.83 66.1348 176.781 66.3516 175.574 66.3516C174.648 66.3516 173.793 66.2227 173.008 65.9648C172.234 65.6953 171.566 65.2793 171.004 64.7168C170.453 64.1426 170.02 63.4102 169.703 62.5195C169.398 61.6172 169.246 60.5332 169.246 59.2676V46.9805H174.309V59.3027C174.309 59.8652 174.373 60.3398 174.502 60.7266C174.643 61.1133 174.836 61.4297 175.082 61.6758C175.328 61.9219 175.615 62.0977 175.943 62.2031C176.283 62.3086 176.658 62.3613 177.068 62.3613C178.111 62.3613 178.932 62.1504 179.529 61.7285C180.139 61.3066 180.566 60.7324 180.812 60.0059C181.07 59.2676 181.199 58.4473 181.199 57.5449ZM198.32 66.3516C196.844 66.3516 195.52 66.1172 194.348 65.6484C193.176 65.168 192.18 64.5059 191.359 63.6621C190.551 62.8184 189.93 61.8398 189.496 60.7266C189.062 59.6016 188.846 58.4062 188.846 57.1406V56.4375C188.846 54.9961 189.051 53.6777 189.461 52.4824C189.871 51.2871 190.457 50.25 191.219 49.3711C191.992 48.4922 192.93 47.8184 194.031 47.3496C195.133 46.8691 196.375 46.6289 197.758 46.6289C199.105 46.6289 200.301 46.8516 201.344 47.2969C202.387 47.7422 203.26 48.375 203.963 49.1953C204.678 50.0156 205.217 51 205.58 52.1484C205.943 53.2852 206.125 54.5508 206.125 55.9453V58.0547H191.008V54.6797H201.15V54.293C201.15 53.5898 201.021 52.9629 200.764 52.4121C200.518 51.8496 200.143 51.4043 199.639 51.0762C199.135 50.748 198.49 50.584 197.705 50.584C197.037 50.584 196.463 50.7305 195.982 51.0234C195.502 51.3164 195.109 51.7266 194.805 52.2539C194.512 52.7812 194.289 53.4023 194.137 54.1172C193.996 54.8203 193.926 55.5938 193.926 56.4375V57.1406C193.926 57.9023 194.031 58.6055 194.242 59.25C194.465 59.8945 194.775 60.4512 195.174 60.9199C195.584 61.3887 196.076 61.752 196.65 62.0098C197.236 62.2676 197.898 62.3965 198.637 62.3965C199.551 62.3965 200.4 62.2207 201.186 61.8691C201.982 61.5059 202.668 60.9609 203.242 60.2344L205.703 62.9062C205.305 63.4805 204.76 64.0312 204.068 64.5586C203.389 65.0859 202.568 65.5195 201.607 65.8594C200.646 66.1875 199.551 66.3516 198.32 66.3516ZM219.291 60.7441C219.291 60.3809 219.186 60.0527 218.975 59.7598C218.764 59.4668 218.371 59.1973 217.797 58.9512C217.234 58.6934 216.42 58.459 215.354 58.248C214.393 58.0371 213.496 57.7734 212.664 57.457C211.844 57.1289 211.129 56.7363 210.52 56.2793C209.922 55.8223 209.453 55.2832 209.113 54.6621C208.773 54.0293 208.604 53.3086 208.604 52.5C208.604 51.7031 208.773 50.9531 209.113 50.25C209.465 49.5469 209.963 48.9258 210.607 48.3867C211.264 47.8359 212.061 47.4082 212.998 47.1035C213.947 46.7871 215.014 46.6289 216.197 46.6289C217.85 46.6289 219.268 46.8926 220.451 47.4199C221.646 47.9473 222.561 48.6738 223.193 49.5996C223.838 50.5137 224.16 51.5566 224.16 52.7285H219.098C219.098 52.2363 218.992 51.7969 218.781 51.4102C218.582 51.0117 218.266 50.7012 217.832 50.4785C217.41 50.2441 216.859 50.127 216.18 50.127C215.617 50.127 215.131 50.2266 214.721 50.4258C214.311 50.6133 213.994 50.8711 213.771 51.1992C213.561 51.5156 213.455 51.8672 213.455 52.2539C213.455 52.5469 213.514 52.8105 213.631 53.0449C213.76 53.2676 213.965 53.4727 214.246 53.6602C214.527 53.8477 214.891 54.0234 215.336 54.1875C215.793 54.3398 216.355 54.4805 217.023 54.6094C218.395 54.8906 219.619 55.2598 220.697 55.7168C221.775 56.1621 222.631 56.7715 223.264 57.5449C223.896 58.3066 224.213 59.3086 224.213 60.5508C224.213 61.3945 224.025 62.168 223.65 62.8711C223.275 63.5742 222.736 64.1895 222.033 64.7168C221.33 65.2324 220.486 65.6367 219.502 65.9297C218.529 66.2109 217.434 66.3516 216.215 66.3516C214.445 66.3516 212.945 66.0352 211.715 65.4023C210.496 64.7695 209.57 63.9668 208.938 62.9941C208.316 62.0098 208.006 61.002 208.006 59.9707H212.805C212.828 60.6621 213.004 61.2188 213.332 61.6406C213.672 62.0625 214.1 62.3672 214.615 62.5547C215.143 62.7422 215.711 62.8359 216.32 62.8359C216.977 62.8359 217.521 62.748 217.955 62.5723C218.389 62.3848 218.717 62.1387 218.939 61.834C219.174 61.5176 219.291 61.1543 219.291 60.7441ZM236.816 46.9805V50.5664H225.742V46.9805H236.816ZM228.484 42.2871H233.547V60.2695C233.547 60.8203 233.617 61.2422 233.758 61.5352C233.91 61.8281 234.133 62.0332 234.426 62.1504C234.719 62.2559 235.088 62.3086 235.533 62.3086C235.85 62.3086 236.131 62.2969 236.377 62.2734C236.635 62.2383 236.852 62.2031 237.027 62.168L237.045 65.8945C236.611 66.0352 236.143 66.1465 235.639 66.2285C235.135 66.3105 234.578 66.3516 233.969 66.3516C232.855 66.3516 231.883 66.1699 231.051 65.8066C230.23 65.4316 229.598 64.834 229.152 64.0137C228.707 63.1934 228.484 62.1152 228.484 60.7793V42.2871ZM244.762 51.1289V66H239.699V46.9805H244.463L244.762 51.1289ZM250.492 46.8574L250.404 51.5508C250.158 51.5156 249.859 51.4863 249.508 51.4629C249.168 51.4277 248.857 51.4102 248.576 51.4102C247.861 51.4102 247.24 51.5039 246.713 51.6914C246.197 51.8672 245.764 52.1309 245.412 52.4824C245.072 52.834 244.814 53.2617 244.639 53.7656C244.475 54.2695 244.381 54.8438 244.357 55.4883L243.338 55.1719C243.338 53.9414 243.461 52.8105 243.707 51.7793C243.953 50.7363 244.311 49.8281 244.779 49.0547C245.26 48.2812 245.846 47.6836 246.537 47.2617C247.229 46.8398 248.02 46.6289 248.91 46.6289C249.191 46.6289 249.479 46.6523 249.771 46.6992C250.064 46.7344 250.305 46.7871 250.492 46.8574ZM251.547 56.6836V56.3145C251.547 54.9199 251.746 53.6367 252.145 52.4648C252.543 51.2812 253.123 50.2559 253.885 49.3887C254.646 48.5215 255.584 47.8477 256.697 47.3672C257.811 46.875 259.088 46.6289 260.529 46.6289C261.971 46.6289 263.254 46.875 264.379 47.3672C265.504 47.8477 266.447 48.5215 267.209 49.3887C267.982 50.2559 268.568 51.2812 268.967 52.4648C269.365 53.6367 269.564 54.9199 269.564 56.3145V56.6836C269.564 58.0664 269.365 59.3496 268.967 60.5332C268.568 61.7051 267.982 62.7305 267.209 63.6094C266.447 64.4766 265.51 65.1504 264.396 65.6309C263.283 66.1113 262.006 66.3516 260.564 66.3516C259.123 66.3516 257.84 66.1113 256.715 65.6309C255.602 65.1504 254.658 64.4766 253.885 63.6094C253.123 62.7305 252.543 61.7051 252.145 60.5332C251.746 59.3496 251.547 58.0664 251.547 56.6836ZM256.609 56.3145V56.6836C256.609 57.4805 256.68 58.2246 256.82 58.916C256.961 59.6074 257.184 60.2168 257.488 60.7441C257.805 61.2598 258.215 61.6641 258.719 61.957C259.223 62.25 259.838 62.3965 260.564 62.3965C261.268 62.3965 261.871 62.25 262.375 61.957C262.879 61.6641 263.283 61.2598 263.588 60.7441C263.893 60.2168 264.115 59.6074 264.256 58.916C264.408 58.2246 264.484 57.4805 264.484 56.6836V56.3145C264.484 55.541 264.408 54.8145 264.256 54.1348C264.115 53.4434 263.887 52.834 263.57 52.3066C263.266 51.7676 262.861 51.3457 262.357 51.041C261.854 50.7363 261.244 50.584 260.529 50.584C259.814 50.584 259.205 50.7363 258.701 51.041C258.209 51.3457 257.805 51.7676 257.488 52.3066C257.184 52.834 256.961 53.4434 256.82 54.1348C256.68 54.8145 256.609 55.541 256.609 56.3145ZM282.959 60.7441C282.959 60.3809 282.854 60.0527 282.643 59.7598C282.432 59.4668 282.039 59.1973 281.465 58.9512C280.902 58.6934 280.088 58.459 279.021 58.248C278.061 58.0371 277.164 57.7734 276.332 57.457C275.512 57.1289 274.797 56.7363 274.188 56.2793C273.59 55.8223 273.121 55.2832 272.781 54.6621C272.441 54.0293 272.271 53.3086 272.271 52.5C272.271 51.7031 272.441 50.9531 272.781 50.25C273.133 49.5469 273.631 48.9258 274.275 48.3867C274.932 47.8359 275.729 47.4082 276.666 47.1035C277.615 46.7871 278.682 46.6289 279.865 46.6289C281.518 46.6289 282.936 46.8926 284.119 47.4199C285.314 47.9473 286.229 48.6738 286.861 49.5996C287.506 50.5137 287.828 51.5566 287.828 52.7285H282.766C282.766 52.2363 282.66 51.7969 282.449 51.4102C282.25 51.0117 281.934 50.7012 281.5 50.4785C281.078 50.2441 280.527 50.127 279.848 50.127C279.285 50.127 278.799 50.2266 278.389 50.4258C277.979 50.6133 277.662 50.8711 277.439 51.1992C277.229 51.5156 277.123 51.8672 277.123 52.2539C277.123 52.5469 277.182 52.8105 277.299 53.0449C277.428 53.2676 277.633 53.4727 277.914 53.6602C278.195 53.8477 278.559 54.0234 279.004 54.1875C279.461 54.3398 280.023 54.4805 280.691 54.6094C282.062 54.8906 283.287 55.2598 284.365 55.7168C285.443 56.1621 286.299 56.7715 286.932 57.5449C287.564 58.3066 287.881 59.3086 287.881 60.5508C287.881 61.3945 287.693 62.168 287.318 62.8711C286.943 63.5742 286.404 64.1895 285.701 64.7168C284.998 65.2324 284.154 65.6367 283.17 65.9297C282.197 66.2109 281.102 66.3516 279.883 66.3516C278.113 66.3516 276.613 66.0352 275.383 65.4023C274.164 64.7695 273.238 63.9668 272.605 62.9941C271.984 62.0098 271.674 61.002 271.674 59.9707H276.473C276.496 60.6621 276.672 61.2188 277 61.6406C277.34 62.0625 277.768 62.3672 278.283 62.5547C278.811 62.7422 279.379 62.8359 279.988 62.8359C280.645 62.8359 281.189 62.748 281.623 62.5723C282.057 62.3848 282.385 62.1387 282.607 61.834C282.842 61.5176 282.959 61.1543 282.959 60.7441ZM310.416 56.877H303.895V52.7637H310.416C311.424 52.7637 312.244 52.5996 312.877 52.2715C313.51 51.9316 313.973 51.4629 314.266 50.8652C314.559 50.2676 314.705 49.5938 314.705 48.8438C314.705 48.082 314.559 47.373 314.266 46.7168C313.973 46.0605 313.51 45.5332 312.877 45.1348C312.244 44.7363 311.424 44.5371 310.416 44.5371H305.723V66H300.449V40.4062H310.416C312.42 40.4062 314.137 40.7695 315.566 41.4961C317.008 42.2109 318.109 43.2012 318.871 44.4668C319.633 45.7324 320.014 47.1797 320.014 48.8086C320.014 50.4609 319.633 51.8906 318.871 53.0977C318.109 54.3047 317.008 55.2363 315.566 55.8926C314.137 56.5488 312.42 56.877 310.416 56.877ZM333.391 61.7109V53.2383C333.391 52.6289 333.291 52.1074 333.092 51.6738C332.893 51.2285 332.582 50.8828 332.16 50.6367C331.75 50.3906 331.217 50.2676 330.561 50.2676C329.998 50.2676 329.512 50.3672 329.102 50.5664C328.691 50.7539 328.375 51.0293 328.152 51.3926C327.93 51.7441 327.818 52.1602 327.818 52.6406H322.756C322.756 51.832 322.943 51.0645 323.318 50.3379C323.693 49.6113 324.238 48.9727 324.953 48.4219C325.668 47.8594 326.518 47.4199 327.502 47.1035C328.498 46.7871 329.611 46.6289 330.842 46.6289C332.318 46.6289 333.631 46.875 334.779 47.3672C335.928 47.8594 336.83 48.5977 337.486 49.582C338.154 50.5664 338.488 51.7969 338.488 53.2734V61.4121C338.488 62.4551 338.553 63.3105 338.682 63.9785C338.811 64.6348 338.998 65.209 339.244 65.7012V66H334.129C333.883 65.4844 333.695 64.8398 333.566 64.0664C333.449 63.2812 333.391 62.4961 333.391 61.7109ZM334.059 54.416L334.094 57.2812H331.264C330.596 57.2812 330.016 57.3574 329.523 57.5098C329.031 57.6621 328.627 57.8789 328.311 58.1602C327.994 58.4297 327.76 58.7461 327.607 59.1094C327.467 59.4727 327.396 59.8711 327.396 60.3047C327.396 60.7383 327.496 61.1309 327.695 61.4824C327.895 61.8223 328.182 62.0918 328.557 62.291C328.932 62.4785 329.371 62.5723 329.875 62.5723C330.637 62.5723 331.299 62.4199 331.861 62.1152C332.424 61.8105 332.857 61.4355 333.162 60.9902C333.479 60.5449 333.643 60.123 333.654 59.7246L334.99 61.8691C334.803 62.3496 334.545 62.8477 334.217 63.3633C333.9 63.8789 333.496 64.3652 333.004 64.8223C332.512 65.2676 331.92 65.6367 331.229 65.9297C330.537 66.2109 329.717 66.3516 328.768 66.3516C327.561 66.3516 326.465 66.1113 325.48 65.6309C324.508 65.1387 323.734 64.4648 323.16 63.6094C322.598 62.7422 322.316 61.7578 322.316 60.6562C322.316 59.6602 322.504 58.7754 322.879 58.002C323.254 57.2285 323.805 56.5781 324.531 56.0508C325.27 55.5117 326.189 55.1074 327.291 54.8379C328.393 54.5566 329.67 54.416 331.123 54.416H334.059ZM347.453 51.1289V66H342.391V46.9805H347.154L347.453 51.1289ZM353.184 46.8574L353.096 51.5508C352.85 51.5156 352.551 51.4863 352.199 51.4629C351.859 51.4277 351.549 51.4102 351.268 51.4102C350.553 51.4102 349.932 51.5039 349.404 51.6914C348.889 51.8672 348.455 52.1309 348.104 52.4824C347.764 52.834 347.506 53.2617 347.33 53.7656C347.166 54.2695 347.072 54.8438 347.049 55.4883L346.029 55.1719C346.029 53.9414 346.152 52.8105 346.398 51.7793C346.645 50.7363 347.002 49.8281 347.471 49.0547C347.951 48.2812 348.537 47.6836 349.229 47.2617C349.92 46.8398 350.711 46.6289 351.602 46.6289C351.883 46.6289 352.17 46.6523 352.463 46.6992C352.756 46.7344 352.996 46.7871 353.184 46.8574ZM365.77 46.9805V50.5664H354.695V46.9805H365.77ZM357.438 42.2871H362.5V60.2695C362.5 60.8203 362.57 61.2422 362.711 61.5352C362.863 61.8281 363.086 62.0332 363.379 62.1504C363.672 62.2559 364.041 62.3086 364.486 62.3086C364.803 62.3086 365.084 62.2969 365.33 62.2734C365.588 62.2383 365.805 62.2031 365.98 62.168L365.998 65.8945C365.564 66.0352 365.096 66.1465 364.592 66.2285C364.088 66.3105 363.531 66.3516 362.922 66.3516C361.809 66.3516 360.836 66.1699 360.004 65.8066C359.184 65.4316 358.551 64.834 358.105 64.0137C357.66 63.1934 357.438 62.1152 357.438 60.7793V42.2871ZM373.609 51.041V66H368.547V46.9805H373.293L373.609 51.041ZM372.871 55.8223H371.5C371.5 54.416 371.682 53.1504 372.045 52.0254C372.408 50.8887 372.918 49.9219 373.574 49.125C374.23 48.3164 375.01 47.7012 375.912 47.2793C376.826 46.8457 377.846 46.6289 378.971 46.6289C379.861 46.6289 380.676 46.7578 381.414 47.0156C382.152 47.2734 382.785 47.6836 383.312 48.2461C383.852 48.8086 384.262 49.5527 384.543 50.4785C384.836 51.4043 384.982 52.5352 384.982 53.8711V66H379.885V53.8535C379.885 53.0098 379.768 52.3535 379.533 51.8848C379.299 51.416 378.953 51.0879 378.496 50.9004C378.051 50.7012 377.5 50.6016 376.844 50.6016C376.164 50.6016 375.572 50.7363 375.068 51.0059C374.576 51.2754 374.166 51.6504 373.838 52.1309C373.521 52.5996 373.281 53.1504 373.117 53.7832C372.953 54.416 372.871 55.0957 372.871 55.8223ZM397.586 66.3516C396.109 66.3516 394.785 66.1172 393.613 65.6484C392.441 65.168 391.445 64.5059 390.625 63.6621C389.816 62.8184 389.195 61.8398 388.762 60.7266C388.328 59.6016 388.111 58.4062 388.111 57.1406V56.4375C388.111 54.9961 388.316 53.6777 388.727 52.4824C389.137 51.2871 389.723 50.25 390.484 49.3711C391.258 48.4922 392.195 47.8184 393.297 47.3496C394.398 46.8691 395.641 46.6289 397.023 46.6289C398.371 46.6289 399.566 46.8516 400.609 47.2969C401.652 47.7422 402.525 48.375 403.229 49.1953C403.943 50.0156 404.482 51 404.846 52.1484C405.209 53.2852 405.391 54.5508 405.391 55.9453V58.0547H390.273V54.6797H400.416V54.293C400.416 53.5898 400.287 52.9629 400.029 52.4121C399.783 51.8496 399.408 51.4043 398.904 51.0762C398.4 50.748 397.756 50.584 396.971 50.584C396.303 50.584 395.729 50.7305 395.248 51.0234C394.768 51.3164 394.375 51.7266 394.07 52.2539C393.777 52.7812 393.555 53.4023 393.402 54.1172C393.262 54.8203 393.191 55.5938 393.191 56.4375V57.1406C393.191 57.9023 393.297 58.6055 393.508 59.25C393.73 59.8945 394.041 60.4512 394.439 60.9199C394.85 61.3887 395.342 61.752 395.916 62.0098C396.502 62.2676 397.164 62.3965 397.902 62.3965C398.816 62.3965 399.666 62.2207 400.451 61.8691C401.248 61.5059 401.934 60.9609 402.508 60.2344L404.969 62.9062C404.57 63.4805 404.025 64.0312 403.334 64.5586C402.654 65.0859 401.834 65.5195 400.873 65.8594C399.912 66.1875 398.816 66.3516 397.586 66.3516ZM413.336 51.1289V66H408.273V46.9805H413.037L413.336 51.1289ZM419.066 46.8574L418.979 51.5508C418.732 51.5156 418.434 51.4863 418.082 51.4629C417.742 51.4277 417.432 51.4102 417.15 51.4102C416.436 51.4102 415.814 51.5039 415.287 51.6914C414.771 51.8672 414.338 52.1309 413.986 52.4824C413.646 52.834 413.389 53.2617 413.213 53.7656C413.049 54.2695 412.955 54.8438 412.932 55.4883L411.912 55.1719C411.912 53.9414 412.035 52.8105 412.281 51.7793C412.527 50.7363 412.885 49.8281 413.354 49.0547C413.834 48.2812 414.42 47.6836 415.111 47.2617C415.803 46.8398 416.594 46.6289 417.484 46.6289C417.766 46.6289 418.053 46.6523 418.346 46.6992C418.639 46.7344 418.879 46.7871 419.066 46.8574ZM431.74 60.7441C431.74 60.3809 431.635 60.0527 431.424 59.7598C431.213 59.4668 430.82 59.1973 430.246 58.9512C429.684 58.6934 428.869 58.459 427.803 58.248C426.842 58.0371 425.945 57.7734 425.113 57.457C424.293 57.1289 423.578 56.7363 422.969 56.2793C422.371 55.8223 421.902 55.2832 421.562 54.6621C421.223 54.0293 421.053 53.3086 421.053 52.5C421.053 51.7031 421.223 50.9531 421.562 50.25C421.914 49.5469 422.412 48.9258 423.057 48.3867C423.713 47.8359 424.51 47.4082 425.447 47.1035C426.396 46.7871 427.463 46.6289 428.646 46.6289C430.299 46.6289 431.717 46.8926 432.9 47.4199C434.096 47.9473 435.01 48.6738 435.643 49.5996C436.287 50.5137 436.609 51.5566 436.609 52.7285H431.547C431.547 52.2363 431.441 51.7969 431.23 51.4102C431.031 51.0117 430.715 50.7012 430.281 50.4785C429.859 50.2441 429.309 50.127 428.629 50.127C428.066 50.127 427.58 50.2266 427.17 50.4258C426.76 50.6133 426.443 50.8711 426.221 51.1992C426.01 51.5156 425.904 51.8672 425.904 52.2539C425.904 52.5469 425.963 52.8105 426.08 53.0449C426.209 53.2676 426.414 53.4727 426.695 53.6602C426.977 53.8477 427.34 54.0234 427.785 54.1875C428.242 54.3398 428.805 54.4805 429.473 54.6094C430.844 54.8906 432.068 55.2598 433.146 55.7168C434.225 56.1621 435.08 56.7715 435.713 57.5449C436.346 58.3066 436.662 59.3086 436.662 60.5508C436.662 61.3945 436.475 62.168 436.1 62.8711C435.725 63.5742 435.186 64.1895 434.482 64.7168C433.779 65.2324 432.936 65.6367 431.951 65.9297C430.979 66.2109 429.883 66.3516 428.664 66.3516C426.895 66.3516 425.395 66.0352 424.164 65.4023C422.945 64.7695 422.02 63.9668 421.387 62.9941C420.766 62.0098 420.455 61.002 420.455 59.9707H425.254C425.277 60.6621 425.453 61.2188 425.781 61.6406C426.121 62.0625 426.549 62.3672 427.064 62.5547C427.592 62.7422 428.16 62.8359 428.77 62.8359C429.426 62.8359 429.971 62.748 430.404 62.5723C430.838 62.3848 431.166 62.1387 431.389 61.834C431.623 61.5176 431.74 61.1543 431.74 60.7441Z" fill="white"/>
</svg>
