<svg width="103" height="41" viewBox="0 0 103 41" fill="none" xmlns="http://www.w3.org/2000/svg">
<g clip-path="url(#clip0_13_492)">
<path d="M61.5065 6.80736C58.9016 6.80736 56.2943 6.80243 53.6895 6.81477C53.4616 6.81477 53.1185 6.66426 53.023 6.95047C52.9421 7.19474 53.246 7.36745 53.42 7.54017C54.8804 8.97123 56.3531 10.3924 57.7916 11.8432C59.2104 13.2768 60.6316 14.7103 62.0309 16.166C63.2561 17.4392 64.5156 18.6778 65.7874 19.9041C66.1305 20.2347 66.1305 20.4321 65.7948 20.7652C62.2269 24.3108 58.6688 27.8687 55.1108 31.4241C52.5745 33.9581 50.0432 36.497 47.5095 39.031C47.0145 39.5269 46.4999 40.0056 46.0098 40.5065C45.8088 40.7113 45.5858 40.7211 45.3285 40.7187C42.5644 40.6989 39.8028 40.6224 37.0387 40.7483C36.8696 40.7557 36.6319 40.8445 36.5388 40.657C36.4162 40.4127 36.6809 40.3066 36.8132 40.1734C38.2982 38.6757 39.7881 37.1805 41.273 35.6853C44.8948 32.0385 48.5141 28.3918 52.1335 24.745C53.4616 23.4077 54.7751 22.0581 56.1204 20.743C56.4414 20.4272 56.5002 20.2742 56.1449 19.9238C53.5743 17.3824 51.0283 14.8115 48.4774 12.2503C44.8581 8.61593 41.2412 4.98152 37.6243 1.34711C37.3205 1.04116 37.0166 0.73521 36.7152 0.426791C36.627 0.335499 36.4726 0.259011 36.5633 0.0961657C36.627 -0.0197998 36.7544 0.00240634 36.8671 0.00487369C47.5144 0.187458 58.164 0.0320146 68.8113 0.083829C70.11 0.091231 70.1076 0.083829 70.1051 1.40386C70.1027 2.97803 70.088 4.55467 70.1174 6.12884C70.1272 6.64452 70.0193 6.83204 69.4557 6.82464C66.8043 6.79009 64.1529 6.80983 61.5016 6.80983L61.5065 6.80736ZM63.6629 21.0144C64.3245 20.4321 64.3024 20.284 63.6776 19.6524C61.9598 17.9203 60.2347 16.1956 58.5144 14.466C57.8234 13.7727 57.1324 13.0744 56.4389 12.3811C55.8214 11.7618 55.199 11.145 54.579 10.5281C54.0277 9.98038 53.4739 9.43263 52.9274 8.88241C52.3123 8.2631 51.7512 7.57718 51.0773 7.03189C50.5456 6.60257 50.2221 6.02521 49.6291 5.55148C50.254 5.40838 50.7367 5.57369 51.2243 5.57369C56.5051 5.55888 61.7834 5.55642 67.0641 5.54901C67.4954 5.54901 67.9242 5.53174 68.3555 5.51941C68.7083 5.50954 68.8725 5.35656 68.8627 4.96672C68.8382 4.07847 68.8627 3.18776 68.8603 2.29704C68.8603 1.31751 68.8554 1.31504 67.8972 1.31504C59.2422 1.31504 50.5848 1.31504 41.9298 1.31504C41.3637 1.31504 40.7977 1.30764 40.2316 1.31504C40.0821 1.31504 39.8885 1.27803 39.8077 1.45568C39.7268 1.63579 39.891 1.75176 39.9915 1.86032C40.0944 1.97382 40.2512 2.04044 40.3541 2.15641C40.8589 2.72143 41.398 3.24944 41.9518 3.76759C42.5987 4.37209 43.1329 5.10489 43.8117 5.66498C44.417 6.16339 44.961 6.74815 45.4535 7.31564C46.0416 7.98923 46.7376 8.54685 47.3257 9.21797C47.975 9.96064 48.7347 10.6244 49.438 11.33C49.9722 11.8654 50.4524 12.4798 51.0528 12.9338C51.7365 13.4495 52.2339 14.1428 52.8514 14.7152C53.295 15.1297 53.7949 15.5961 54.1967 16.0106C54.7726 16.583 55.3068 17.1505 55.8557 17.7279C56.6202 18.5372 57.4583 19.2798 58.1983 20.1163C58.3674 20.3087 58.2547 20.4074 58.1518 20.5752C57.6911 21.3401 56.9511 21.8508 56.3384 22.4504C55.7895 22.9907 55.2627 23.4891 54.6917 24.1158C54.1918 24.6636 53.5474 25.2163 53.0597 25.7073C52.5745 26.3537 51.9521 26.8645 51.3861 27.4172C50.7171 28.071 50.0359 28.7298 49.4012 29.4108C48.8891 29.9635 48.3426 30.5112 47.8133 31.0294C47.1664 31.6659 46.4852 32.2951 45.8554 32.949C44.9144 33.926 43.9612 34.9006 43.0104 35.8629C42.0229 36.8622 41.055 37.8911 40.0037 38.8311C39.8763 38.9446 39.6484 39.0483 39.7121 39.2506C39.7807 39.4628 40.0258 39.3912 40.1948 39.3912C41.7362 39.4011 43.2775 39.4011 44.8164 39.406C45.1815 39.406 45.4143 39.2382 45.6643 38.952" fill="white"/>
<path d="M12.0244 17.3553C15.4232 17.3553 18.8244 17.2936 22.2207 17.38C24.0414 17.4269 25.7763 17.8661 27.4206 18.8308C28.6973 19.5784 29.8098 20.4963 30.7606 21.5498C31.802 22.7045 32.6156 24.0961 33.0223 25.6481C33.6864 28.1697 33.7281 30.7111 32.8091 33.1637C32.422 34.1975 31.9049 35.1992 31.1992 36.122C30.6601 36.8277 30.0475 37.4643 29.4226 38.0317C28.5551 38.8164 27.5039 39.4011 26.4355 39.9464C24.5045 40.9334 22.4462 40.8791 20.4074 40.8914C14.2004 40.9284 7.99338 40.884 1.78637 40.8766C1.28893 40.8766 0.791486 40.921 0.294044 40.9358C0.00489017 40.9432 -0.10538 40.847 0.122512 40.5855C0.845396 39.7638 1.6516 39.0236 2.41369 38.2439C2.95769 37.6863 3.5458 37.1706 4.07265 36.5908C4.85434 35.7297 5.7267 34.9476 6.59416 34.1654C6.72894 34.0445 7.03035 34.0938 7.25334 34.0938C11.9901 34.0889 16.7243 34.0741 21.4611 34.0988C22.554 34.1037 23.6077 33.9039 24.4898 33.3265C25.7028 32.5296 26.4184 31.3156 26.6144 29.8426C26.8692 27.9205 26.1611 26.3143 24.7226 25.1448C23.8233 24.412 22.6863 24.0147 21.4464 24.027C18.3662 24.0591 15.2835 24.0567 12.2033 24.0295C11.0736 24.0196 9.91453 24.0493 8.82408 23.805C6.16534 23.2054 4.02364 21.7127 2.28871 19.6006C1.83783 19.0529 1.57318 18.4064 1.17621 17.8365C0.91646 17.4639 0.953216 17.3134 1.4237 17.3504C1.53642 17.3603 1.64915 17.3504 1.76432 17.3504C5.18515 17.3504 8.60599 17.3504 12.0293 17.3504L12.0244 17.3553ZM3.0361 39.2605C3.09246 39.3493 3.14882 39.4381 3.20519 39.5294C3.35466 39.5442 3.50414 39.5714 3.65362 39.5714C9.83857 39.5714 16.026 39.5442 22.2109 39.5812C24.2644 39.5936 26.0189 38.8904 27.6632 37.7431C28.9227 36.8647 29.9225 35.7198 30.7066 34.4393C31.383 33.3339 31.8682 32.0904 32.0863 30.7777C32.493 28.3252 31.9833 26.0281 30.7851 23.9037C30.2386 22.934 29.4667 22.1173 28.6385 21.3278C26.6855 19.4649 24.3722 18.6285 21.7698 18.6038C15.9917 18.552 10.2135 18.5865 4.43531 18.589C4.20987 18.589 3.98198 18.589 3.75654 18.5989C3.62666 18.6038 3.45023 18.5767 3.43063 18.7518C3.42083 18.8382 3.52129 18.9492 3.58746 19.0331C4.05059 19.613 4.58969 20.0966 5.168 20.5703C6.58681 21.7299 8.15511 22.6157 9.97334 22.6651C13.7544 22.7712 17.5403 22.7243 21.3239 22.707C23.6052 22.6971 25.3941 23.6792 26.7859 25.4137C27.6803 26.5265 27.9891 27.8638 27.9842 29.3023C27.9793 30.8295 27.5309 32.2039 26.5213 33.2846C25.1392 34.7625 23.3455 35.4262 21.3214 35.4238C16.8812 35.4213 12.4385 35.4336 7.99828 35.4065C7.3195 35.4015 6.85636 35.6631 6.39323 36.1121C5.29297 37.1805 4.15841 38.2119 3.0361 39.258V39.2605Z" fill="white"/>
<path d="M102.988 14.133C102.988 18.3793 102.978 22.6232 103 26.8695C103.002 27.4 102.836 27.5159 102.338 27.5085C100.209 27.4789 98.0795 27.4913 95.95 27.4937C95.2174 27.4937 95.2198 27.4987 95.5653 28.113C96.4034 29.6033 97.2953 31.064 98.1261 32.5518C99.1136 34.3234 100.14 36.0752 101.135 37.8418C101.62 38.7004 102.066 39.5887 102.613 40.4128C102.706 40.5534 102.904 40.6965 102.779 40.884C102.667 41.0494 102.449 40.9975 102.27 40.9877C100.006 40.8594 97.7438 40.884 95.4796 40.9655C95.1095 40.9778 94.8841 40.7952 94.7273 40.4893C93.6687 38.4192 92.392 36.4749 91.2819 34.4393C90.7453 33.4548 90.1866 32.4679 89.6205 31.5081C88.878 30.2473 88.214 28.9322 87.3808 27.7207C87.175 27.4222 86.9128 27.4937 86.6555 27.4937C83.3008 27.4888 79.9486 27.4814 76.5939 27.5061C76.0744 27.511 75.8906 27.4123 75.9078 26.8374C75.9617 25.014 75.9715 23.1857 75.9445 21.3599C75.9347 20.7702 76.1234 20.6394 76.6772 20.6394C82.8622 20.6567 89.0496 20.6394 95.2345 20.6666C95.9206 20.669 96.1044 20.4988 96.0995 19.798C96.0701 13.6593 96.0848 7.51803 96.0848 1.37926C96.0848 0.421925 96.0799 0.444131 97.0111 0.456468C98.7338 0.476207 100.456 0.515685 102.177 0.444131C102.934 0.412056 102.978 0.769822 102.976 1.32744C102.966 4.63616 102.963 7.94735 102.961 11.2561C102.961 12.2159 102.961 13.1732 102.961 14.133C102.971 14.133 102.978 14.133 102.988 14.133ZM101.591 14.0368C101.591 14.0368 101.596 14.0368 101.598 14.0368C101.598 10.2469 101.598 6.45707 101.598 2.66722C101.598 1.7839 101.569 1.74443 100.684 1.73209C99.7997 1.71975 98.9175 1.73949 98.0329 1.73209C97.6482 1.72962 97.4791 1.83572 97.4816 2.28231C97.5061 5.11236 97.4987 7.94488 97.4987 10.7749C97.4987 14.244 97.4963 17.7156 97.4938 21.1847C97.4938 21.5844 97.5355 21.9224 96.918 21.9175C91.1398 21.8854 85.3592 21.8854 79.581 21.878C78.9929 21.878 78.4023 21.8928 77.8142 21.8706C77.3952 21.8534 77.2727 22.0137 77.2776 22.4332C77.2849 23.4349 77.2408 24.4367 77.2727 25.4409C77.2947 26.1219 77.4932 26.2699 78.1279 26.265C81.2767 26.2354 84.428 26.2526 87.5793 26.2452C87.9052 26.2452 88.1944 26.2378 88.3732 26.5981C89.0128 27.8885 89.7773 29.1049 90.5125 30.341C91.7769 32.4679 92.9825 34.6268 94.2176 36.771C94.7028 37.6123 95.21 38.4389 95.678 39.2877C95.83 39.564 96.004 39.6775 96.3152 39.675C97.5845 39.6602 98.8538 39.6602 100.123 39.6701C100.554 39.6726 100.567 39.5517 100.363 39.2013C99.4419 37.6321 98.5402 36.048 97.636 34.4665C96.4352 32.3692 95.2223 30.2794 94.0436 28.1698C93.7936 27.7232 93.5094 27.2963 93.2889 26.8226C92.9948 26.1984 93.2717 26.2452 93.6956 26.2477C96.0309 26.2526 98.3637 26.2526 100.699 26.2477C101.574 26.2477 101.593 26.2378 101.593 25.3373C101.601 21.5696 101.596 17.8044 101.596 14.0368H101.591Z" fill="white"/>
<path d="M14.0705 7.12819C10.0591 7.12819 6.0502 7.12819 2.0388 7.12819C0.921393 7.12819 0.896889 7.11092 1.4703 6.10424C2.07311 5.04328 2.88911 4.1649 3.78108 3.3186C4.64118 2.5019 5.59931 1.86779 6.74368 1.2929C7.72386 0.799429 8.42959 0.6958 9.19413 0.552693C10.1351 0.377511 11.0908 0.375044 12.044 0.375044C19.0009 0.372577 25.9552 0.362707 32.9121 0.36024C33.0738 0.36024 33.3066 0.249209 33.3777 0.495944C33.4389 0.708137 33.2307 0.782157 33.0983 0.907992C32.3607 1.59145 31.633 2.28971 30.9493 3.03238C30.4837 3.53819 29.9519 3.98231 29.4815 4.48812C28.7757 5.24807 28.0185 5.9562 27.3079 6.71121C27.0408 6.99248 26.7565 7.15533 26.3743 7.15533M25.7911 5.85503C26.0876 5.85503 26.3155 5.75387 26.514 5.55155C27.7147 4.34008 29.06 3.00771 30.268 1.78637C30.023 1.78637 29.4986 1.72469 29.1997 1.72469C23.2622 1.71728 17.3247 1.72469 11.3848 1.72222C10.2013 1.72222 8.98094 1.84312 7.91989 2.25763C6.14086 2.95589 4.57257 4.07361 3.42576 5.78595" fill="white"/>
<path d="M61.1364 34.7279C61.156 34.7156 61.183 34.7082 61.1928 34.6909C62.124 33.6127 62.9008 33.82 63.8883 33.815C65.7457 33.8076 67.6007 33.8224 69.4582 33.8002C69.936 33.7953 70.132 33.8989 70.1222 34.4417C70.0879 36.3342 70.1002 38.2266 70.1198 40.1216C70.1247 40.5386 70.0585 40.7211 69.5709 40.7137C67.2846 40.6841 64.9983 40.7014 62.7121 40.7014C62.7121 40.7039 62.7121 40.7088 62.7121 40.7113C60.4258 40.7113 58.1395 40.7113 55.8532 40.7113C55.7013 40.7113 55.5028 40.7655 55.4342 40.5805C55.3754 40.4201 55.4832 40.2573 55.6106 40.166M63.6947 39.406C63.6947 39.406 63.6947 39.4134 63.6947 39.4159C65.1895 39.4159 66.6843 39.4011 68.179 39.4233C68.6569 39.4307 68.8799 39.3197 68.8627 38.7818C68.8284 37.7801 68.8211 36.7734 68.8676 35.7716C68.8946 35.1967 68.6495 35.0906 68.1594 35.0931C66.4147 35.1079 64.6724 35.098 62.9277 35.0931C62.739 35.0931 62.5724 35.1128 62.4327 35.256C61.2663 36.4427 60.0925 37.6221 58.931 38.8139C58.8036 38.9446 58.512 39.0409 58.6443 39.2802C58.7521 39.4751 59.0192 39.3962 59.2128 39.3962C60.7076 39.406 62.2024 39.4011 63.6971 39.4011L63.6947 39.406Z" fill="white"/>
</g>
<defs>
<clipPath id="clip0_13_492">
<rect width="103" height="41" fill="white"/>
</clipPath>
</defs>
</svg>
