<svg width="863" height="164" viewBox="0 0 863 164" fill="none" xmlns="http://www.w3.org/2000/svg">
<g clip-path="url(#clip0_33_1168)">
<path d="M244.831 27.0637C234.463 27.0637 224.084 27.044 213.715 27.0931C212.808 27.0931 211.443 26.4947 211.062 27.6326C210.74 28.6037 211.95 29.2904 212.642 29.977C218.456 35.6664 224.318 41.3165 230.044 47.0843C235.692 52.7835 241.349 58.4826 246.919 64.2701C251.796 69.3316 256.81 74.2559 261.872 79.1311C263.238 80.4455 263.238 81.2302 261.901 82.5545C247.699 96.6504 233.536 110.795 219.373 124.93C209.277 135.004 199.201 145.098 189.115 155.172C187.145 157.144 185.096 159.047 183.146 161.038C182.346 161.852 181.458 161.892 180.434 161.882C169.431 161.803 158.438 161.499 147.435 161.999C146.762 162.029 145.816 162.382 145.446 161.637C144.958 160.665 146.011 160.244 146.538 159.714C152.449 153.76 158.38 147.815 164.291 141.871C178.707 127.373 193.114 112.875 207.522 98.3768C212.808 93.0602 218.037 87.6945 223.392 82.4662C224.669 81.2106 224.904 80.6024 223.489 79.2095C213.257 69.106 203.122 58.8848 192.968 48.7028C178.561 34.2538 164.164 19.8048 149.767 5.35583C148.557 4.13949 147.348 2.92315 146.148 1.69699C145.797 1.33405 145.182 1.02996 145.543 0.382555C145.797 -0.0784794 146.304 0.00980374 146.753 0.019613C189.135 0.745496 231.527 0.127515 273.909 0.333508C279.079 0.362936 279.069 0.333508 279.059 5.58145C279.049 11.8397 278.991 18.1078 279.108 24.3661C279.147 26.4163 278.718 27.1618 276.474 27.1323C265.92 26.995 255.366 27.0735 244.812 27.0735L244.831 27.0637ZM253.415 83.5452C256.049 81.2302 255.961 80.6417 253.474 78.1305C246.636 71.2444 239.769 64.3878 232.922 57.5115C230.171 54.7551 227.42 51.9791 224.66 49.2227C222.202 46.7606 219.724 44.3083 217.256 41.856C215.062 39.6783 212.857 37.5007 210.682 35.3132C208.234 32.8511 206 30.1241 203.317 27.9563C201.201 26.2495 199.913 23.9541 197.553 22.0708C200.04 21.5018 201.962 22.159 203.903 22.159C224.923 22.1002 245.934 22.0904 266.954 22.061C268.671 22.061 270.378 21.9923 272.095 21.9432C273.499 21.904 274.153 21.2958 274.114 19.746C274.016 16.2147 274.114 12.6735 274.104 9.13239C274.104 5.23812 274.084 5.22831 270.271 5.22831C235.819 5.22831 201.357 5.22831 166.905 5.22831C164.652 5.22831 162.398 5.19889 160.145 5.22831C159.55 5.22831 158.78 5.08118 158.458 5.78744C158.136 6.50351 158.789 6.96455 159.189 7.39615C159.599 7.84738 160.223 8.11223 160.633 8.57326C162.642 10.8196 164.788 12.9188 166.993 14.9787C169.568 17.382 171.694 20.2953 174.396 22.522C176.805 24.5035 178.971 26.8282 180.931 29.0844C183.272 31.7623 186.043 33.9792 188.384 36.6473C190.969 39.5999 193.992 42.2385 196.792 45.044C198.918 47.1726 200.83 49.6151 203.22 51.42C205.941 53.4701 207.921 56.2265 210.379 58.5022C212.145 60.1502 214.135 62.0041 215.735 63.6521C218.027 65.9278 220.153 68.184 222.338 70.4793C225.382 73.6967 228.717 76.6493 231.663 79.9747C232.336 80.7398 231.888 81.1321 231.478 81.7992C229.644 84.84 226.698 86.8705 224.26 89.2542C222.075 91.4024 219.978 93.3839 217.705 95.8754C215.715 98.0531 213.15 100.25 211.209 102.202C209.277 104.772 206.8 106.803 204.546 109C201.884 111.6 199.172 114.219 196.646 116.926C194.607 119.123 192.432 121.301 190.325 123.361C187.75 125.892 185.038 128.393 182.531 130.992C178.786 134.877 174.991 138.752 171.206 142.577C167.276 146.55 163.423 150.64 159.238 154.378C158.731 154.829 157.824 155.241 158.077 156.045C158.35 156.889 159.326 156.604 159.999 156.604C166.134 156.644 172.27 156.644 178.395 156.663C179.849 156.663 180.775 155.996 181.77 154.858" fill="white"/>
<path d="M47.8641 68.9981C61.3932 68.9981 74.9321 68.7529 88.4515 69.0962C95.6989 69.2826 102.605 71.0286 109.15 74.8641C114.232 77.8362 118.66 81.4853 122.445 85.6738C126.591 90.2645 129.829 95.797 131.448 101.967C134.092 111.992 134.257 122.096 130.6 131.846C129.058 135.956 127 139.938 124.191 143.607C122.045 146.413 119.607 148.943 117.119 151.199C113.666 154.319 109.482 156.644 105.229 158.811C97.5424 162.735 89.3489 162.519 81.2333 162.568C56.5258 162.716 31.8184 162.539 7.11087 162.51C5.13076 162.51 3.15065 162.686 1.17053 162.745C0.0195339 162.774 -0.419407 162.392 0.487737 161.352C3.36524 158.086 6.57438 155.143 9.60795 152.043C11.7734 149.826 14.1144 147.776 16.2116 145.471C19.3232 142.047 22.7957 138.938 26.2487 135.828C26.7852 135.348 27.9849 135.544 28.8726 135.544C47.7275 135.524 66.5727 135.465 85.4277 135.564C89.7781 135.583 93.9724 134.789 97.4839 132.493C102.312 129.325 105.16 124.499 105.941 118.643C106.955 111.001 104.136 104.615 98.4106 99.9659C94.8307 97.0525 90.3048 95.4732 85.3691 95.5223C73.1081 95.6498 60.8372 95.64 48.5761 95.5321C44.0794 95.4929 39.4657 95.6106 35.125 94.6395C24.5417 92.2558 16.0165 86.3212 9.11049 77.9245C7.31571 75.7469 6.26225 73.1769 4.68206 70.9109C3.64811 69.4297 3.79443 68.8314 5.66724 68.9785C6.11593 69.0177 6.56463 68.9785 7.02308 68.9785C20.64 68.9785 34.2569 68.9785 47.8836 68.9785L47.8641 68.9981ZM12.0855 156.084C12.3099 156.438 12.5342 156.791 12.7586 157.154C13.3536 157.213 13.9486 157.32 14.5436 157.32C39.1633 157.32 63.7928 157.213 88.4125 157.36C96.5865 157.409 103.571 154.613 110.116 150.052C115.129 146.56 119.109 142.008 122.23 136.917C124.923 132.523 126.854 127.579 127.722 122.36C129.341 112.61 127.312 103.478 122.543 95.0318C120.367 91.1768 117.295 87.93 113.998 84.791C106.224 77.385 97.0157 74.0597 86.6567 73.9616C63.6562 73.7556 40.6557 73.8929 17.6552 73.9027C16.7578 73.9027 15.8507 73.9027 14.9533 73.942C14.4363 73.9616 13.734 73.8537 13.656 74.5502C13.6169 74.8935 14.0169 75.3349 14.2802 75.6684C16.1238 77.9736 18.2697 79.8962 20.5717 81.7796C26.2194 86.3899 32.4621 89.9114 39.6998 90.1076C54.7506 90.5294 69.8209 90.343 84.8814 90.2744C93.9626 90.2351 101.083 94.1392 106.624 101.035C110.184 105.459 111.413 110.776 111.393 116.494C111.374 122.566 109.589 128.03 105.57 132.327C100.069 138.202 92.9287 140.841 84.8717 140.831C67.197 140.821 49.5126 140.87 31.8379 140.762C29.1359 140.743 27.2924 141.783 25.4488 143.568C21.0692 147.815 16.553 151.916 12.0855 156.075V156.084Z" fill="white"/>
<path d="M409.951 56.1873C409.951 73.069 409.912 89.9408 410 106.823C410.01 108.932 409.347 109.393 407.366 109.363C398.89 109.245 390.414 109.294 381.937 109.304C379.021 109.304 379.03 109.324 380.406 111.766C383.742 117.691 387.292 123.498 390.599 129.413C394.53 136.456 398.617 143.421 402.577 150.444C404.508 153.858 406.284 157.389 408.459 160.665C408.83 161.225 409.62 161.793 409.122 162.539C408.673 163.196 407.805 162.99 407.093 162.951C398.08 162.441 389.077 162.539 380.064 162.863C378.591 162.912 377.694 162.186 377.07 160.969C372.856 152.74 367.774 145.01 363.355 136.917C361.219 133.003 358.995 129.08 356.742 125.264C353.786 120.251 351.143 115.023 347.826 110.207C347.007 109.02 345.963 109.304 344.939 109.304C331.586 109.285 318.242 109.255 304.888 109.353C302.82 109.373 302.089 108.981 302.157 106.695C302.372 99.446 302.411 92.1773 302.303 84.9185C302.264 82.5741 303.016 82.0542 305.22 82.0542C329.84 82.1229 354.469 82.0542 379.089 82.1621C381.82 82.1719 382.552 81.4951 382.532 78.7093C382.415 54.3039 382.474 29.8887 382.474 5.48336C382.474 1.67738 382.454 1.76566 386.161 1.8147C393.018 1.89318 399.875 2.05013 406.723 1.76566C409.737 1.63814 409.912 3.06048 409.903 5.27736C409.863 18.4315 409.854 31.5955 409.844 44.7497C409.844 48.5655 409.844 52.3715 409.844 56.1873C409.883 56.1873 409.912 56.1873 409.951 56.1873ZM404.391 55.8047C404.391 55.8047 404.411 55.8047 404.421 55.8047C404.421 40.7377 404.421 25.6708 404.421 10.6038C404.421 7.09207 404.304 6.93512 400.782 6.88608C397.261 6.83703 393.749 6.91551 390.228 6.88608C388.697 6.87627 388.024 7.29807 388.033 9.07354C388.131 20.3247 388.102 31.5857 388.102 42.8369C388.102 56.6287 388.092 70.4303 388.082 84.2221C388.082 85.8112 388.248 87.155 385.79 87.1354C362.79 87.0079 339.779 87.0079 316.779 86.9785C314.438 86.9785 312.087 87.0373 309.746 86.949C308.078 86.8804 307.59 87.518 307.61 89.1855C307.639 93.1681 307.463 97.1506 307.59 101.143C307.678 103.85 308.468 104.439 310.994 104.419C323.529 104.302 336.073 104.37 348.617 104.341C349.914 104.341 351.065 104.311 351.777 105.744C354.323 110.874 357.366 115.71 360.292 120.624C365.326 129.08 370.125 137.663 375.041 146.187C376.972 149.532 378.991 152.818 380.854 156.192C381.459 157.291 382.152 157.742 383.39 157.732C388.443 157.674 393.496 157.674 398.549 157.713C400.265 157.723 400.314 157.242 399.504 155.849C395.837 149.61 392.247 143.313 388.648 137.025C383.868 128.687 379.04 120.379 374.348 111.992C373.353 110.217 372.222 108.52 371.344 106.636C370.173 104.154 371.276 104.341 372.963 104.351C382.259 104.37 391.545 104.37 400.841 104.351C404.323 104.351 404.401 104.311 404.401 100.731C404.43 85.7523 404.411 70.7834 404.411 55.8047H404.391Z" fill="white"/>
<path d="M56.0088 28.3389C40.0411 28.3389 24.0832 28.3389 8.1155 28.3389C3.66757 28.3389 3.57003 28.2702 5.85252 24.268C8.25206 20.0501 11.5002 16.558 15.0508 13.1934C18.4745 9.94656 22.2884 7.42558 26.8436 5.14003C30.7453 3.17819 33.5546 2.7662 36.5979 2.19726C40.3435 1.50081 44.1477 1.491 47.9421 1.491C75.6344 1.48119 103.317 1.44195 131.009 1.43214C131.653 1.43214 132.58 0.990727 132.862 1.97165C133.106 2.81524 132.277 3.10952 131.751 3.60979C128.814 6.32695 125.917 9.10296 123.196 12.0555C121.343 14.0664 119.226 15.8321 117.353 17.843C114.544 20.8642 111.53 23.6795 108.701 26.6811C107.638 27.7994 106.507 28.4468 104.985 28.4468M102.663 23.2773C103.844 23.2773 104.751 22.8751 105.541 22.0708C110.32 17.2544 115.676 11.9574 120.484 7.10188C119.509 7.10188 117.422 6.85665 116.232 6.85665C92.597 6.82722 68.9625 6.85665 45.3182 6.84684C40.6069 6.84684 35.7493 7.32749 31.5257 8.97544C24.4441 11.7515 18.2014 16.195 13.6364 23.0026" fill="white"/>
<path d="M243.359 138.065C243.437 138.016 243.544 137.986 243.583 137.918C247.289 133.631 250.382 134.455 254.313 134.436C261.706 134.406 269.09 134.465 276.484 134.377C278.386 134.357 279.166 134.769 279.127 136.927C278.991 144.451 279.04 151.974 279.118 159.508C279.137 161.166 278.874 161.892 276.933 161.862C267.832 161.744 258.731 161.813 249.631 161.813C249.631 161.823 249.631 161.843 249.631 161.852C240.53 161.852 231.429 161.852 222.328 161.852C221.724 161.852 220.934 162.068 220.66 161.332C220.426 160.695 220.856 160.047 221.363 159.684M253.542 156.663C253.542 156.663 253.542 156.693 253.542 156.702C259.492 156.702 265.442 156.644 271.392 156.732C273.294 156.761 274.182 156.32 274.114 154.182C273.977 150.199 273.948 146.197 274.133 142.214C274.24 139.929 273.265 139.507 271.314 139.517C264.369 139.576 257.434 139.536 250.489 139.517C249.738 139.517 249.075 139.595 248.519 140.164C243.876 144.882 239.203 149.571 234.58 154.309C234.073 154.829 232.912 155.211 233.438 156.163C233.868 156.938 234.931 156.624 235.701 156.624C241.652 156.663 247.602 156.644 253.552 156.644L253.542 156.663Z" fill="white"/>
</g>
<path d="M506.297 145.75C506.297 144.156 506.047 142.75 505.547 141.531C505.078 140.281 504.234 139.156 503.016 138.156C501.828 137.156 500.172 136.203 498.047 135.297C495.953 134.391 493.297 133.469 490.078 132.531C486.703 131.531 483.656 130.422 480.938 129.203C478.219 127.953 475.891 126.531 473.953 124.938C472.016 123.344 470.531 121.516 469.5 119.453C468.469 117.391 467.953 115.031 467.953 112.375C467.953 109.719 468.5 107.266 469.594 105.016C470.688 102.766 472.25 100.812 474.281 99.1562C476.344 97.4688 478.797 96.1562 481.641 95.2188C484.484 94.2812 487.656 93.8125 491.156 93.8125C496.281 93.8125 500.625 94.7969 504.188 96.7656C507.781 98.7031 510.516 101.25 512.391 104.406C514.266 107.531 515.203 110.875 515.203 114.438H506.203C506.203 111.875 505.656 109.609 504.562 107.641C503.469 105.641 501.812 104.078 499.594 102.953C497.375 101.797 494.562 101.219 491.156 101.219C487.938 101.219 485.281 101.703 483.188 102.672C481.094 103.641 479.531 104.953 478.5 106.609C477.5 108.266 477 110.156 477 112.281C477 113.719 477.297 115.031 477.891 116.219C478.516 117.375 479.469 118.453 480.75 119.453C482.062 120.453 483.719 121.375 485.719 122.219C487.75 123.062 490.172 123.875 492.984 124.656C496.859 125.75 500.203 126.969 503.016 128.312C505.828 129.656 508.141 131.172 509.953 132.859C511.797 134.516 513.156 136.406 514.031 138.531C514.938 140.625 515.391 143 515.391 145.656C515.391 148.438 514.828 150.953 513.703 153.203C512.578 155.453 510.969 157.375 508.875 158.969C506.781 160.562 504.266 161.797 501.328 162.672C498.422 163.516 495.172 163.938 491.578 163.938C488.422 163.938 485.312 163.5 482.25 162.625C479.219 161.75 476.453 160.438 473.953 158.688C471.484 156.938 469.5 154.781 468 152.219C466.531 149.625 465.797 146.625 465.797 143.219H474.797C474.797 145.562 475.25 147.578 476.156 149.266C477.062 150.922 478.297 152.297 479.859 153.391C481.453 154.484 483.25 155.297 485.25 155.828C487.281 156.328 489.391 156.578 491.578 156.578C494.734 156.578 497.406 156.141 499.594 155.266C501.781 154.391 503.438 153.141 504.562 151.516C505.719 149.891 506.297 147.969 506.297 145.75ZM523.312 138.203V137.125C523.312 133.469 523.844 130.078 524.906 126.953C525.969 123.797 527.5 121.062 529.5 118.75C531.5 116.406 533.922 114.594 536.766 113.312C539.609 112 542.797 111.344 546.328 111.344C549.891 111.344 553.094 112 555.938 113.312C558.812 114.594 561.25 116.406 563.25 118.75C565.281 121.062 566.828 123.797 567.891 126.953C568.953 130.078 569.484 133.469 569.484 137.125V138.203C569.484 141.859 568.953 145.25 567.891 148.375C566.828 151.5 565.281 154.234 563.25 156.578C561.25 158.891 558.828 160.703 555.984 162.016C553.172 163.297 549.984 163.938 546.422 163.938C542.859 163.938 539.656 163.297 536.812 162.016C533.969 160.703 531.531 158.891 529.5 156.578C527.5 154.234 525.969 151.5 524.906 148.375C523.844 145.25 523.312 141.859 523.312 138.203ZM531.984 137.125V138.203C531.984 140.734 532.281 143.125 532.875 145.375C533.469 147.594 534.359 149.562 535.547 151.281C536.766 153 538.281 154.359 540.094 155.359C541.906 156.328 544.016 156.812 546.422 156.812C548.797 156.812 550.875 156.328 552.656 155.359C554.469 154.359 555.969 153 557.156 151.281C558.344 149.562 559.234 147.594 559.828 145.375C560.453 143.125 560.766 140.734 560.766 138.203V137.125C560.766 134.625 560.453 132.266 559.828 130.047C559.234 127.797 558.328 125.812 557.109 124.094C555.922 122.344 554.422 120.969 552.609 119.969C550.828 118.969 548.734 118.469 546.328 118.469C543.953 118.469 541.859 118.969 540.047 119.969C538.266 120.969 536.766 122.344 535.547 124.094C534.359 125.812 533.469 127.797 532.875 130.047C532.281 132.266 531.984 134.625 531.984 137.125ZM589.781 91V163H581.062V91H589.781ZM634.734 151.281V112.281H643.453V163H635.156L634.734 151.281ZM636.375 140.594L639.984 140.5C639.984 143.875 639.625 147 638.906 149.875C638.219 152.719 637.094 155.188 635.531 157.281C633.969 159.375 631.922 161.016 629.391 162.203C626.859 163.359 623.781 163.938 620.156 163.938C617.688 163.938 615.422 163.578 613.359 162.859C611.328 162.141 609.578 161.031 608.109 159.531C606.641 158.031 605.5 156.078 604.688 153.672C603.906 151.266 603.516 148.375 603.516 145V112.281H612.188V145.094C612.188 147.375 612.438 149.266 612.938 150.766C613.469 152.234 614.172 153.406 615.047 154.281C615.953 155.125 616.953 155.719 618.047 156.062C619.172 156.406 620.328 156.578 621.516 156.578C625.203 156.578 628.125 155.875 630.281 154.469C632.438 153.031 633.984 151.109 634.922 148.703C635.891 146.266 636.375 143.562 636.375 140.594ZM677.906 112.281V118.938H650.484V112.281H677.906ZM659.766 99.9531H668.438V150.438C668.438 152.156 668.703 153.453 669.234 154.328C669.766 155.203 670.453 155.781 671.297 156.062C672.141 156.344 673.047 156.484 674.016 156.484C674.734 156.484 675.484 156.422 676.266 156.297C677.078 156.141 677.688 156.016 678.094 155.922L678.141 163C677.453 163.219 676.547 163.422 675.422 163.609C674.328 163.828 673 163.938 671.438 163.938C669.312 163.938 667.359 163.516 665.578 162.672C663.797 161.828 662.375 160.422 661.312 158.453C660.281 156.453 659.766 153.766 659.766 150.391V99.9531ZM697.5 112.281V163H688.781V112.281H697.5ZM688.125 98.8281C688.125 97.4219 688.547 96.2344 689.391 95.2656C690.266 94.2969 691.547 93.8125 693.234 93.8125C694.891 93.8125 696.156 94.2969 697.031 95.2656C697.938 96.2344 698.391 97.4219 698.391 98.8281C698.391 100.172 697.938 101.328 697.031 102.297C696.156 103.234 694.891 103.703 693.234 103.703C691.547 103.703 690.266 103.234 689.391 102.297C688.547 101.328 688.125 100.172 688.125 98.8281ZM709.125 138.203V137.125C709.125 133.469 709.656 130.078 710.719 126.953C711.781 123.797 713.312 121.062 715.312 118.75C717.312 116.406 719.734 114.594 722.578 113.312C725.422 112 728.609 111.344 732.141 111.344C735.703 111.344 738.906 112 741.75 113.312C744.625 114.594 747.062 116.406 749.062 118.75C751.094 121.062 752.641 123.797 753.703 126.953C754.766 130.078 755.297 133.469 755.297 137.125V138.203C755.297 141.859 754.766 145.25 753.703 148.375C752.641 151.5 751.094 154.234 749.062 156.578C747.062 158.891 744.641 160.703 741.797 162.016C738.984 163.297 735.797 163.938 732.234 163.938C728.672 163.938 725.469 163.297 722.625 162.016C719.781 160.703 717.344 158.891 715.312 156.578C713.312 154.234 711.781 151.5 710.719 148.375C709.656 145.25 709.125 141.859 709.125 138.203ZM717.797 137.125V138.203C717.797 140.734 718.094 143.125 718.688 145.375C719.281 147.594 720.172 149.562 721.359 151.281C722.578 153 724.094 154.359 725.906 155.359C727.719 156.328 729.828 156.812 732.234 156.812C734.609 156.812 736.688 156.328 738.469 155.359C740.281 154.359 741.781 153 742.969 151.281C744.156 149.562 745.047 147.594 745.641 145.375C746.266 143.125 746.578 140.734 746.578 138.203V137.125C746.578 134.625 746.266 132.266 745.641 130.047C745.047 127.797 744.141 125.812 742.922 124.094C741.734 122.344 740.234 120.969 738.422 119.969C736.641 118.969 734.547 118.469 732.141 118.469C729.766 118.469 727.672 118.969 725.859 119.969C724.078 120.969 722.578 122.344 721.359 124.094C720.172 125.812 719.281 127.797 718.688 130.047C718.094 132.266 717.797 134.625 717.797 137.125ZM774.844 123.109V163H766.172V112.281H774.375L774.844 123.109ZM772.781 135.719L769.172 135.578C769.203 132.109 769.719 128.906 770.719 125.969C771.719 123 773.125 120.422 774.938 118.234C776.75 116.047 778.906 114.359 781.406 113.172C783.938 111.953 786.734 111.344 789.797 111.344C792.297 111.344 794.547 111.688 796.547 112.375C798.547 113.031 800.25 114.094 801.656 115.562C803.094 117.031 804.188 118.938 804.938 121.281C805.688 123.594 806.062 126.422 806.062 129.766V163H797.344V129.672C797.344 127.016 796.953 124.891 796.172 123.297C795.391 121.672 794.25 120.5 792.75 119.781C791.25 119.031 789.406 118.656 787.219 118.656C785.062 118.656 783.094 119.109 781.312 120.016C779.562 120.922 778.047 122.172 776.766 123.766C775.516 125.359 774.531 127.188 773.812 129.25C773.125 131.281 772.781 133.438 772.781 135.719ZM848.766 149.547C848.766 148.297 848.484 147.141 847.922 146.078C847.391 144.984 846.281 144 844.594 143.125C842.938 142.219 840.438 141.438 837.094 140.781C834.281 140.188 831.734 139.484 829.453 138.672C827.203 137.859 825.281 136.875 823.688 135.719C822.125 134.562 820.922 133.203 820.078 131.641C819.234 130.078 818.812 128.25 818.812 126.156C818.812 124.156 819.25 122.266 820.125 120.484C821.031 118.703 822.297 117.125 823.922 115.75C825.578 114.375 827.562 113.297 829.875 112.516C832.188 111.734 834.766 111.344 837.609 111.344C841.672 111.344 845.141 112.062 848.016 113.5C850.891 114.938 853.094 116.859 854.625 119.266C856.156 121.641 856.922 124.281 856.922 127.188H848.25C848.25 125.781 847.828 124.422 846.984 123.109C846.172 121.766 844.969 120.656 843.375 119.781C841.812 118.906 839.891 118.469 837.609 118.469C835.203 118.469 833.25 118.844 831.75 119.594C830.281 120.312 829.203 121.234 828.516 122.359C827.859 123.484 827.531 124.672 827.531 125.922C827.531 126.859 827.688 127.703 828 128.453C828.344 129.172 828.938 129.844 829.781 130.469C830.625 131.062 831.812 131.625 833.344 132.156C834.875 132.688 836.828 133.219 839.203 133.75C843.359 134.688 846.781 135.812 849.469 137.125C852.156 138.438 854.156 140.047 855.469 141.953C856.781 143.859 857.438 146.172 857.438 148.891C857.438 151.109 856.969 153.141 856.031 154.984C855.125 156.828 853.797 158.422 852.047 159.766C850.328 161.078 848.266 162.109 845.859 162.859C843.484 163.578 840.812 163.938 837.844 163.938C833.375 163.938 829.594 163.141 826.5 161.547C823.406 159.953 821.062 157.891 819.469 155.359C817.875 152.828 817.078 150.156 817.078 147.344H825.797C825.922 149.719 826.609 151.609 827.859 153.016C829.109 154.391 830.641 155.375 832.453 155.969C834.266 156.531 836.062 156.812 837.844 156.812C840.219 156.812 842.203 156.5 843.797 155.875C845.422 155.25 846.656 154.391 847.5 153.297C848.344 152.203 848.766 150.953 848.766 149.547Z" fill="white"/>
<defs>
<clipPath id="clip0_33_1168">
<rect width="410" height="163" fill="white"/>
</clipPath>
</defs>
</svg>
