<svg width="393" height="73" viewBox="0 0 393 73" fill="none" xmlns="http://www.w3.org/2000/svg">
<path d="M41.2969 54.75C41.2969 53.1562 41.0469 51.75 40.5469 50.5312C40.0781 49.2812 39.2344 48.1562 38.0156 47.1562C36.8281 46.1562 35.1719 45.2031 33.0469 44.2969C30.9531 43.3906 28.2969 42.4688 25.0781 41.5312C21.7031 40.5312 18.6562 39.4219 15.9375 38.2031C13.2188 36.9531 10.8906 35.5312 8.95312 33.9375C7.01562 32.3438 5.53125 30.5156 4.5 28.4531C3.46875 26.3906 2.95312 24.0312 2.95312 21.375C2.95312 18.7187 3.5 16.2656 4.59375 14.0156C5.6875 11.7656 7.25 9.8125 9.28125 8.15625C11.3438 6.46875 13.7969 5.15625 16.6406 4.21875C19.4844 3.28125 22.6562 2.8125 26.1562 2.8125C31.2812 2.8125 35.625 3.79688 39.1875 5.76562C42.7812 7.70312 45.5156 10.25 47.3906 13.4062C49.2656 16.5313 50.2031 19.875 50.2031 23.4375H41.2031C41.2031 20.875 40.6562 18.6094 39.5625 16.6406C38.4688 14.6406 36.8125 13.0781 34.5938 11.9531C32.375 10.7969 29.5625 10.2188 26.1562 10.2188C22.9375 10.2188 20.2812 10.7031 18.1875 11.6719C16.0938 12.6406 14.5312 13.9531 13.5 15.6094C12.5 17.2656 12 19.1563 12 21.2812C12 22.7188 12.2969 24.0312 12.8906 25.2188C13.5156 26.375 14.4688 27.4531 15.75 28.4531C17.0625 29.4531 18.7188 30.375 20.7188 31.2188C22.75 32.0625 25.1719 32.875 27.9844 33.6562C31.8594 34.75 35.2031 35.9688 38.0156 37.3125C40.8281 38.6562 43.1406 40.1719 44.9531 41.8594C46.7969 43.5156 48.1562 45.4062 49.0312 47.5312C49.9375 49.625 50.3906 52 50.3906 54.6562C50.3906 57.4375 49.8281 59.9531 48.7031 62.2031C47.5781 64.4531 45.9688 66.375 43.875 67.9688C41.7812 69.5625 39.2656 70.7969 36.3281 71.6719C33.4219 72.5156 30.1719 72.9375 26.5781 72.9375C23.4219 72.9375 20.3125 72.5 17.25 71.625C14.2188 70.75 11.4531 69.4375 8.95312 67.6875C6.48438 65.9375 4.5 63.7812 3 61.2188C1.53125 58.625 0.796875 55.625 0.796875 52.2188H9.79688C9.79688 54.5625 10.25 56.5781 11.1562 58.2656C12.0625 59.9219 13.2969 61.2969 14.8594 62.3906C16.4531 63.4844 18.25 64.2969 20.25 64.8281C22.2812 65.3281 24.3906 65.5781 26.5781 65.5781C29.7344 65.5781 32.4062 65.1406 34.5938 64.2656C36.7812 63.3906 38.4375 62.1406 39.5625 60.5156C40.7188 58.8906 41.2969 56.9688 41.2969 54.75ZM58.3125 47.2031V46.125C58.3125 42.4688 58.8438 39.0781 59.9062 35.9531C60.9688 32.7969 62.5 30.0625 64.5 27.75C66.5 25.4062 68.9219 23.5937 71.7656 22.3125C74.6094 21 77.7969 20.3438 81.3281 20.3438C84.8906 20.3438 88.0938 21 90.9375 22.3125C93.8125 23.5937 96.25 25.4062 98.25 27.75C100.281 30.0625 101.828 32.7969 102.891 35.9531C103.953 39.0781 104.484 42.4688 104.484 46.125V47.2031C104.484 50.8594 103.953 54.25 102.891 57.375C101.828 60.5 100.281 63.2344 98.25 65.5781C96.25 67.8906 93.8281 69.7031 90.9844 71.0156C88.1719 72.2969 84.9844 72.9375 81.4219 72.9375C77.8594 72.9375 74.6562 72.2969 71.8125 71.0156C68.9688 69.7031 66.5312 67.8906 64.5 65.5781C62.5 63.2344 60.9688 60.5 59.9062 57.375C58.8438 54.25 58.3125 50.8594 58.3125 47.2031ZM66.9844 46.125V47.2031C66.9844 49.7344 67.2812 52.125 67.875 54.375C68.4688 56.5938 69.3594 58.5625 70.5469 60.2812C71.7656 62 73.2812 63.3594 75.0938 64.3594C76.9062 65.3281 79.0156 65.8125 81.4219 65.8125C83.7969 65.8125 85.875 65.3281 87.6562 64.3594C89.4688 63.3594 90.9688 62 92.1562 60.2812C93.3438 58.5625 94.2344 56.5938 94.8281 54.375C95.4531 52.125 95.7656 49.7344 95.7656 47.2031V46.125C95.7656 43.625 95.4531 41.2656 94.8281 39.0469C94.2344 36.7969 93.3281 34.8125 92.1094 33.0938C90.9219 31.3438 89.4219 29.9688 87.6094 28.9688C85.8281 27.9688 83.7344 27.4688 81.3281 27.4688C78.9531 27.4688 76.8594 27.9688 75.0469 28.9688C73.2656 29.9688 71.7656 31.3438 70.5469 33.0938C69.3594 34.8125 68.4688 36.7969 67.875 39.0469C67.2812 41.2656 66.9844 43.625 66.9844 46.125ZM124.781 0V72H116.062V0H124.781ZM169.734 60.2812V21.2812H178.453V72H170.156L169.734 60.2812ZM171.375 49.5938L174.984 49.5C174.984 52.875 174.625 56 173.906 58.875C173.219 61.7188 172.094 64.1875 170.531 66.2812C168.969 68.375 166.922 70.0156 164.391 71.2031C161.859 72.3594 158.781 72.9375 155.156 72.9375C152.688 72.9375 150.422 72.5781 148.359 71.8594C146.328 71.1406 144.578 70.0312 143.109 68.5312C141.641 67.0312 140.5 65.0781 139.688 62.6719C138.906 60.2656 138.516 57.375 138.516 54V21.2812H147.188V54.0938C147.188 56.375 147.438 58.2656 147.938 59.7656C148.469 61.2344 149.172 62.4062 150.047 63.2812C150.953 64.125 151.953 64.7188 153.047 65.0625C154.172 65.4062 155.328 65.5781 156.516 65.5781C160.203 65.5781 163.125 64.875 165.281 63.4688C167.438 62.0312 168.984 60.1094 169.922 57.7031C170.891 55.2656 171.375 52.5625 171.375 49.5938ZM212.906 21.2812V27.9375H185.484V21.2812H212.906ZM194.766 8.95312H203.438V59.4375C203.438 61.1562 203.703 62.4531 204.234 63.3281C204.766 64.2031 205.453 64.7812 206.297 65.0625C207.141 65.3438 208.047 65.4844 209.016 65.4844C209.734 65.4844 210.484 65.4219 211.266 65.2969C212.078 65.1406 212.688 65.0156 213.094 64.9219L213.141 72C212.453 72.2188 211.547 72.4219 210.422 72.6094C209.328 72.8281 208 72.9375 206.438 72.9375C204.312 72.9375 202.359 72.5156 200.578 71.6719C198.797 70.8281 197.375 69.4219 196.312 67.4531C195.281 65.4531 194.766 62.7656 194.766 59.3906V8.95312ZM232.5 21.2812V72H223.781V21.2812H232.5ZM223.125 7.82812C223.125 6.42188 223.547 5.23438 224.391 4.26562C225.266 3.29687 226.547 2.8125 228.234 2.8125C229.891 2.8125 231.156 3.29687 232.031 4.26562C232.938 5.23438 233.391 6.42188 233.391 7.82812C233.391 9.17188 232.938 10.3281 232.031 11.2969C231.156 12.2344 229.891 12.7031 228.234 12.7031C226.547 12.7031 225.266 12.2344 224.391 11.2969C223.547 10.3281 223.125 9.17188 223.125 7.82812ZM244.125 47.2031V46.125C244.125 42.4688 244.656 39.0781 245.719 35.9531C246.781 32.7969 248.312 30.0625 250.312 27.75C252.312 25.4062 254.734 23.5937 257.578 22.3125C260.422 21 263.609 20.3438 267.141 20.3438C270.703 20.3438 273.906 21 276.75 22.3125C279.625 23.5937 282.062 25.4062 284.062 27.75C286.094 30.0625 287.641 32.7969 288.703 35.9531C289.766 39.0781 290.297 42.4688 290.297 46.125V47.2031C290.297 50.8594 289.766 54.25 288.703 57.375C287.641 60.5 286.094 63.2344 284.062 65.5781C282.062 67.8906 279.641 69.7031 276.797 71.0156C273.984 72.2969 270.797 72.9375 267.234 72.9375C263.672 72.9375 260.469 72.2969 257.625 71.0156C254.781 69.7031 252.344 67.8906 250.312 65.5781C248.312 63.2344 246.781 60.5 245.719 57.375C244.656 54.25 244.125 50.8594 244.125 47.2031ZM252.797 46.125V47.2031C252.797 49.7344 253.094 52.125 253.688 54.375C254.281 56.5938 255.172 58.5625 256.359 60.2812C257.578 62 259.094 63.3594 260.906 64.3594C262.719 65.3281 264.828 65.8125 267.234 65.8125C269.609 65.8125 271.688 65.3281 273.469 64.3594C275.281 63.3594 276.781 62 277.969 60.2812C279.156 58.5625 280.047 56.5938 280.641 54.375C281.266 52.125 281.578 49.7344 281.578 47.2031V46.125C281.578 43.625 281.266 41.2656 280.641 39.0469C280.047 36.7969 279.141 34.8125 277.922 33.0938C276.734 31.3438 275.234 29.9688 273.422 28.9688C271.641 27.9688 269.547 27.4688 267.141 27.4688C264.766 27.4688 262.672 27.9688 260.859 28.9688C259.078 29.9688 257.578 31.3438 256.359 33.0938C255.172 34.8125 254.281 36.7969 253.688 39.0469C253.094 41.2656 252.797 43.625 252.797 46.125ZM309.844 32.1094V72H301.172V21.2812H309.375L309.844 32.1094ZM307.781 44.7188L304.172 44.5781C304.203 41.1094 304.719 37.9062 305.719 34.9688C306.719 32 308.125 29.4219 309.938 27.2344C311.75 25.0469 313.906 23.3594 316.406 22.1719C318.938 20.9531 321.734 20.3438 324.797 20.3438C327.297 20.3438 329.547 20.6875 331.547 21.375C333.547 22.0312 335.25 23.0938 336.656 24.5625C338.094 26.0312 339.188 27.9375 339.938 30.2812C340.688 32.5938 341.062 35.4219 341.062 38.7656V72H332.344V38.6719C332.344 36.0156 331.953 33.8906 331.172 32.2969C330.391 30.6719 329.25 29.5 327.75 28.7812C326.25 28.0312 324.406 27.6562 322.219 27.6562C320.062 27.6562 318.094 28.1094 316.312 29.0156C314.562 29.9219 313.047 31.1719 311.766 32.7656C310.516 34.3594 309.531 36.1875 308.812 38.25C308.125 40.2812 307.781 42.4375 307.781 44.7188ZM383.766 58.5469C383.766 57.2969 383.484 56.1406 382.922 55.0781C382.391 53.9844 381.281 53 379.594 52.125C377.938 51.2188 375.438 50.4375 372.094 49.7812C369.281 49.1875 366.734 48.4844 364.453 47.6719C362.203 46.8594 360.281 45.875 358.688 44.7188C357.125 43.5625 355.922 42.2031 355.078 40.6406C354.234 39.0781 353.812 37.25 353.812 35.1562C353.812 33.1562 354.25 31.2656 355.125 29.4844C356.031 27.7031 357.297 26.125 358.922 24.75C360.578 23.375 362.562 22.2969 364.875 21.5156C367.188 20.7344 369.766 20.3438 372.609 20.3438C376.672 20.3438 380.141 21.0625 383.016 22.5C385.891 23.9375 388.094 25.8594 389.625 28.2656C391.156 30.6406 391.922 33.2812 391.922 36.1875H383.25C383.25 34.7812 382.828 33.4219 381.984 32.1094C381.172 30.7656 379.969 29.6562 378.375 28.7812C376.812 27.9062 374.891 27.4688 372.609 27.4688C370.203 27.4688 368.25 27.8438 366.75 28.5938C365.281 29.3125 364.203 30.2344 363.516 31.3594C362.859 32.4844 362.531 33.6719 362.531 34.9219C362.531 35.8594 362.688 36.7031 363 37.4531C363.344 38.1719 363.938 38.8438 364.781 39.4688C365.625 40.0625 366.812 40.625 368.344 41.1562C369.875 41.6875 371.828 42.2188 374.203 42.75C378.359 43.6875 381.781 44.8125 384.469 46.125C387.156 47.4375 389.156 49.0469 390.469 50.9531C391.781 52.8594 392.438 55.1719 392.438 57.8906C392.438 60.1094 391.969 62.1406 391.031 63.9844C390.125 65.8281 388.797 67.4219 387.047 68.7656C385.328 70.0781 383.266 71.1094 380.859 71.8594C378.484 72.5781 375.812 72.9375 372.844 72.9375C368.375 72.9375 364.594 72.1406 361.5 70.5469C358.406 68.9531 356.062 66.8906 354.469 64.3594C352.875 61.8281 352.078 59.1562 352.078 56.3438H360.797C360.922 58.7188 361.609 60.6094 362.859 62.0156C364.109 63.3906 365.641 64.375 367.453 64.9688C369.266 65.5312 371.062 65.8125 372.844 65.8125C375.219 65.8125 377.203 65.5 378.797 64.875C380.422 64.25 381.656 63.3906 382.5 62.2969C383.344 61.2031 383.766 59.9531 383.766 58.5469Z" fill="white"/>
</svg>
