<svg width="150" height="150" viewBox="0 0 150 150" fill="none" xmlns="http://www.w3.org/2000/svg">
<g filter="url(#filter0_d_13_769)">
<path d="M56.25 65.625L68.75 78.125L96.875 50M43.75 112.5V127.097C43.75 130.427 43.75 132.092 44.4327 132.948C45.0264 133.691 45.9267 134.124 46.8784 134.123C47.9727 134.122 49.2729 133.082 51.8735 131.001L66.7826 119.074C69.8282 116.637 71.3511 115.419 73.0468 114.553C74.5512 113.784 76.1527 113.222 77.8076 112.883C79.6729 112.5 81.6231 112.5 85.5234 112.5H101.25C111.751 112.5 117.001 112.5 121.012 110.456C124.54 108.659 127.409 105.79 129.206 102.262C131.25 98.2515 131.25 93.001 131.25 82.5V48.75C131.25 38.249 131.25 32.9985 129.206 28.9877C127.409 25.4596 124.54 22.5913 121.012 20.7936C117.001 18.75 111.751 18.75 101.25 18.75H48.75C38.249 18.75 32.9985 18.75 28.9877 20.7936C25.4596 22.5913 22.5913 25.4596 20.7936 28.9877C18.75 32.9985 18.75 38.249 18.75 48.75V87.5C18.75 93.3123 18.75 96.2185 19.3889 98.6029C21.1226 105.073 26.1767 110.127 32.6471 111.861C35.0315 112.5 37.9377 112.5 43.75 112.5Z" stroke="white" stroke-width="2" stroke-linecap="round" stroke-linejoin="round"/>
</g>
<defs>
<filter id="filter0_d_13_769" x="-4" y="0" width="158" height="158" filterUnits="userSpaceOnUse" color-interpolation-filters="sRGB">
<feFlood flood-opacity="0" result="BackgroundImageFix"/>
<feColorMatrix in="SourceAlpha" type="matrix" values="0 0 0 0 0 0 0 0 0 0 0 0 0 0 0 0 0 0 127 0" result="hardAlpha"/>
<feOffset dy="4"/>
<feGaussianBlur stdDeviation="2"/>
<feComposite in2="hardAlpha" operator="out"/>
<feColorMatrix type="matrix" values="0 0 0 0 0 0 0 0 0 0 0 0 0 0 0 0 0 0 0.25 0"/>
<feBlend mode="normal" in2="BackgroundImageFix" result="effect1_dropShadow_13_769"/>
<feBlend mode="normal" in="SourceGraphic" in2="effect1_dropShadow_13_769" result="shape"/>
</filter>
</defs>
</svg>
