<svg width="96" height="68" viewBox="0 0 96 68" fill="none" xmlns="http://www.w3.org/2000/svg">
<path d="M56.3333 31.3333V12.1417C56.3333 9.94813 56.3333 8.85136 55.9064 8.01354C55.5309 7.27657 54.9317 6.6774 54.1948 6.30189C53.3569 5.875 52.2602 5.875 50.0666 5.875H35.1833C32.9898 5.875 31.893 5.875 31.0552 6.30189C30.3182 6.6774 29.719 7.27657 29.3435 8.01354C28.9166 8.85136 28.9166 9.94813 28.9166 12.1417V25.0667C28.9166 27.2602 28.9166 28.357 29.3435 29.1948C29.719 29.9318 30.3182 30.5309 31.0552 30.9064C31.893 31.3333 32.9898 31.3333 35.1833 31.3333H56.3333ZM56.3333 31.3333H64.95C66.0467 31.3333 66.5951 31.3333 67.014 31.1199C67.3825 30.9321 67.6821 30.6326 67.8698 30.2641C68.0833 29.8452 68.0833 29.2968 68.0833 28.2V22.8395C68.0833 22.3605 68.0833 22.1211 68.0292 21.8957C67.9812 21.6959 67.9021 21.5048 67.7947 21.3296C67.6736 21.132 67.5043 20.9626 67.1656 20.6239L63.126 16.5844C62.7873 16.2457 62.618 16.0764 62.4203 15.9552C62.2451 15.8479 62.0541 15.7687 61.8543 15.7208C61.6289 15.6667 61.3894 15.6667 60.9104 15.6667H56.3333M42.625 36.2292C42.625 38.9331 40.433 41.125 37.7291 41.125C35.0252 41.125 32.8333 38.9331 32.8333 36.2292C32.8333 33.5253 35.0252 31.3333 37.7291 31.3333C40.433 31.3333 42.625 33.5253 42.625 36.2292ZM64.1666 36.2292C64.1666 38.9331 61.9747 41.125 59.2708 41.125C56.5669 41.125 54.375 38.9331 54.375 36.2292C54.375 33.5253 56.5669 31.3333 59.2708 31.3333C61.9747 31.3333 64.1666 33.5253 64.1666 36.2292Z" stroke="white" stroke-width="2" stroke-linecap="round" stroke-linejoin="round"/>
<path d="M5.52344 52.625V64H4.03906V52.625H5.52344ZM9.17969 52.625V53.8594H0.390625V52.625H9.17969ZM11.5 56.875V64H10.0547V55.5469H11.4609L11.5 56.875ZM14.1406 55.5L14.1328 56.8438C14.013 56.8177 13.8984 56.8021 13.7891 56.7969C13.6849 56.7865 13.5651 56.7812 13.4297 56.7812C13.0964 56.7812 12.8021 56.8333 12.5469 56.9375C12.2917 57.0417 12.0755 57.1875 11.8984 57.375C11.7214 57.5625 11.5807 57.7865 11.4766 58.0469C11.3776 58.3021 11.3125 58.5833 11.2812 58.8906L10.875 59.125C10.875 58.6146 10.9245 58.1354 11.0234 57.6875C11.1276 57.2396 11.2865 56.8438 11.5 56.5C11.7135 56.151 11.9844 55.8802 12.3125 55.6875C12.6458 55.4896 13.0417 55.3906 13.5 55.3906C13.6042 55.3906 13.724 55.4036 13.8594 55.4297C13.9948 55.4505 14.0885 55.474 14.1406 55.5ZM20.1484 62.5547V58.2031C20.1484 57.8698 20.0807 57.5807 19.9453 57.3359C19.8151 57.0859 19.6172 56.8932 19.3516 56.7578C19.0859 56.6224 18.7578 56.5547 18.3672 56.5547C18.0026 56.5547 17.6823 56.6172 17.4062 56.7422C17.1354 56.8672 16.9219 57.0312 16.7656 57.2344C16.6146 57.4375 16.5391 57.6562 16.5391 57.8906H15.0938C15.0938 57.5885 15.1719 57.2891 15.3281 56.9922C15.4844 56.6953 15.7083 56.4271 16 56.1875C16.2969 55.9427 16.651 55.75 17.0625 55.6094C17.4792 55.4635 17.9427 55.3906 18.4531 55.3906C19.0677 55.3906 19.6094 55.4948 20.0781 55.7031C20.5521 55.9115 20.9219 56.2266 21.1875 56.6484C21.4583 57.0651 21.5938 57.5885 21.5938 58.2188V62.1562C21.5938 62.4375 21.6172 62.737 21.6641 63.0547C21.7161 63.3724 21.7917 63.6458 21.8906 63.875V64H20.3828C20.3099 63.8333 20.2526 63.612 20.2109 63.3359C20.1693 63.0547 20.1484 62.7943 20.1484 62.5547ZM20.3984 58.875L20.4141 59.8906H18.9531C18.5417 59.8906 18.1745 59.9245 17.8516 59.9922C17.5286 60.0547 17.2578 60.151 17.0391 60.2812C16.8203 60.4115 16.6536 60.5755 16.5391 60.7734C16.4245 60.9661 16.3672 61.1927 16.3672 61.4531C16.3672 61.7188 16.4271 61.9609 16.5469 62.1797C16.6667 62.3984 16.8464 62.5729 17.0859 62.7031C17.3307 62.8281 17.6302 62.8906 17.9844 62.8906C18.4271 62.8906 18.8177 62.7969 19.1562 62.6094C19.4948 62.4219 19.763 62.1927 19.9609 61.9219C20.1641 61.651 20.2734 61.388 20.2891 61.1328L20.9062 61.8281C20.8698 62.0469 20.7708 62.2891 20.6094 62.5547C20.4479 62.8203 20.2318 63.0755 19.9609 63.3203C19.6953 63.5599 19.3776 63.7604 19.0078 63.9219C18.6432 64.0781 18.2318 64.1562 17.7734 64.1562C17.2005 64.1562 16.6979 64.0443 16.2656 63.8203C15.8385 63.5964 15.5052 63.2969 15.2656 62.9219C15.0312 62.5417 14.9141 62.1172 14.9141 61.6484C14.9141 61.1953 15.0026 60.7969 15.1797 60.4531C15.3568 60.1042 15.612 59.8151 15.9453 59.5859C16.2786 59.3516 16.6797 59.1745 17.1484 59.0547C17.6172 58.9349 18.1406 58.875 18.7188 58.875H20.3984ZM25.3125 57.3516V64H23.8672V55.5469H25.2344L25.3125 57.3516ZM24.9688 59.4531L24.3672 59.4297C24.3724 58.8516 24.4583 58.3177 24.625 57.8281C24.7917 57.3333 25.026 56.9036 25.3281 56.5391C25.6302 56.1745 25.9896 55.8932 26.4062 55.6953C26.8281 55.4922 27.2943 55.3906 27.8047 55.3906C28.2214 55.3906 28.5964 55.4479 28.9297 55.5625C29.263 55.6719 29.5469 55.849 29.7812 56.0938C30.0208 56.3385 30.2031 56.6562 30.3281 57.0469C30.4531 57.4323 30.5156 57.9036 30.5156 58.4609V64H29.0625V58.4453C29.0625 58.0026 28.9974 57.6484 28.8672 57.3828C28.737 57.112 28.5469 56.9167 28.2969 56.7969C28.0469 56.6719 27.7396 56.6094 27.375 56.6094C27.0156 56.6094 26.6875 56.6849 26.3906 56.8359C26.099 56.987 25.8464 57.1953 25.6328 57.4609C25.4245 57.7266 25.2604 58.0312 25.1406 58.375C25.026 58.7135 24.9688 59.0729 24.9688 59.4531ZM37.6328 61.7578C37.6328 61.5495 37.5859 61.3568 37.4922 61.1797C37.4036 60.9974 37.2188 60.8333 36.9375 60.6875C36.6615 60.5365 36.2448 60.4062 35.6875 60.2969C35.2188 60.1979 34.7943 60.0807 34.4141 59.9453C34.0391 59.8099 33.7188 59.6458 33.4531 59.4531C33.1927 59.2604 32.9922 59.0339 32.8516 58.7734C32.7109 58.513 32.6406 58.2083 32.6406 57.8594C32.6406 57.526 32.7135 57.2109 32.8594 56.9141C33.0104 56.6172 33.2214 56.3542 33.4922 56.125C33.7682 55.8958 34.099 55.7161 34.4844 55.5859C34.8698 55.4557 35.2995 55.3906 35.7734 55.3906C36.4505 55.3906 37.0286 55.5104 37.5078 55.75C37.987 55.9896 38.3542 56.3099 38.6094 56.7109C38.8646 57.1068 38.9922 57.5469 38.9922 58.0312H37.5469C37.5469 57.7969 37.4766 57.5703 37.3359 57.3516C37.2005 57.1276 37 56.9427 36.7344 56.7969C36.474 56.651 36.1536 56.5781 35.7734 56.5781C35.3724 56.5781 35.0469 56.6406 34.7969 56.7656C34.5521 56.8854 34.3724 57.0391 34.2578 57.2266C34.1484 57.4141 34.0938 57.612 34.0938 57.8203C34.0938 57.9766 34.1198 58.1172 34.1719 58.2422C34.2292 58.362 34.3281 58.474 34.4688 58.5781C34.6094 58.6771 34.8073 58.7708 35.0625 58.8594C35.3177 58.9479 35.6432 59.0365 36.0391 59.125C36.7318 59.2812 37.3021 59.4688 37.75 59.6875C38.1979 59.9062 38.5312 60.1745 38.75 60.4922C38.9688 60.8099 39.0781 61.1953 39.0781 61.6484C39.0781 62.0182 39 62.3568 38.8438 62.6641C38.6927 62.9714 38.4714 63.237 38.1797 63.4609C37.8932 63.6797 37.5495 63.8516 37.1484 63.9766C36.7526 64.0964 36.3073 64.1562 35.8125 64.1562C35.0677 64.1562 34.4375 64.0234 33.9219 63.7578C33.4062 63.4922 33.0156 63.1484 32.75 62.7266C32.4844 62.3047 32.3516 61.8594 32.3516 61.3906H33.8047C33.8255 61.7865 33.9401 62.1016 34.1484 62.3359C34.3568 62.5651 34.612 62.7292 34.9141 62.8281C35.2161 62.9219 35.5156 62.9688 35.8125 62.9688C36.2083 62.9688 36.5391 62.9167 36.8047 62.8125C37.0755 62.7083 37.2812 62.5651 37.4219 62.3828C37.5625 62.2005 37.6328 61.9922 37.6328 61.7578ZM42.4219 57.1719V67.25H40.9688V55.5469H42.2969L42.4219 57.1719ZM48.1172 59.7031V59.8672C48.1172 60.4818 48.0443 61.0521 47.8984 61.5781C47.7526 62.099 47.5391 62.5521 47.2578 62.9375C46.9818 63.3229 46.6406 63.6224 46.2344 63.8359C45.8281 64.0495 45.362 64.1562 44.8359 64.1562C44.2995 64.1562 43.8255 64.0677 43.4141 63.8906C43.0026 63.7135 42.6536 63.4557 42.3672 63.1172C42.0807 62.7786 41.8516 62.3724 41.6797 61.8984C41.513 61.4245 41.3984 60.8906 41.3359 60.2969V59.4219C41.3984 58.7969 41.5156 58.237 41.6875 57.7422C41.8594 57.2474 42.0859 56.8255 42.3672 56.4766C42.6536 56.1224 43 55.8542 43.4062 55.6719C43.8125 55.4844 44.2812 55.3906 44.8125 55.3906C45.3438 55.3906 45.8151 55.4948 46.2266 55.7031C46.638 55.9062 46.9844 56.1979 47.2656 56.5781C47.5469 56.9583 47.7578 57.4141 47.8984 57.9453C48.0443 58.4714 48.1172 59.0573 48.1172 59.7031ZM46.6641 59.8672V59.7031C46.6641 59.2812 46.6198 58.8854 46.5312 58.5156C46.4427 58.1406 46.3047 57.8125 46.1172 57.5312C45.9349 57.2448 45.7005 57.0208 45.4141 56.8594C45.1276 56.6927 44.7865 56.6094 44.3906 56.6094C44.026 56.6094 43.7083 56.6719 43.4375 56.7969C43.1719 56.9219 42.9453 57.0911 42.7578 57.3047C42.5703 57.513 42.4167 57.7526 42.2969 58.0234C42.1823 58.2891 42.0964 58.5651 42.0391 58.8516V60.875C42.1432 61.2396 42.2891 61.5833 42.4766 61.9062C42.6641 62.224 42.9141 62.4818 43.2266 62.6797C43.5391 62.8724 43.9323 62.9688 44.4062 62.9688C44.7969 62.9688 45.1328 62.888 45.4141 62.7266C45.7005 62.5599 45.9349 62.3333 46.1172 62.0469C46.3047 61.7604 46.4427 61.4323 46.5312 61.0625C46.6198 60.6875 46.6641 60.2891 46.6641 59.8672ZM49.5781 59.8672V59.6875C49.5781 59.0781 49.6667 58.513 49.8438 57.9922C50.0208 57.4661 50.276 57.0104 50.6094 56.625C50.9427 56.2344 51.3464 55.9323 51.8203 55.7188C52.2943 55.5 52.8255 55.3906 53.4141 55.3906C54.0078 55.3906 54.5417 55.5 55.0156 55.7188C55.4948 55.9323 55.901 56.2344 56.2344 56.625C56.5729 57.0104 56.8307 57.4661 57.0078 57.9922C57.1849 58.513 57.2734 59.0781 57.2734 59.6875V59.8672C57.2734 60.4766 57.1849 61.0417 57.0078 61.5625C56.8307 62.0833 56.5729 62.5391 56.2344 62.9297C55.901 63.3151 55.4974 63.6172 55.0234 63.8359C54.5547 64.0495 54.0234 64.1562 53.4297 64.1562C52.8359 64.1562 52.3021 64.0495 51.8281 63.8359C51.3542 63.6172 50.9479 63.3151 50.6094 62.9297C50.276 62.5391 50.0208 62.0833 49.8438 61.5625C49.6667 61.0417 49.5781 60.4766 49.5781 59.8672ZM51.0234 59.6875V59.8672C51.0234 60.2891 51.0729 60.6875 51.1719 61.0625C51.2708 61.4323 51.4193 61.7604 51.6172 62.0469C51.8203 62.3333 52.0729 62.5599 52.375 62.7266C52.6771 62.888 53.0286 62.9688 53.4297 62.9688C53.8255 62.9688 54.1719 62.888 54.4688 62.7266C54.7708 62.5599 55.0208 62.3333 55.2188 62.0469C55.4167 61.7604 55.5651 61.4323 55.6641 61.0625C55.7682 60.6875 55.8203 60.2891 55.8203 59.8672V59.6875C55.8203 59.2708 55.7682 58.8776 55.6641 58.5078C55.5651 58.1328 55.4141 57.8021 55.2109 57.5156C55.013 57.224 54.763 56.9948 54.4609 56.8281C54.1641 56.6615 53.8151 56.5781 53.4141 56.5781C53.0182 56.5781 52.6693 56.6615 52.3672 56.8281C52.0703 56.9948 51.8203 57.224 51.6172 57.5156C51.4193 57.8021 51.2708 58.1328 51.1719 58.5078C51.0729 58.8776 51.0234 59.2708 51.0234 59.6875ZM60.5312 56.875V64H59.0859V55.5469H60.4922L60.5312 56.875ZM63.1719 55.5L63.1641 56.8438C63.0443 56.8177 62.9297 56.8021 62.8203 56.7969C62.7161 56.7865 62.5964 56.7812 62.4609 56.7812C62.1276 56.7812 61.8333 56.8333 61.5781 56.9375C61.3229 57.0417 61.1068 57.1875 60.9297 57.375C60.7526 57.5625 60.612 57.7865 60.5078 58.0469C60.4089 58.3021 60.3438 58.5833 60.3125 58.8906L59.9062 59.125C59.9062 58.6146 59.9557 58.1354 60.0547 57.6875C60.1589 57.2396 60.3177 56.8438 60.5312 56.5C60.7448 56.151 61.0156 55.8802 61.3438 55.6875C61.6771 55.4896 62.0729 55.3906 62.5312 55.3906C62.6354 55.3906 62.7552 55.4036 62.8906 55.4297C63.026 55.4505 63.1198 55.474 63.1719 55.5ZM68.4375 55.5469V56.6562H63.8672V55.5469H68.4375ZM65.4141 53.4922H66.8594V61.9062C66.8594 62.1927 66.9036 62.4089 66.9922 62.5547C67.0807 62.7005 67.1953 62.7969 67.3359 62.8438C67.4766 62.8906 67.6276 62.9141 67.7891 62.9141C67.9089 62.9141 68.0339 62.9036 68.1641 62.8828C68.2995 62.8568 68.401 62.8359 68.4688 62.8203L68.4766 64C68.362 64.0365 68.2109 64.0703 68.0234 64.1016C67.8411 64.138 67.6198 64.1562 67.3594 64.1562C67.0052 64.1562 66.6797 64.0859 66.3828 63.9453C66.0859 63.8047 65.849 63.5703 65.6719 63.2422C65.5 62.9089 65.4141 62.4609 65.4141 61.8984V53.4922ZM71.7031 55.5469V64H70.25V55.5469H71.7031ZM70.1406 53.3047C70.1406 53.0703 70.2109 52.8724 70.3516 52.7109C70.4974 52.5495 70.7109 52.4688 70.9922 52.4688C71.2682 52.4688 71.4792 52.5495 71.625 52.7109C71.776 52.8724 71.8516 53.0703 71.8516 53.3047C71.8516 53.5286 71.776 53.7214 71.625 53.8828C71.4792 54.0391 71.2682 54.1172 70.9922 54.1172C70.7109 54.1172 70.4974 54.0391 70.3516 53.8828C70.2109 53.7214 70.1406 53.5286 70.1406 53.3047ZM78.9453 61.7578C78.9453 61.5495 78.8984 61.3568 78.8047 61.1797C78.7161 60.9974 78.5312 60.8333 78.25 60.6875C77.974 60.5365 77.5573 60.4062 77 60.2969C76.5312 60.1979 76.1068 60.0807 75.7266 59.9453C75.3516 59.8099 75.0312 59.6458 74.7656 59.4531C74.5052 59.2604 74.3047 59.0339 74.1641 58.7734C74.0234 58.513 73.9531 58.2083 73.9531 57.8594C73.9531 57.526 74.026 57.2109 74.1719 56.9141C74.3229 56.6172 74.5339 56.3542 74.8047 56.125C75.0807 55.8958 75.4115 55.7161 75.7969 55.5859C76.1823 55.4557 76.612 55.3906 77.0859 55.3906C77.763 55.3906 78.3411 55.5104 78.8203 55.75C79.2995 55.9896 79.6667 56.3099 79.9219 56.7109C80.1771 57.1068 80.3047 57.5469 80.3047 58.0312H78.8594C78.8594 57.7969 78.7891 57.5703 78.6484 57.3516C78.513 57.1276 78.3125 56.9427 78.0469 56.7969C77.7865 56.651 77.4661 56.5781 77.0859 56.5781C76.6849 56.5781 76.3594 56.6406 76.1094 56.7656C75.8646 56.8854 75.6849 57.0391 75.5703 57.2266C75.4609 57.4141 75.4062 57.612 75.4062 57.8203C75.4062 57.9766 75.4323 58.1172 75.4844 58.2422C75.5417 58.362 75.6406 58.474 75.7812 58.5781C75.9219 58.6771 76.1198 58.7708 76.375 58.8594C76.6302 58.9479 76.9557 59.0365 77.3516 59.125C78.0443 59.2812 78.6146 59.4688 79.0625 59.6875C79.5104 59.9062 79.8438 60.1745 80.0625 60.4922C80.2812 60.8099 80.3906 61.1953 80.3906 61.6484C80.3906 62.0182 80.3125 62.3568 80.1562 62.6641C80.0052 62.9714 79.7839 63.237 79.4922 63.4609C79.2057 63.6797 78.862 63.8516 78.4609 63.9766C78.0651 64.0964 77.6198 64.1562 77.125 64.1562C76.3802 64.1562 75.75 64.0234 75.2344 63.7578C74.7188 63.4922 74.3281 63.1484 74.0625 62.7266C73.7969 62.3047 73.6641 61.8594 73.6641 61.3906H75.1172C75.138 61.7865 75.2526 62.1016 75.4609 62.3359C75.6693 62.5651 75.9245 62.7292 76.2266 62.8281C76.5286 62.9219 76.8281 62.9688 77.125 62.9688C77.5208 62.9688 77.8516 62.9167 78.1172 62.8125C78.388 62.7083 78.5938 62.5651 78.7344 62.3828C78.875 62.2005 78.9453 61.9922 78.9453 61.7578ZM85.8281 55.5469V56.6562H81.2578V55.5469H85.8281ZM82.8047 53.4922H84.25V61.9062C84.25 62.1927 84.2943 62.4089 84.3828 62.5547C84.4714 62.7005 84.5859 62.7969 84.7266 62.8438C84.8672 62.8906 85.0182 62.9141 85.1797 62.9141C85.2995 62.9141 85.4245 62.9036 85.5547 62.8828C85.6901 62.8568 85.7917 62.8359 85.8594 62.8203L85.8672 64C85.7526 64.0365 85.6016 64.0703 85.4141 64.1016C85.2318 64.138 85.0104 64.1562 84.75 64.1562C84.3958 64.1562 84.0703 64.0859 83.7734 63.9453C83.4766 63.8047 83.2396 63.5703 83.0625 63.2422C82.8906 62.9089 82.8047 62.4609 82.8047 61.8984V53.4922ZM92.5078 62.5547V58.2031C92.5078 57.8698 92.4401 57.5807 92.3047 57.3359C92.1745 57.0859 91.9766 56.8932 91.7109 56.7578C91.4453 56.6224 91.1172 56.5547 90.7266 56.5547C90.362 56.5547 90.0417 56.6172 89.7656 56.7422C89.4948 56.8672 89.2812 57.0312 89.125 57.2344C88.974 57.4375 88.8984 57.6562 88.8984 57.8906H87.4531C87.4531 57.5885 87.5312 57.2891 87.6875 56.9922C87.8438 56.6953 88.0677 56.4271 88.3594 56.1875C88.6562 55.9427 89.0104 55.75 89.4219 55.6094C89.8385 55.4635 90.3021 55.3906 90.8125 55.3906C91.4271 55.3906 91.9688 55.4948 92.4375 55.7031C92.9115 55.9115 93.2812 56.2266 93.5469 56.6484C93.8177 57.0651 93.9531 57.5885 93.9531 58.2188V62.1562C93.9531 62.4375 93.9766 62.737 94.0234 63.0547C94.0755 63.3724 94.151 63.6458 94.25 63.875V64H92.7422C92.6693 63.8333 92.612 63.612 92.5703 63.3359C92.5286 63.0547 92.5078 62.7943 92.5078 62.5547ZM92.7578 58.875L92.7734 59.8906H91.3125C90.901 59.8906 90.5339 59.9245 90.2109 59.9922C89.888 60.0547 89.6172 60.151 89.3984 60.2812C89.1797 60.4115 89.013 60.5755 88.8984 60.7734C88.7839 60.9661 88.7266 61.1927 88.7266 61.4531C88.7266 61.7188 88.7865 61.9609 88.9062 62.1797C89.026 62.3984 89.2057 62.5729 89.4453 62.7031C89.6901 62.8281 89.9896 62.8906 90.3438 62.8906C90.7865 62.8906 91.1771 62.7969 91.5156 62.6094C91.8542 62.4219 92.1224 62.1927 92.3203 61.9219C92.5234 61.651 92.6328 61.388 92.6484 61.1328L93.2656 61.8281C93.2292 62.0469 93.1302 62.2891 92.9688 62.5547C92.8073 62.8203 92.5911 63.0755 92.3203 63.3203C92.0547 63.5599 91.737 63.7604 91.3672 63.9219C91.0026 64.0781 90.5911 64.1562 90.1328 64.1562C89.5599 64.1562 89.0573 64.0443 88.625 63.8203C88.1979 63.5964 87.8646 63.2969 87.625 62.9219C87.3906 62.5417 87.2734 62.1172 87.2734 61.6484C87.2734 61.1953 87.362 60.7969 87.5391 60.4531C87.7161 60.1042 87.9714 59.8151 88.3047 59.5859C88.638 59.3516 89.0391 59.1745 89.5078 59.0547C89.9766 58.9349 90.5 58.875 91.0781 58.875H92.7578Z" fill="white"/>
</svg>
